M48
; DRILL file KiCad 10.0.6 date 2026-09-23T13:55:35
; FORMAT={-:-/ absolute / metric / decimal}
; #@! TF.CreationDate,2026-09-23T13:55:35-04:00
; #@! TF.GenerationSoftware,Kicad,Pcbnew,10.0.6
; #@! TF.FileFunction,Plated,1,2,PTH
FMAT,2
METRIC
; #@! TA.AperFunction,Plated,PTH,ViaDrill
T1C0.400
; #@! TA.AperFunction,Plated,PTH,ComponentDrill
T2C0.900
; #@! TA.AperFunction,Plated,PTH,ComponentDrill
T3C1.000
; #@! TA.AperFunction,Plated,PTH,ComponentDrill
T4C1.500
%
G90
G05
T1
X439.433Y-232.7
X439.877Y-245.998
X440.893Y-233.617
X449.275Y-209.017
X450.9Y-215.9
X452.272Y-213.8
X452.45Y-235.5
X454.977Y-230.8
X455.1Y-219.4
X457.1Y-250.8
X458.4Y-234.6
X462.5Y-253.8
X462.9Y-230.8
X468.2Y-214.6
X471.9Y-247.0
X472.6Y-227.851
X473.0Y-219.6
X486.6Y-254.3
X490.106Y-184.277
X491.35Y-223.71
X492.163Y-198.9
T3
X433.794Y-208.674
X433.794Y-211.214
X433.794Y-213.754
X433.794Y-216.294
X433.794Y-218.834
X433.794Y-221.374
X433.794Y-223.914
X433.794Y-226.454
X433.794Y-228.994
X433.794Y-231.534
X433.794Y-234.074
X433.794Y-236.614
X433.794Y-239.154
X433.794Y-241.694
X433.794Y-244.234
X433.794Y-246.774
T4
X440.474Y-182.969
X440.474Y-202.032
X440.499Y-240.106
X440.512Y-221.043
X440.512Y-259.131
X446.824Y-180.429
X446.824Y-199.492
X446.849Y-237.566
X446.862Y-218.504
X446.862Y-256.591
X459.499Y-182.969
X459.549Y-202.019
X459.562Y-221.043
X459.562Y-240.081
X459.562Y-259.169
X465.849Y-180.429
X465.899Y-199.479
X465.912Y-218.504
X465.912Y-237.541
X465.912Y-256.629
X478.599Y-240.093
X478.625Y-182.969
X478.625Y-259.156
X478.65Y-221.082
X478.663Y-202.057
X484.95Y-237.553
X484.975Y-180.429
X484.975Y-256.616
X485.0Y-218.542
X485.013Y-199.517
X497.688Y-182.944
X497.688Y-249.606
X497.7Y-202.057
X497.7Y-221.082
X504.038Y-180.403
X504.038Y-247.066
X504.05Y-199.517
X504.05Y-218.542
T2
G00X441.959Y-179.759
M15
G01X441.409Y-179.759
M16
G05
G00X441.959Y-198.822
M15
G01X441.409Y-198.822
M16
G05
G00X441.984Y-236.896
M15
G01X441.434Y-236.896
M16
G05
G00X441.997Y-217.833
M15
G01X441.447Y-217.833
M16
G05
G00X441.997Y-255.921
M15
G01X441.447Y-255.921
M16
G05
G00X448.684Y-180.534
M15
G01X448.684Y-181.084
M16
G05
G00X448.684Y-199.597
M15
G01X448.684Y-200.147
M16
G05
G00X448.709Y-237.671
M15
G01X448.709Y-238.221
M16
G05
G00X448.722Y-218.608
M15
G01X448.722Y-219.159
M16
G05
G00X448.722Y-256.696
M15
G01X448.722Y-257.246
M16
G05
G00X460.984Y-179.759
M15
G01X460.434Y-179.759
M16
G05
G00X461.034Y-198.809
M15
G01X460.484Y-198.809
M16
G05
G00X461.047Y-217.833
M15
G01X460.497Y-217.833
M16
G05
G00X461.047Y-236.871
M15
G01X460.497Y-236.871
M16
G05
G00X461.047Y-255.959
M15
G01X460.497Y-255.959
M16
G05
G00X467.709Y-180.534
M15
G01X467.709Y-181.084
M16
G05
G00X467.76Y-199.584
M15
G01X467.76Y-200.134
M16
G05
G00X467.772Y-218.608
M15
G01X467.772Y-219.159
M16
G05
G00X467.772Y-237.646
M15
G01X467.772Y-238.196
M16
G05
G00X467.772Y-256.734
M15
G01X467.772Y-257.284
M16
G05
G00X480.084Y-236.883
M15
G01X479.534Y-236.883
M16
G05
G00X480.11Y-179.759
M15
G01X479.56Y-179.759
M16
G05
G00X480.11Y-255.946
M15
G01X479.56Y-255.946
M16
G05
G00X480.135Y-217.872
M15
G01X479.585Y-217.872
M16
G05
G00X480.148Y-198.847
M15
G01X479.598Y-198.847
M16
G05
G00X486.809Y-237.658
M15
G01X486.809Y-238.208
M16
G05
G00X486.835Y-180.534
M15
G01X486.835Y-181.084
M16
G05
G00X486.835Y-256.721
M15
G01X486.835Y-257.271
M16
G05
G00X486.86Y-218.647
M15
G01X486.86Y-219.197
M16
G05
G00X486.873Y-199.622
M15
G01X486.873Y-200.172
M16
G05
G00X499.173Y-179.733
M15
G01X498.623Y-179.733
M16
G05
G00X499.173Y-246.396
M15
G01X498.623Y-246.396
M16
G05
G00X499.185Y-198.847
M15
G01X498.635Y-198.847
M16
G05
G00X499.185Y-217.872
M15
G01X498.635Y-217.872
M16
G05
G00X505.898Y-180.508
M15
G01X505.898Y-181.058
M16
G05
G00X505.898Y-247.171
M15
G01X505.898Y-247.721
M16
G05
G00X505.91Y-199.622
M15
G01X505.91Y-200.172
M16
G05
G00X505.91Y-218.647
M15
G01X505.91Y-219.197
M16
G05
M30
