M48
; DRILL file KiCad 10.0.6 date 2026-09-23T13:55:35
; FORMAT={-:-/ absolute / metric / decimal}
; #@! TF.CreationDate,2026-09-23T13:55:35-04:00
; #@! TF.GenerationSoftware,Kicad,Pcbnew,10.0.6
; #@! TF.FileFunction,NonPlated,1,2,NPTH
FMAT,2
METRIC
; #@! TA.AperFunction,NonPlated,NPTH,ComponentDrill
T1C1.700
; #@! TA.AperFunction,NonPlated,NPTH,ComponentDrill
T2C5.100
%
G90
G05
T1
X439.204Y-185.509
X439.204Y-204.572
X439.229Y-242.646
X439.242Y-223.583
X439.242Y-261.671
X449.364Y-185.509
X449.364Y-204.572
X449.389Y-242.646
X449.402Y-223.583
X449.402Y-261.671
X458.229Y-185.509
X458.279Y-204.559
X458.292Y-223.583
X458.292Y-242.621
X458.292Y-261.709
X468.389Y-185.509
X468.439Y-204.559
X468.452Y-223.583
X468.452Y-242.621
X468.452Y-261.709
X477.329Y-242.633
X477.355Y-185.509
X477.355Y-261.696
X477.38Y-223.622
X477.393Y-204.597
X487.489Y-242.633
X487.515Y-185.509
X487.515Y-261.696
X487.54Y-223.622
X487.553Y-204.597
X496.418Y-185.483
X496.418Y-252.146
X496.43Y-204.597
X496.43Y-223.622
X506.578Y-185.483
X506.578Y-252.146
X506.59Y-204.597
X506.59Y-223.622
T2
X444.284Y-185.509
X444.284Y-204.572
X444.309Y-242.646
X444.322Y-223.583
X444.322Y-261.671
X463.309Y-185.509
X463.359Y-204.559
X463.372Y-223.583
X463.372Y-242.621
X463.372Y-261.709
X482.409Y-242.633
X482.435Y-185.509
X482.435Y-261.696
X482.46Y-223.622
X482.473Y-204.597
X501.498Y-185.483
X501.498Y-252.146
X501.51Y-204.597
X501.51Y-223.622
M30
