G04 #@! TF.GenerationSoftware,KiCad,Pcbnew,10.0.6*
G04 #@! TF.CreationDate,2026-09-23T13:55:40-04:00*
G04 #@! TF.ProjectId,v364mx-numpad,76333634-6d78-42d6-9e75-6d7061642e6b,V1-R2*
G04 #@! TF.SameCoordinates,Original*
G04 #@! TF.FileFunction,Copper,L1,Top*
G04 #@! TF.FilePolarity,Positive*
%FSLAX46Y46*%
G04 Gerber Fmt 4.6, Leading zero omitted, Abs format (unit mm)*
G04 Created by KiCad (PCBNEW 10.0.6) date 2026-09-23 13:55:40*
%MOMM*%
%LPD*%
G01*
G04 APERTURE LIST*
G04 #@! TA.AperFunction,ComponentPad*
%ADD10C,2.200000*%
G04 #@! TD*
G04 #@! TA.AperFunction,ComponentPad*
%ADD11O,1.900000X2.450000*%
G04 #@! TD*
G04 #@! TA.AperFunction,ComponentPad*
%ADD12O,2.450000X1.900000*%
G04 #@! TD*
G04 #@! TA.AperFunction,ComponentPad*
%ADD13R,1.700000X1.700000*%
G04 #@! TD*
G04 #@! TA.AperFunction,ComponentPad*
%ADD14C,1.700000*%
G04 #@! TD*
G04 #@! TA.AperFunction,ViaPad*
%ADD15C,0.800000*%
G04 #@! TD*
G04 #@! TA.AperFunction,Conductor*
%ADD16C,0.250000*%
G04 #@! TD*
G04 #@! TA.AperFunction,Profile*
%ADD17C,0.050000*%
G04 #@! TD*
G04 APERTURE END LIST*
D10*
X504037600Y-180403500D03*
D11*
X505897600Y-180783500D03*
D10*
X497687600Y-182943500D03*
D12*
X498897600Y-179733500D03*
D10*
X446824100Y-180428900D03*
D11*
X448684100Y-180808900D03*
D10*
X440474100Y-182968900D03*
D12*
X441684100Y-179758900D03*
D10*
X484974900Y-180428900D03*
D11*
X486834900Y-180808900D03*
D10*
X478624900Y-182968900D03*
D12*
X479834900Y-179758900D03*
D10*
X465848700Y-180428900D03*
D11*
X467708700Y-180808900D03*
D10*
X459498700Y-182968900D03*
D12*
X460708700Y-179758900D03*
D10*
X484949500Y-237553500D03*
D11*
X486809500Y-237933500D03*
D10*
X478599500Y-240093500D03*
D12*
X479809500Y-236883500D03*
D10*
X465912200Y-218503500D03*
D11*
X467772200Y-218883500D03*
D10*
X459562200Y-221043500D03*
D12*
X460772200Y-217833500D03*
D10*
X446862200Y-218503500D03*
D11*
X448722200Y-218883500D03*
D10*
X440512200Y-221043500D03*
D12*
X441722200Y-217833500D03*
D10*
X485000300Y-218541600D03*
D11*
X486860300Y-218921600D03*
D10*
X478650300Y-221081600D03*
D12*
X479860300Y-217871600D03*
D10*
X465912200Y-237540800D03*
D11*
X467772200Y-237920800D03*
D10*
X459562200Y-240080800D03*
D12*
X460772200Y-236870800D03*
D10*
X504050300Y-218541600D03*
D11*
X505910300Y-218921600D03*
D10*
X497700300Y-221081600D03*
D12*
X498910300Y-217871600D03*
D10*
X446849500Y-237566200D03*
D11*
X448709500Y-237946200D03*
D10*
X440499500Y-240106200D03*
D12*
X441709500Y-236896200D03*
D10*
X465899500Y-199478900D03*
D11*
X467759500Y-199858900D03*
D10*
X459549500Y-202018900D03*
D12*
X460759500Y-198808900D03*
D10*
X446824100Y-199491600D03*
D11*
X448684100Y-199871600D03*
D10*
X440474100Y-202031600D03*
D12*
X441684100Y-198821600D03*
D10*
X504050300Y-199517000D03*
D11*
X505910300Y-199897000D03*
D10*
X497700300Y-202057000D03*
D12*
X498910300Y-198847000D03*
D10*
X485013000Y-199517000D03*
D11*
X486873000Y-199897000D03*
D10*
X478663000Y-202057000D03*
D12*
X479873000Y-198847000D03*
D10*
X465912200Y-256628900D03*
D11*
X467772200Y-257008900D03*
D10*
X459562200Y-259168900D03*
D12*
X460772200Y-255958900D03*
D10*
X484974900Y-256616200D03*
D11*
X486834900Y-256996200D03*
D10*
X478624900Y-259156200D03*
D12*
X479834900Y-255946200D03*
D10*
X446862200Y-256590800D03*
D11*
X448722200Y-256970800D03*
D10*
X440512200Y-259130800D03*
D12*
X441722200Y-255920800D03*
D10*
X504037600Y-247065800D03*
D11*
X505897600Y-247445800D03*
D10*
X497687600Y-249605800D03*
D12*
X498897600Y-246395800D03*
D13*
X433793900Y-208673700D03*
D14*
X433793900Y-211213700D03*
X433793900Y-213753700D03*
X433793900Y-216293700D03*
X433793900Y-218833700D03*
X433793900Y-221373700D03*
X433793900Y-223913700D03*
X433793900Y-226453700D03*
X433793900Y-228993700D03*
X433793900Y-231533700D03*
X433793900Y-234073700D03*
X433793900Y-236613700D03*
X433793900Y-239153700D03*
X433793900Y-241693700D03*
X433793900Y-244233700D03*
X433793900Y-246773700D03*
D15*
X472600000Y-227850700D03*
X452272400Y-213800000D03*
X492163100Y-198900000D03*
X491350300Y-223710500D03*
X490105700Y-184277000D03*
X486600000Y-254300000D03*
X457100000Y-250800000D03*
X450900000Y-215900000D03*
X449275200Y-209016600D03*
X473000000Y-219600000D03*
X440893200Y-233616500D03*
X458400000Y-234600000D03*
X462900000Y-230800000D03*
X455100000Y-219400000D03*
X462500000Y-253800000D03*
X454977500Y-230800000D03*
X439432700Y-232700000D03*
X452450200Y-235500000D03*
X471900000Y-247000000D03*
X439877200Y-245997900D03*
X468200000Y-214600000D03*
D16*
X509117600Y-233438700D02*
X509117600Y-182517600D01*
X505460000Y-180403500D02*
X504037600Y-180403500D01*
X509100000Y-253200000D02*
X509100000Y-233456300D01*
X505683800Y-256616200D02*
X509100000Y-253200000D01*
X509117600Y-182517600D02*
X507383500Y-180783500D01*
X472600000Y-227850700D02*
X440250700Y-227850700D01*
X507383500Y-180783500D02*
X505897600Y-180783500D01*
X509100000Y-233456300D02*
X509117600Y-233438700D01*
X440250700Y-227850700D02*
X433793900Y-221393900D01*
X433793900Y-221393900D02*
X433793900Y-221373700D01*
X504037600Y-180403500D02*
X504037600Y-180225700D01*
X484974900Y-256616200D02*
X505683800Y-256616200D01*
X433793900Y-244233700D02*
X435013100Y-244233700D01*
X498897600Y-179197600D02*
X498897600Y-179733500D01*
X497700300Y-202057000D02*
X497700300Y-200057000D01*
X492344100Y-177600000D02*
X497300000Y-177600000D01*
X488000000Y-251800000D02*
X497700300Y-242099700D01*
X497687600Y-182943500D02*
X497687600Y-180943500D01*
X497300000Y-177600000D02*
X498897600Y-179197600D01*
X459498700Y-181330600D02*
X463229300Y-177600000D01*
X442579400Y-251800000D02*
X488000000Y-251800000D01*
X497700300Y-200057000D02*
X498910300Y-198847000D01*
X497687600Y-180943500D02*
X498897600Y-179733500D01*
X463229300Y-177600000D02*
X492344100Y-177600000D01*
X497700300Y-219081600D02*
X498910300Y-217871600D01*
X497700300Y-242099700D02*
X497700300Y-221081600D01*
X435013100Y-244233700D02*
X442579400Y-251800000D01*
X459498700Y-182968900D02*
X459498700Y-181330600D01*
X497700300Y-221081600D02*
X497700300Y-219081600D01*
X437406300Y-216293700D02*
X433793900Y-216293700D01*
X439900000Y-213800000D02*
X437406300Y-216293700D01*
X452272400Y-213800000D02*
X500312000Y-213800000D01*
X452272400Y-213800000D02*
X439900000Y-213800000D01*
X500312000Y-213800000D02*
X504050300Y-217538300D01*
X504050300Y-217538300D02*
X504050300Y-218541600D01*
X440474100Y-182968900D02*
X440474100Y-180968900D01*
X492163100Y-198900000D02*
X487954100Y-194691000D01*
X441285300Y-187185300D02*
X440900000Y-186800000D01*
X492894200Y-249605800D02*
X497687600Y-249605800D01*
X448818000Y-194691000D02*
X441312300Y-187185300D01*
X440474100Y-184674100D02*
X440474100Y-182968900D01*
X433793900Y-246773700D02*
X436333900Y-246773700D01*
X440900000Y-185100000D02*
X440474100Y-184674100D01*
X441312300Y-187185300D02*
X441285300Y-187185300D01*
X440436000Y-182930800D02*
X440474100Y-182968900D01*
X436333900Y-246773700D02*
X442260200Y-252700000D01*
X442260200Y-252700000D02*
X489800000Y-252700000D01*
X489800000Y-252700000D02*
X492894200Y-249605800D01*
X487954100Y-194691000D02*
X448818000Y-194691000D01*
X440900000Y-186800000D02*
X440900000Y-185100000D01*
X440474100Y-180968900D02*
X441684100Y-179758900D01*
X438625450Y-229025450D02*
X489474550Y-229025450D01*
X489474550Y-229025450D02*
X491350300Y-227149700D01*
X473900000Y-178100000D02*
X482646000Y-178100000D01*
X482646000Y-178100000D02*
X484974900Y-180428900D01*
X471191100Y-180808900D02*
X473900000Y-178100000D01*
X491350300Y-227149700D02*
X491350300Y-223710500D01*
X467708700Y-180808900D02*
X471191100Y-180808900D01*
X433793900Y-223913700D02*
X433793900Y-224193900D01*
X433793900Y-224193900D02*
X438625450Y-229025450D01*
X478624900Y-257156200D02*
X479834900Y-255946200D01*
X478624900Y-259156200D02*
X478624900Y-257156200D01*
X488328700Y-182500000D02*
X490105700Y-184277000D01*
X460772200Y-255958900D02*
X462690000Y-255958900D01*
X479834900Y-180718000D02*
X481616900Y-182500000D01*
X486600000Y-254300000D02*
X481481100Y-254300000D01*
X457000000Y-250900000D02*
X443406600Y-250900000D01*
X443406600Y-250900000D02*
X436416450Y-243909850D01*
X479834900Y-179758900D02*
X479834900Y-181758900D01*
X459562200Y-259168900D02*
X459562200Y-257137800D01*
X478612200Y-259168900D02*
X478624900Y-259156200D01*
X460741100Y-255958900D02*
X460772200Y-255958900D01*
X465900000Y-259168900D02*
X478612200Y-259168900D01*
X436416450Y-243909850D02*
X436416450Y-243016450D01*
X481616900Y-182500000D02*
X488328700Y-182500000D01*
X459562200Y-257137800D02*
X460741100Y-255958900D01*
X457100000Y-250800000D02*
X457000000Y-250900000D01*
X479834900Y-181758900D02*
X478624900Y-182968900D01*
X462690000Y-255958900D02*
X465900000Y-259168900D01*
X436416450Y-243016450D02*
X435093700Y-241693700D01*
X481481100Y-254300000D02*
X479834900Y-255946200D01*
X479834900Y-179758900D02*
X479834900Y-180718000D01*
X435093700Y-241693700D02*
X433793900Y-241693700D01*
X463308700Y-215900000D02*
X465912200Y-218503500D01*
X449815700Y-196500000D02*
X446824100Y-199491600D01*
X433793900Y-208673700D02*
X448932300Y-208673700D01*
X473000000Y-219600000D02*
X471903500Y-218503500D01*
X471903500Y-218503500D02*
X465912200Y-218503500D01*
X481996000Y-196500000D02*
X449815700Y-196500000D01*
X450900000Y-215900000D02*
X463308700Y-215900000D01*
X448932300Y-208673700D02*
X449275200Y-209016600D01*
X485013000Y-199517000D02*
X481996000Y-196500000D01*
X440512200Y-221043500D02*
X440512200Y-219043500D01*
X440880500Y-233603800D02*
X440893200Y-233616500D01*
X433793900Y-231533700D02*
X437033700Y-231533700D01*
X479809500Y-238883500D02*
X479809500Y-236883500D01*
X440512200Y-219043500D02*
X441722200Y-217833500D01*
X472122500Y-233616500D02*
X478599500Y-240093500D01*
X439103800Y-233603800D02*
X440880500Y-233603800D01*
X440893200Y-233616500D02*
X472122500Y-233616500D01*
X478599500Y-240093500D02*
X479809500Y-238883500D01*
X437033700Y-231533700D02*
X439103800Y-233603800D01*
X462333500Y-217833500D02*
X465581600Y-221081600D01*
X439000000Y-234600000D02*
X438473700Y-234073700D01*
X460772200Y-217833500D02*
X462333500Y-217833500D01*
X479860300Y-217939700D02*
X479860300Y-217871600D01*
X458400000Y-234600000D02*
X439000000Y-234600000D01*
X478650300Y-219149700D02*
X479860300Y-217939700D01*
X478650300Y-221081600D02*
X478650300Y-219149700D01*
X438473700Y-234073700D02*
X433793900Y-234073700D01*
X478612200Y-221043500D02*
X478650300Y-221081600D01*
X465581600Y-221081600D02*
X478650300Y-221081600D01*
X446862200Y-256540000D02*
X446862200Y-256590800D01*
X439200000Y-230800000D02*
X434853700Y-226453700D01*
X454977500Y-230800000D02*
X462900000Y-230800000D01*
X454977500Y-230800000D02*
X439200000Y-230800000D01*
X449602200Y-253800000D02*
X446862200Y-256540000D01*
X482558700Y-216100000D02*
X485000300Y-218541600D01*
X466800000Y-216100000D02*
X482558700Y-216100000D01*
X434853700Y-226453700D02*
X433793900Y-226453700D01*
X446862200Y-218503500D02*
X454203500Y-218503500D01*
X465800000Y-215100000D02*
X466800000Y-216100000D01*
X450265700Y-215100000D02*
X465800000Y-215100000D01*
X454203500Y-218503500D02*
X455100000Y-219400000D01*
X446862200Y-218503500D02*
X450265700Y-215100000D01*
X462500000Y-253800000D02*
X449602200Y-253800000D01*
X446849500Y-256603500D02*
X446862200Y-256590800D01*
X459562200Y-238080800D02*
X460772200Y-236870800D01*
X441709500Y-238790500D02*
X445190500Y-238790500D01*
X439432700Y-232632700D02*
X435793700Y-228993700D01*
X440499500Y-240000500D02*
X441709500Y-238790500D01*
X445190500Y-238790500D02*
X446480800Y-240080800D01*
X435793700Y-228993700D02*
X433793900Y-228993700D01*
X440499500Y-240106200D02*
X440499500Y-240000500D01*
X441709500Y-238790500D02*
X441709500Y-236896200D01*
X439432700Y-232700000D02*
X439432700Y-232632700D01*
X446480800Y-240080800D02*
X459562200Y-240080800D01*
X459562200Y-240080800D02*
X459562200Y-238080800D01*
X459536800Y-202031600D02*
X459549500Y-202018900D01*
X437486300Y-236613700D02*
X438600000Y-235500000D01*
X441684100Y-198821600D02*
X443321600Y-198821600D01*
X438600000Y-235500000D02*
X452450200Y-235500000D01*
X460759500Y-200808900D02*
X460759500Y-198808900D01*
X440474100Y-200031600D02*
X441684100Y-198821600D01*
X440474100Y-202031600D02*
X440474100Y-200031600D01*
X446531600Y-202031600D02*
X459536800Y-202031600D01*
X443321600Y-198821600D02*
X446531600Y-202031600D01*
X433793900Y-236613700D02*
X437486300Y-236613700D01*
X459549500Y-202018900D02*
X460759500Y-200808900D01*
X508600000Y-211000000D02*
X508600000Y-202586700D01*
X504037600Y-245262400D02*
X508600000Y-240700000D01*
X504050300Y-199517000D02*
X504075700Y-199517000D01*
X504698000Y-246405400D02*
X504037600Y-247065800D01*
X504647200Y-200113900D02*
X504050300Y-199517000D01*
X508600000Y-202586700D02*
X505910300Y-199897000D01*
X508600000Y-240700000D02*
X508600000Y-211000000D01*
X508386300Y-211213700D02*
X508600000Y-211000000D01*
X504037600Y-247065800D02*
X504037600Y-245262400D01*
X433793900Y-211213700D02*
X508386300Y-211213700D01*
X442679300Y-248800000D02*
X439877200Y-245997900D01*
X437438800Y-241438800D02*
X435153700Y-239153700D01*
X471900000Y-247000000D02*
X470100000Y-248800000D01*
X439877200Y-245977200D02*
X437438800Y-243538800D01*
X440512200Y-257130800D02*
X441722200Y-255920800D01*
X478663000Y-202057000D02*
X478663000Y-200057000D01*
X478663000Y-200057000D02*
X479873000Y-198847000D01*
X470100000Y-248800000D02*
X442679300Y-248800000D01*
X439877200Y-245997900D02*
X439877200Y-245977200D01*
X435153700Y-239153700D02*
X433793900Y-239153700D01*
X437438800Y-243538800D02*
X437438800Y-241438800D01*
X440512200Y-259130800D02*
X440512200Y-257130800D01*
X468200000Y-214600000D02*
X440100000Y-214600000D01*
X434260200Y-219300000D02*
X433793900Y-218833700D01*
X440100000Y-214600000D02*
X435400000Y-219300000D01*
X435400000Y-219300000D02*
X434260200Y-219300000D01*
D17*
X430949100Y-147269200D02*
X430961800Y-275932900D01*
X430949100Y-147269200D02*
G75*
G02*
X436791100Y-141427200I5842000J0D01*
G01*
X436803800Y-281774900D02*
G75*
G02*
X430961800Y-275932900I0J5842000D01*
G01*
X439888000Y-147358100D02*
G75*
G02*
X434888000Y-147358100I-2500000J0D01*
G01*
X434888000Y-147358100D02*
G75*
G02*
X439888000Y-147358100I2500000J0D01*
G01*
X439888000Y-277266400D02*
G75*
G02*
X434888000Y-277266400I-2500000J0D01*
G01*
X434888000Y-277266400D02*
G75*
G02*
X439888000Y-277266400I2500000J0D01*
G01*
X456385300Y-147269200D02*
G75*
G02*
X451385300Y-147269200I-2500000J0D01*
G01*
X451385300Y-147269200D02*
G75*
G02*
X456385300Y-147269200I2500000J0D01*
G01*
X456385300Y-277266400D02*
G75*
G02*
X451385300Y-277266400I-2500000J0D01*
G01*
X451385300Y-277266400D02*
G75*
G02*
X456385300Y-277266400I2500000J0D01*
G01*
X496466500Y-147269200D02*
G75*
G02*
X491466500Y-147269200I-2500000J0D01*
G01*
X491466500Y-147269200D02*
G75*
G02*
X496466500Y-147269200I2500000J0D01*
G01*
X496517300Y-277253700D02*
G75*
G02*
X491517300Y-277253700I-2500000J0D01*
G01*
X491517300Y-277253700D02*
G75*
G02*
X496517300Y-277253700I2500000J0D01*
G01*
X506524900Y-147269200D02*
G75*
G02*
X501524900Y-147269200I-2500000J0D01*
G01*
X501524900Y-147269200D02*
G75*
G02*
X506524900Y-147269200I2500000J0D01*
G01*
X508019994Y-277279100D02*
G75*
G02*
X500029806Y-277279100I-3995094J0D01*
G01*
X500029806Y-277279100D02*
G75*
G02*
X508019994Y-277279100I3995094J0D01*
G01*
X508177800Y-141427200D02*
X436791100Y-141427200D01*
X508177800Y-141427200D02*
G75*
G02*
X514019800Y-147269200I0J-5842000D01*
G01*
X508177800Y-281774900D02*
X436803800Y-281774900D01*
X514019800Y-147853400D02*
X514019800Y-147269200D01*
X514019800Y-275932900D02*
G75*
G02*
X508177800Y-281774900I-5842000J0D01*
G01*
X514019800Y-275932900D02*
X514019800Y-147853400D01*
M02*
