G04 #@! TF.GenerationSoftware,KiCad,Pcbnew,10.0.6*
G04 #@! TF.CreationDate,2026-09-23T13:55:40-04:00*
G04 #@! TF.ProjectId,v364mx-numpad,76333634-6d78-42d6-9e75-6d7061642e6b,V1-R2*
G04 #@! TF.SameCoordinates,Original*
G04 #@! TF.FileFunction,Legend,Bot*
G04 #@! TF.FilePolarity,Positive*
%FSLAX46Y46*%
G04 Gerber Fmt 4.6, Leading zero omitted, Abs format (unit mm)*
G04 Created by KiCad (PCBNEW 10.0.6) date 2026-09-23 13:55:40*
%MOMM*%
%LPD*%
G01*
G04 APERTURE LIST*
%ADD10C,0.300000*%
%ADD11C,0.150000*%
%ADD12C,0.120000*%
G04 #@! TA.AperFunction,Profile*
%ADD13C,0.050000*%
G04 #@! TD*
G04 APERTURE END LIST*
D10*
X437103082Y-209287021D02*
X437178320Y-209362260D01*
X437178320Y-209362260D02*
X437404034Y-209437498D01*
X437404034Y-209437498D02*
X437554510Y-209437498D01*
X437554510Y-209437498D02*
X437780225Y-209362260D01*
X437780225Y-209362260D02*
X437930701Y-209211783D01*
X437930701Y-209211783D02*
X438005939Y-209061307D01*
X438005939Y-209061307D02*
X438081177Y-208760355D01*
X438081177Y-208760355D02*
X438081177Y-208534640D01*
X438081177Y-208534640D02*
X438005939Y-208233688D01*
X438005939Y-208233688D02*
X437930701Y-208083212D01*
X437930701Y-208083212D02*
X437780225Y-207932736D01*
X437780225Y-207932736D02*
X437554510Y-207857498D01*
X437554510Y-207857498D02*
X437404034Y-207857498D01*
X437404034Y-207857498D02*
X437178320Y-207932736D01*
X437178320Y-207932736D02*
X437103082Y-208007974D01*
X436124987Y-207857498D02*
X435974510Y-207857498D01*
X435974510Y-207857498D02*
X435824034Y-207932736D01*
X435824034Y-207932736D02*
X435748796Y-208007974D01*
X435748796Y-208007974D02*
X435673558Y-208158450D01*
X435673558Y-208158450D02*
X435598320Y-208459402D01*
X435598320Y-208459402D02*
X435598320Y-208835593D01*
X435598320Y-208835593D02*
X435673558Y-209136545D01*
X435673558Y-209136545D02*
X435748796Y-209287021D01*
X435748796Y-209287021D02*
X435824034Y-209362260D01*
X435824034Y-209362260D02*
X435974510Y-209437498D01*
X435974510Y-209437498D02*
X436124987Y-209437498D01*
X436124987Y-209437498D02*
X436275463Y-209362260D01*
X436275463Y-209362260D02*
X436350701Y-209287021D01*
X436350701Y-209287021D02*
X436425939Y-209136545D01*
X436425939Y-209136545D02*
X436501177Y-208835593D01*
X436501177Y-208835593D02*
X436501177Y-208459402D01*
X436501177Y-208459402D02*
X436425939Y-208158450D01*
X436425939Y-208158450D02*
X436350701Y-208007974D01*
X436350701Y-208007974D02*
X436275463Y-207932736D01*
X436275463Y-207932736D02*
X436124987Y-207857498D01*
X437103082Y-211830733D02*
X437178320Y-211905972D01*
X437178320Y-211905972D02*
X437404034Y-211981210D01*
X437404034Y-211981210D02*
X437554510Y-211981210D01*
X437554510Y-211981210D02*
X437780225Y-211905972D01*
X437780225Y-211905972D02*
X437930701Y-211755495D01*
X437930701Y-211755495D02*
X438005939Y-211605019D01*
X438005939Y-211605019D02*
X438081177Y-211304067D01*
X438081177Y-211304067D02*
X438081177Y-211078352D01*
X438081177Y-211078352D02*
X438005939Y-210777400D01*
X438005939Y-210777400D02*
X437930701Y-210626924D01*
X437930701Y-210626924D02*
X437780225Y-210476448D01*
X437780225Y-210476448D02*
X437554510Y-210401210D01*
X437554510Y-210401210D02*
X437404034Y-210401210D01*
X437404034Y-210401210D02*
X437178320Y-210476448D01*
X437178320Y-210476448D02*
X437103082Y-210551686D01*
X435598320Y-211981210D02*
X436501177Y-211981210D01*
X436049749Y-211981210D02*
X436049749Y-210401210D01*
X436049749Y-210401210D02*
X436200225Y-210626924D01*
X436200225Y-210626924D02*
X436350701Y-210777400D01*
X436350701Y-210777400D02*
X436501177Y-210852638D01*
X437103082Y-214374445D02*
X437178320Y-214449684D01*
X437178320Y-214449684D02*
X437404034Y-214524922D01*
X437404034Y-214524922D02*
X437554510Y-214524922D01*
X437554510Y-214524922D02*
X437780225Y-214449684D01*
X437780225Y-214449684D02*
X437930701Y-214299207D01*
X437930701Y-214299207D02*
X438005939Y-214148731D01*
X438005939Y-214148731D02*
X438081177Y-213847779D01*
X438081177Y-213847779D02*
X438081177Y-213622064D01*
X438081177Y-213622064D02*
X438005939Y-213321112D01*
X438005939Y-213321112D02*
X437930701Y-213170636D01*
X437930701Y-213170636D02*
X437780225Y-213020160D01*
X437780225Y-213020160D02*
X437554510Y-212944922D01*
X437554510Y-212944922D02*
X437404034Y-212944922D01*
X437404034Y-212944922D02*
X437178320Y-213020160D01*
X437178320Y-213020160D02*
X437103082Y-213095398D01*
X436501177Y-213095398D02*
X436425939Y-213020160D01*
X436425939Y-213020160D02*
X436275463Y-212944922D01*
X436275463Y-212944922D02*
X435899272Y-212944922D01*
X435899272Y-212944922D02*
X435748796Y-213020160D01*
X435748796Y-213020160D02*
X435673558Y-213095398D01*
X435673558Y-213095398D02*
X435598320Y-213245874D01*
X435598320Y-213245874D02*
X435598320Y-213396350D01*
X435598320Y-213396350D02*
X435673558Y-213622064D01*
X435673558Y-213622064D02*
X436576415Y-214524922D01*
X436576415Y-214524922D02*
X435598320Y-214524922D01*
X437103082Y-216918157D02*
X437178320Y-216993396D01*
X437178320Y-216993396D02*
X437404034Y-217068634D01*
X437404034Y-217068634D02*
X437554510Y-217068634D01*
X437554510Y-217068634D02*
X437780225Y-216993396D01*
X437780225Y-216993396D02*
X437930701Y-216842919D01*
X437930701Y-216842919D02*
X438005939Y-216692443D01*
X438005939Y-216692443D02*
X438081177Y-216391491D01*
X438081177Y-216391491D02*
X438081177Y-216165776D01*
X438081177Y-216165776D02*
X438005939Y-215864824D01*
X438005939Y-215864824D02*
X437930701Y-215714348D01*
X437930701Y-215714348D02*
X437780225Y-215563872D01*
X437780225Y-215563872D02*
X437554510Y-215488634D01*
X437554510Y-215488634D02*
X437404034Y-215488634D01*
X437404034Y-215488634D02*
X437178320Y-215563872D01*
X437178320Y-215563872D02*
X437103082Y-215639110D01*
X436576415Y-215488634D02*
X435598320Y-215488634D01*
X435598320Y-215488634D02*
X436124987Y-216090538D01*
X436124987Y-216090538D02*
X435899272Y-216090538D01*
X435899272Y-216090538D02*
X435748796Y-216165776D01*
X435748796Y-216165776D02*
X435673558Y-216241015D01*
X435673558Y-216241015D02*
X435598320Y-216391491D01*
X435598320Y-216391491D02*
X435598320Y-216767681D01*
X435598320Y-216767681D02*
X435673558Y-216918157D01*
X435673558Y-216918157D02*
X435748796Y-216993396D01*
X435748796Y-216993396D02*
X435899272Y-217068634D01*
X435899272Y-217068634D02*
X436350701Y-217068634D01*
X436350701Y-217068634D02*
X436501177Y-216993396D01*
X436501177Y-216993396D02*
X436576415Y-216918157D01*
X437103082Y-219461869D02*
X437178320Y-219537108D01*
X437178320Y-219537108D02*
X437404034Y-219612346D01*
X437404034Y-219612346D02*
X437554510Y-219612346D01*
X437554510Y-219612346D02*
X437780225Y-219537108D01*
X437780225Y-219537108D02*
X437930701Y-219386631D01*
X437930701Y-219386631D02*
X438005939Y-219236155D01*
X438005939Y-219236155D02*
X438081177Y-218935203D01*
X438081177Y-218935203D02*
X438081177Y-218709488D01*
X438081177Y-218709488D02*
X438005939Y-218408536D01*
X438005939Y-218408536D02*
X437930701Y-218258060D01*
X437930701Y-218258060D02*
X437780225Y-218107584D01*
X437780225Y-218107584D02*
X437554510Y-218032346D01*
X437554510Y-218032346D02*
X437404034Y-218032346D01*
X437404034Y-218032346D02*
X437178320Y-218107584D01*
X437178320Y-218107584D02*
X437103082Y-218182822D01*
X435748796Y-218559012D02*
X435748796Y-219612346D01*
X436124987Y-217957108D02*
X436501177Y-219085679D01*
X436501177Y-219085679D02*
X435523082Y-219085679D01*
X437103082Y-222005581D02*
X437178320Y-222080820D01*
X437178320Y-222080820D02*
X437404034Y-222156058D01*
X437404034Y-222156058D02*
X437554510Y-222156058D01*
X437554510Y-222156058D02*
X437780225Y-222080820D01*
X437780225Y-222080820D02*
X437930701Y-221930343D01*
X437930701Y-221930343D02*
X438005939Y-221779867D01*
X438005939Y-221779867D02*
X438081177Y-221478915D01*
X438081177Y-221478915D02*
X438081177Y-221253200D01*
X438081177Y-221253200D02*
X438005939Y-220952248D01*
X438005939Y-220952248D02*
X437930701Y-220801772D01*
X437930701Y-220801772D02*
X437780225Y-220651296D01*
X437780225Y-220651296D02*
X437554510Y-220576058D01*
X437554510Y-220576058D02*
X437404034Y-220576058D01*
X437404034Y-220576058D02*
X437178320Y-220651296D01*
X437178320Y-220651296D02*
X437103082Y-220726534D01*
X435673558Y-220576058D02*
X436425939Y-220576058D01*
X436425939Y-220576058D02*
X436501177Y-221328439D01*
X436501177Y-221328439D02*
X436425939Y-221253200D01*
X436425939Y-221253200D02*
X436275463Y-221177962D01*
X436275463Y-221177962D02*
X435899272Y-221177962D01*
X435899272Y-221177962D02*
X435748796Y-221253200D01*
X435748796Y-221253200D02*
X435673558Y-221328439D01*
X435673558Y-221328439D02*
X435598320Y-221478915D01*
X435598320Y-221478915D02*
X435598320Y-221855105D01*
X435598320Y-221855105D02*
X435673558Y-222005581D01*
X435673558Y-222005581D02*
X435748796Y-222080820D01*
X435748796Y-222080820D02*
X435899272Y-222156058D01*
X435899272Y-222156058D02*
X436275463Y-222156058D01*
X436275463Y-222156058D02*
X436425939Y-222080820D01*
X436425939Y-222080820D02*
X436501177Y-222005581D01*
X437103082Y-224549293D02*
X437178320Y-224624532D01*
X437178320Y-224624532D02*
X437404034Y-224699770D01*
X437404034Y-224699770D02*
X437554510Y-224699770D01*
X437554510Y-224699770D02*
X437780225Y-224624532D01*
X437780225Y-224624532D02*
X437930701Y-224474055D01*
X437930701Y-224474055D02*
X438005939Y-224323579D01*
X438005939Y-224323579D02*
X438081177Y-224022627D01*
X438081177Y-224022627D02*
X438081177Y-223796912D01*
X438081177Y-223796912D02*
X438005939Y-223495960D01*
X438005939Y-223495960D02*
X437930701Y-223345484D01*
X437930701Y-223345484D02*
X437780225Y-223195008D01*
X437780225Y-223195008D02*
X437554510Y-223119770D01*
X437554510Y-223119770D02*
X437404034Y-223119770D01*
X437404034Y-223119770D02*
X437178320Y-223195008D01*
X437178320Y-223195008D02*
X437103082Y-223270246D01*
X435748796Y-223119770D02*
X436049749Y-223119770D01*
X436049749Y-223119770D02*
X436200225Y-223195008D01*
X436200225Y-223195008D02*
X436275463Y-223270246D01*
X436275463Y-223270246D02*
X436425939Y-223495960D01*
X436425939Y-223495960D02*
X436501177Y-223796912D01*
X436501177Y-223796912D02*
X436501177Y-224398817D01*
X436501177Y-224398817D02*
X436425939Y-224549293D01*
X436425939Y-224549293D02*
X436350701Y-224624532D01*
X436350701Y-224624532D02*
X436200225Y-224699770D01*
X436200225Y-224699770D02*
X435899272Y-224699770D01*
X435899272Y-224699770D02*
X435748796Y-224624532D01*
X435748796Y-224624532D02*
X435673558Y-224549293D01*
X435673558Y-224549293D02*
X435598320Y-224398817D01*
X435598320Y-224398817D02*
X435598320Y-224022627D01*
X435598320Y-224022627D02*
X435673558Y-223872151D01*
X435673558Y-223872151D02*
X435748796Y-223796912D01*
X435748796Y-223796912D02*
X435899272Y-223721674D01*
X435899272Y-223721674D02*
X436200225Y-223721674D01*
X436200225Y-223721674D02*
X436350701Y-223796912D01*
X436350701Y-223796912D02*
X436425939Y-223872151D01*
X436425939Y-223872151D02*
X436501177Y-224022627D01*
X437103082Y-227093005D02*
X437178320Y-227168244D01*
X437178320Y-227168244D02*
X437404034Y-227243482D01*
X437404034Y-227243482D02*
X437554510Y-227243482D01*
X437554510Y-227243482D02*
X437780225Y-227168244D01*
X437780225Y-227168244D02*
X437930701Y-227017767D01*
X437930701Y-227017767D02*
X438005939Y-226867291D01*
X438005939Y-226867291D02*
X438081177Y-226566339D01*
X438081177Y-226566339D02*
X438081177Y-226340624D01*
X438081177Y-226340624D02*
X438005939Y-226039672D01*
X438005939Y-226039672D02*
X437930701Y-225889196D01*
X437930701Y-225889196D02*
X437780225Y-225738720D01*
X437780225Y-225738720D02*
X437554510Y-225663482D01*
X437554510Y-225663482D02*
X437404034Y-225663482D01*
X437404034Y-225663482D02*
X437178320Y-225738720D01*
X437178320Y-225738720D02*
X437103082Y-225813958D01*
X436576415Y-225663482D02*
X435523082Y-225663482D01*
X435523082Y-225663482D02*
X436200225Y-227243482D01*
X437103082Y-229787194D02*
X437629749Y-229034813D01*
X438005939Y-229787194D02*
X438005939Y-228207194D01*
X438005939Y-228207194D02*
X437404034Y-228207194D01*
X437404034Y-228207194D02*
X437253558Y-228282432D01*
X437253558Y-228282432D02*
X437178320Y-228357670D01*
X437178320Y-228357670D02*
X437103082Y-228508146D01*
X437103082Y-228508146D02*
X437103082Y-228733860D01*
X437103082Y-228733860D02*
X437178320Y-228884336D01*
X437178320Y-228884336D02*
X437253558Y-228959575D01*
X437253558Y-228959575D02*
X437404034Y-229034813D01*
X437404034Y-229034813D02*
X438005939Y-229034813D01*
X436124987Y-228207194D02*
X435974510Y-228207194D01*
X435974510Y-228207194D02*
X435824034Y-228282432D01*
X435824034Y-228282432D02*
X435748796Y-228357670D01*
X435748796Y-228357670D02*
X435673558Y-228508146D01*
X435673558Y-228508146D02*
X435598320Y-228809098D01*
X435598320Y-228809098D02*
X435598320Y-229185289D01*
X435598320Y-229185289D02*
X435673558Y-229486241D01*
X435673558Y-229486241D02*
X435748796Y-229636717D01*
X435748796Y-229636717D02*
X435824034Y-229711956D01*
X435824034Y-229711956D02*
X435974510Y-229787194D01*
X435974510Y-229787194D02*
X436124987Y-229787194D01*
X436124987Y-229787194D02*
X436275463Y-229711956D01*
X436275463Y-229711956D02*
X436350701Y-229636717D01*
X436350701Y-229636717D02*
X436425939Y-229486241D01*
X436425939Y-229486241D02*
X436501177Y-229185289D01*
X436501177Y-229185289D02*
X436501177Y-228809098D01*
X436501177Y-228809098D02*
X436425939Y-228508146D01*
X436425939Y-228508146D02*
X436350701Y-228357670D01*
X436350701Y-228357670D02*
X436275463Y-228282432D01*
X436275463Y-228282432D02*
X436124987Y-228207194D01*
X437103082Y-232330906D02*
X437629749Y-231578525D01*
X438005939Y-232330906D02*
X438005939Y-230750906D01*
X438005939Y-230750906D02*
X437404034Y-230750906D01*
X437404034Y-230750906D02*
X437253558Y-230826144D01*
X437253558Y-230826144D02*
X437178320Y-230901382D01*
X437178320Y-230901382D02*
X437103082Y-231051858D01*
X437103082Y-231051858D02*
X437103082Y-231277572D01*
X437103082Y-231277572D02*
X437178320Y-231428048D01*
X437178320Y-231428048D02*
X437253558Y-231503287D01*
X437253558Y-231503287D02*
X437404034Y-231578525D01*
X437404034Y-231578525D02*
X438005939Y-231578525D01*
X435598320Y-232330906D02*
X436501177Y-232330906D01*
X436049749Y-232330906D02*
X436049749Y-230750906D01*
X436049749Y-230750906D02*
X436200225Y-230976620D01*
X436200225Y-230976620D02*
X436350701Y-231127096D01*
X436350701Y-231127096D02*
X436501177Y-231202334D01*
X437103082Y-234874618D02*
X437629749Y-234122237D01*
X438005939Y-234874618D02*
X438005939Y-233294618D01*
X438005939Y-233294618D02*
X437404034Y-233294618D01*
X437404034Y-233294618D02*
X437253558Y-233369856D01*
X437253558Y-233369856D02*
X437178320Y-233445094D01*
X437178320Y-233445094D02*
X437103082Y-233595570D01*
X437103082Y-233595570D02*
X437103082Y-233821284D01*
X437103082Y-233821284D02*
X437178320Y-233971760D01*
X437178320Y-233971760D02*
X437253558Y-234046999D01*
X437253558Y-234046999D02*
X437404034Y-234122237D01*
X437404034Y-234122237D02*
X438005939Y-234122237D01*
X436501177Y-233445094D02*
X436425939Y-233369856D01*
X436425939Y-233369856D02*
X436275463Y-233294618D01*
X436275463Y-233294618D02*
X435899272Y-233294618D01*
X435899272Y-233294618D02*
X435748796Y-233369856D01*
X435748796Y-233369856D02*
X435673558Y-233445094D01*
X435673558Y-233445094D02*
X435598320Y-233595570D01*
X435598320Y-233595570D02*
X435598320Y-233746046D01*
X435598320Y-233746046D02*
X435673558Y-233971760D01*
X435673558Y-233971760D02*
X436576415Y-234874618D01*
X436576415Y-234874618D02*
X435598320Y-234874618D01*
X437103082Y-237418330D02*
X437629749Y-236665949D01*
X438005939Y-237418330D02*
X438005939Y-235838330D01*
X438005939Y-235838330D02*
X437404034Y-235838330D01*
X437404034Y-235838330D02*
X437253558Y-235913568D01*
X437253558Y-235913568D02*
X437178320Y-235988806D01*
X437178320Y-235988806D02*
X437103082Y-236139282D01*
X437103082Y-236139282D02*
X437103082Y-236364996D01*
X437103082Y-236364996D02*
X437178320Y-236515472D01*
X437178320Y-236515472D02*
X437253558Y-236590711D01*
X437253558Y-236590711D02*
X437404034Y-236665949D01*
X437404034Y-236665949D02*
X438005939Y-236665949D01*
X436576415Y-235838330D02*
X435598320Y-235838330D01*
X435598320Y-235838330D02*
X436124987Y-236440234D01*
X436124987Y-236440234D02*
X435899272Y-236440234D01*
X435899272Y-236440234D02*
X435748796Y-236515472D01*
X435748796Y-236515472D02*
X435673558Y-236590711D01*
X435673558Y-236590711D02*
X435598320Y-236741187D01*
X435598320Y-236741187D02*
X435598320Y-237117377D01*
X435598320Y-237117377D02*
X435673558Y-237267853D01*
X435673558Y-237267853D02*
X435748796Y-237343092D01*
X435748796Y-237343092D02*
X435899272Y-237418330D01*
X435899272Y-237418330D02*
X436350701Y-237418330D01*
X436350701Y-237418330D02*
X436501177Y-237343092D01*
X436501177Y-237343092D02*
X436576415Y-237267853D01*
X437103082Y-239962042D02*
X437629749Y-239209661D01*
X438005939Y-239962042D02*
X438005939Y-238382042D01*
X438005939Y-238382042D02*
X437404034Y-238382042D01*
X437404034Y-238382042D02*
X437253558Y-238457280D01*
X437253558Y-238457280D02*
X437178320Y-238532518D01*
X437178320Y-238532518D02*
X437103082Y-238682994D01*
X437103082Y-238682994D02*
X437103082Y-238908708D01*
X437103082Y-238908708D02*
X437178320Y-239059184D01*
X437178320Y-239059184D02*
X437253558Y-239134423D01*
X437253558Y-239134423D02*
X437404034Y-239209661D01*
X437404034Y-239209661D02*
X438005939Y-239209661D01*
X435748796Y-238908708D02*
X435748796Y-239962042D01*
X436124987Y-238306804D02*
X436501177Y-239435375D01*
X436501177Y-239435375D02*
X435523082Y-239435375D01*
X437103082Y-242505754D02*
X437629749Y-241753373D01*
X438005939Y-242505754D02*
X438005939Y-240925754D01*
X438005939Y-240925754D02*
X437404034Y-240925754D01*
X437404034Y-240925754D02*
X437253558Y-241000992D01*
X437253558Y-241000992D02*
X437178320Y-241076230D01*
X437178320Y-241076230D02*
X437103082Y-241226706D01*
X437103082Y-241226706D02*
X437103082Y-241452420D01*
X437103082Y-241452420D02*
X437178320Y-241602896D01*
X437178320Y-241602896D02*
X437253558Y-241678135D01*
X437253558Y-241678135D02*
X437404034Y-241753373D01*
X437404034Y-241753373D02*
X438005939Y-241753373D01*
X435673558Y-240925754D02*
X436425939Y-240925754D01*
X436425939Y-240925754D02*
X436501177Y-241678135D01*
X436501177Y-241678135D02*
X436425939Y-241602896D01*
X436425939Y-241602896D02*
X436275463Y-241527658D01*
X436275463Y-241527658D02*
X435899272Y-241527658D01*
X435899272Y-241527658D02*
X435748796Y-241602896D01*
X435748796Y-241602896D02*
X435673558Y-241678135D01*
X435673558Y-241678135D02*
X435598320Y-241828611D01*
X435598320Y-241828611D02*
X435598320Y-242204801D01*
X435598320Y-242204801D02*
X435673558Y-242355277D01*
X435673558Y-242355277D02*
X435748796Y-242430516D01*
X435748796Y-242430516D02*
X435899272Y-242505754D01*
X435899272Y-242505754D02*
X436275463Y-242505754D01*
X436275463Y-242505754D02*
X436425939Y-242430516D01*
X436425939Y-242430516D02*
X436501177Y-242355277D01*
X437103082Y-245049466D02*
X437629749Y-244297085D01*
X438005939Y-245049466D02*
X438005939Y-243469466D01*
X438005939Y-243469466D02*
X437404034Y-243469466D01*
X437404034Y-243469466D02*
X437253558Y-243544704D01*
X437253558Y-243544704D02*
X437178320Y-243619942D01*
X437178320Y-243619942D02*
X437103082Y-243770418D01*
X437103082Y-243770418D02*
X437103082Y-243996132D01*
X437103082Y-243996132D02*
X437178320Y-244146608D01*
X437178320Y-244146608D02*
X437253558Y-244221847D01*
X437253558Y-244221847D02*
X437404034Y-244297085D01*
X437404034Y-244297085D02*
X438005939Y-244297085D01*
X435748796Y-243469466D02*
X436049749Y-243469466D01*
X436049749Y-243469466D02*
X436200225Y-243544704D01*
X436200225Y-243544704D02*
X436275463Y-243619942D01*
X436275463Y-243619942D02*
X436425939Y-243845656D01*
X436425939Y-243845656D02*
X436501177Y-244146608D01*
X436501177Y-244146608D02*
X436501177Y-244748513D01*
X436501177Y-244748513D02*
X436425939Y-244898989D01*
X436425939Y-244898989D02*
X436350701Y-244974228D01*
X436350701Y-244974228D02*
X436200225Y-245049466D01*
X436200225Y-245049466D02*
X435899272Y-245049466D01*
X435899272Y-245049466D02*
X435748796Y-244974228D01*
X435748796Y-244974228D02*
X435673558Y-244898989D01*
X435673558Y-244898989D02*
X435598320Y-244748513D01*
X435598320Y-244748513D02*
X435598320Y-244372323D01*
X435598320Y-244372323D02*
X435673558Y-244221847D01*
X435673558Y-244221847D02*
X435748796Y-244146608D01*
X435748796Y-244146608D02*
X435899272Y-244071370D01*
X435899272Y-244071370D02*
X436200225Y-244071370D01*
X436200225Y-244071370D02*
X436350701Y-244146608D01*
X436350701Y-244146608D02*
X436425939Y-244221847D01*
X436425939Y-244221847D02*
X436501177Y-244372323D01*
X437103082Y-247593178D02*
X437629749Y-246840797D01*
X438005939Y-247593178D02*
X438005939Y-246013178D01*
X438005939Y-246013178D02*
X437404034Y-246013178D01*
X437404034Y-246013178D02*
X437253558Y-246088416D01*
X437253558Y-246088416D02*
X437178320Y-246163654D01*
X437178320Y-246163654D02*
X437103082Y-246314130D01*
X437103082Y-246314130D02*
X437103082Y-246539844D01*
X437103082Y-246539844D02*
X437178320Y-246690320D01*
X437178320Y-246690320D02*
X437253558Y-246765559D01*
X437253558Y-246765559D02*
X437404034Y-246840797D01*
X437404034Y-246840797D02*
X438005939Y-246840797D01*
X436576415Y-246013178D02*
X435523082Y-246013178D01*
X435523082Y-246013178D02*
X436200225Y-247593178D01*
D11*
X434127233Y-205798519D02*
X434127233Y-206512804D01*
X434127233Y-206512804D02*
X434174852Y-206655661D01*
X434174852Y-206655661D02*
X434270090Y-206750900D01*
X434270090Y-206750900D02*
X434412947Y-206798519D01*
X434412947Y-206798519D02*
X434508185Y-206798519D01*
X433603423Y-206798519D02*
X433412947Y-206798519D01*
X433412947Y-206798519D02*
X433317709Y-206750900D01*
X433317709Y-206750900D02*
X433270090Y-206703280D01*
X433270090Y-206703280D02*
X433174852Y-206560423D01*
X433174852Y-206560423D02*
X433127233Y-206369947D01*
X433127233Y-206369947D02*
X433127233Y-205988995D01*
X433127233Y-205988995D02*
X433174852Y-205893757D01*
X433174852Y-205893757D02*
X433222471Y-205846138D01*
X433222471Y-205846138D02*
X433317709Y-205798519D01*
X433317709Y-205798519D02*
X433508185Y-205798519D01*
X433508185Y-205798519D02*
X433603423Y-205846138D01*
X433603423Y-205846138D02*
X433651042Y-205893757D01*
X433651042Y-205893757D02*
X433698661Y-205988995D01*
X433698661Y-205988995D02*
X433698661Y-206227090D01*
X433698661Y-206227090D02*
X433651042Y-206322328D01*
X433651042Y-206322328D02*
X433603423Y-206369947D01*
X433603423Y-206369947D02*
X433508185Y-206417566D01*
X433508185Y-206417566D02*
X433317709Y-206417566D01*
X433317709Y-206417566D02*
X433222471Y-206369947D01*
X433222471Y-206369947D02*
X433174852Y-206322328D01*
X433174852Y-206322328D02*
X433127233Y-206227090D01*
D12*
X432413900Y-209943700D02*
X432413900Y-248153700D01*
X435173900Y-207293700D02*
X433793900Y-207293700D01*
X435173900Y-208673700D02*
X435173900Y-207293700D01*
X435173900Y-209943700D02*
X432413900Y-209943700D01*
X435173900Y-209943700D02*
X435173900Y-248153700D01*
X435173900Y-248153700D02*
X432413900Y-248153700D01*
D13*
X430949100Y-147269200D02*
X430961800Y-275932900D01*
X430949100Y-147269200D02*
G75*
G02*
X436791100Y-141427200I5842000J0D01*
G01*
X436803800Y-281774900D02*
G75*
G02*
X430961800Y-275932900I0J5842000D01*
G01*
X439888000Y-147358100D02*
G75*
G02*
X434888000Y-147358100I-2500000J0D01*
G01*
X434888000Y-147358100D02*
G75*
G02*
X439888000Y-147358100I2500000J0D01*
G01*
X439888000Y-277266400D02*
G75*
G02*
X434888000Y-277266400I-2500000J0D01*
G01*
X434888000Y-277266400D02*
G75*
G02*
X439888000Y-277266400I2500000J0D01*
G01*
X456385300Y-147269200D02*
G75*
G02*
X451385300Y-147269200I-2500000J0D01*
G01*
X451385300Y-147269200D02*
G75*
G02*
X456385300Y-147269200I2500000J0D01*
G01*
X456385300Y-277266400D02*
G75*
G02*
X451385300Y-277266400I-2500000J0D01*
G01*
X451385300Y-277266400D02*
G75*
G02*
X456385300Y-277266400I2500000J0D01*
G01*
X496466500Y-147269200D02*
G75*
G02*
X491466500Y-147269200I-2500000J0D01*
G01*
X491466500Y-147269200D02*
G75*
G02*
X496466500Y-147269200I2500000J0D01*
G01*
X496517300Y-277253700D02*
G75*
G02*
X491517300Y-277253700I-2500000J0D01*
G01*
X491517300Y-277253700D02*
G75*
G02*
X496517300Y-277253700I2500000J0D01*
G01*
X506524900Y-147269200D02*
G75*
G02*
X501524900Y-147269200I-2500000J0D01*
G01*
X501524900Y-147269200D02*
G75*
G02*
X506524900Y-147269200I2500000J0D01*
G01*
X508019994Y-277279100D02*
G75*
G02*
X500029806Y-277279100I-3995094J0D01*
G01*
X500029806Y-277279100D02*
G75*
G02*
X508019994Y-277279100I3995094J0D01*
G01*
X508177800Y-141427200D02*
X436791100Y-141427200D01*
X508177800Y-141427200D02*
G75*
G02*
X514019800Y-147269200I0J-5842000D01*
G01*
X508177800Y-281774900D02*
X436803800Y-281774900D01*
X514019800Y-147853400D02*
X514019800Y-147269200D01*
X514019800Y-275932900D02*
G75*
G02*
X508177800Y-281774900I-5842000J0D01*
G01*
X514019800Y-275932900D02*
X514019800Y-147853400D01*
M02*
