G04 #@! TF.GenerationSoftware,KiCad,Pcbnew,10.0.6*
G04 #@! TF.CreationDate,2026-09-23T14:58:44-04:00*
G04 #@! TF.ProjectId,v364mx-numpad,76333634-6d78-42d6-9e75-6d7061642e6b,rev?*
G04 #@! TF.SameCoordinates,Original*
G04 #@! TF.FileFunction,Copper,L2,Bot*
G04 #@! TF.FilePolarity,Positive*
%FSLAX46Y46*%
G04 Gerber Fmt 4.6, Leading zero omitted, Abs format (unit mm)*
G04 Created by KiCad (PCBNEW 10.0.6) date 2026-09-23 14:58:44*
%MOMM*%
%LPD*%
G01*
G04 APERTURE LIST*
G04 #@! TA.AperFunction,ComponentPad*
%ADD10R,1.700000X1.700000*%
G04 #@! TD*
G04 #@! TA.AperFunction,ComponentPad*
%ADD11C,1.700000*%
G04 #@! TD*
G04 #@! TA.AperFunction,ComponentPad*
%ADD12C,2.200000*%
G04 #@! TD*
G04 #@! TA.AperFunction,ViaPad*
%ADD13C,0.800000*%
G04 #@! TD*
G04 #@! TA.AperFunction,Conductor*
%ADD14C,0.250000*%
G04 #@! TD*
G04 #@! TA.AperFunction,Profile*
%ADD15C,0.050000*%
G04 #@! TD*
G04 APERTURE END LIST*
D10*
X433793900Y-208673700D03*
D11*
X433793900Y-211213700D03*
X433793900Y-213753700D03*
X433793900Y-216293700D03*
X433793900Y-218833700D03*
X433793900Y-221373700D03*
X433793900Y-223913700D03*
X433793900Y-226453700D03*
X433793900Y-228993700D03*
X433793900Y-231533700D03*
X433793900Y-234073700D03*
X433793900Y-236613700D03*
X433793900Y-239153700D03*
X433793900Y-241693700D03*
X433793900Y-244233700D03*
X433793900Y-246773700D03*
D12*
X504037600Y-180403500D03*
X497687600Y-182943500D03*
X446824100Y-180428900D03*
X440474100Y-182968900D03*
X484974900Y-180428900D03*
X478624900Y-182968900D03*
X465848700Y-180428900D03*
X459498700Y-182968900D03*
X484949500Y-237553500D03*
X478599500Y-240093500D03*
X465912200Y-218503500D03*
X459562200Y-221043500D03*
X446862200Y-218503500D03*
X440512200Y-221043500D03*
X485000300Y-218541600D03*
X478650300Y-221081600D03*
X465912200Y-237540800D03*
X459562200Y-240080800D03*
X504050300Y-218541600D03*
X497700300Y-221081600D03*
X446849500Y-237566200D03*
X440499500Y-240106200D03*
X465899500Y-199478900D03*
X459549500Y-202018900D03*
X446824100Y-199491600D03*
X440474100Y-202031600D03*
X504050300Y-199517000D03*
X497700300Y-202057000D03*
X485013000Y-199517000D03*
X478663000Y-202057000D03*
X465912200Y-256628900D03*
X459562200Y-259168900D03*
X484974900Y-256616200D03*
X478624900Y-259156200D03*
X446862200Y-256590800D03*
X440512200Y-259130800D03*
X504037600Y-247065800D03*
X497687600Y-249605800D03*
D13*
X440893200Y-233616500D03*
X452272400Y-216027000D03*
X468071200Y-226783900D03*
X476237300Y-227850700D03*
X457238100Y-235445300D03*
X450291200Y-238328200D03*
X473087700Y-240639600D03*
X439877200Y-245402100D03*
X490105700Y-184277000D03*
X445782700Y-246722900D03*
X492163100Y-194691000D03*
X439432700Y-232181400D03*
X449275200Y-217246200D03*
X449275200Y-209016600D03*
X474408500Y-218528900D03*
X491350300Y-223710500D03*
X457936600Y-218503500D03*
X466013800Y-250621800D03*
X454977500Y-229527100D03*
D14*
X440512200Y-221043500D02*
X440512200Y-222199200D01*
X440893200Y-222580200D02*
X440893200Y-233616500D01*
X440512200Y-222199200D02*
X440893200Y-222580200D01*
X452272400Y-216027000D02*
X452272400Y-184111900D01*
X452272400Y-184111900D02*
X448589400Y-180428900D01*
X448589400Y-180428900D02*
X446824100Y-180428900D01*
X471709750Y-250005850D02*
X471709750Y-230422450D01*
X465912200Y-255803400D02*
X471709750Y-250005850D01*
X465912200Y-256628900D02*
X465912200Y-255803400D01*
X471709750Y-230422450D02*
X468071200Y-226783900D01*
X484974900Y-250126500D02*
X484974900Y-240588800D01*
X484974900Y-240588800D02*
X476237300Y-231851200D01*
X484974900Y-256616200D02*
X484974900Y-250126500D01*
X476237300Y-231851200D02*
X476237300Y-227850700D01*
X459562200Y-221043500D02*
X460108300Y-221589600D01*
X460108300Y-232575100D02*
X457238100Y-235445300D01*
X460108300Y-221589600D02*
X460108300Y-232575100D01*
X450291200Y-238328200D02*
X452450200Y-236169200D01*
X456114150Y-203396850D02*
X457492100Y-202018900D01*
X452450200Y-236169200D02*
X452450200Y-218617800D01*
X454660000Y-216408000D02*
X454660000Y-204851000D01*
X452450200Y-218617800D02*
X454660000Y-216408000D01*
X457492100Y-202018900D02*
X459549500Y-202018900D01*
X454660000Y-204851000D02*
X456114150Y-203396850D01*
X473087700Y-240639600D02*
X473087700Y-217512900D01*
X439877200Y-245402100D02*
X439877200Y-258495800D01*
X478663000Y-211937600D02*
X478663000Y-202057000D01*
X439877200Y-258495800D02*
X440512200Y-259130800D01*
X473087700Y-217512900D02*
X478663000Y-211937600D01*
X490118400Y-256603500D02*
X487895900Y-258826000D01*
X487895900Y-258826000D02*
X478955100Y-258826000D01*
X490118400Y-242989100D02*
X490118400Y-256603500D01*
X459562200Y-259168900D02*
X458228700Y-259168900D01*
X490118400Y-188125100D02*
X490118400Y-242989100D01*
X458228700Y-259168900D02*
X445782700Y-246722900D01*
X490105700Y-184277000D02*
X490118400Y-184289700D01*
X478955100Y-258826000D02*
X478624900Y-259156200D01*
X490118400Y-184289700D02*
X490118400Y-188125100D01*
X497700300Y-221081600D02*
X497700300Y-202057000D01*
X497700300Y-182956200D02*
X497687600Y-182943500D01*
X497700300Y-202057000D02*
X497700300Y-182956200D01*
X440474100Y-182968900D02*
X440347100Y-182968900D01*
X492163100Y-244081300D02*
X497687600Y-249605800D01*
X492163100Y-194691000D02*
X492163100Y-244081300D01*
X439432700Y-232181400D02*
X439585100Y-232333800D01*
X439585100Y-232333800D02*
X439585100Y-239191800D01*
X439585100Y-239191800D02*
X440499500Y-240106200D01*
X449275200Y-219252800D02*
X449275200Y-217246200D01*
X484949500Y-234099100D02*
X474408500Y-223558100D01*
X449275200Y-217246200D02*
X449275200Y-210743800D01*
X449275200Y-209016600D02*
X446824100Y-206565500D01*
X446849500Y-237566200D02*
X446849500Y-221678500D01*
X446824100Y-206565500D02*
X446824100Y-199491600D01*
X449275200Y-210743800D02*
X449275200Y-209016600D01*
X446849500Y-221678500D02*
X449275200Y-219252800D01*
X474408500Y-223558100D02*
X474408500Y-218528900D01*
X484949500Y-237553500D02*
X484949500Y-234099100D01*
X491350300Y-183083200D02*
X491350300Y-223710500D01*
X484974900Y-180428900D02*
X488696000Y-180428900D01*
X488696000Y-180428900D02*
X491350300Y-183083200D01*
X457936600Y-218503500D02*
X457936600Y-218478100D01*
X466521800Y-200101200D02*
X465899500Y-199478900D01*
X466521800Y-209892900D02*
X466521800Y-205905100D01*
X454977500Y-221462600D02*
X457936600Y-218503500D01*
X454977500Y-229527100D02*
X454977500Y-235280200D01*
X466013800Y-237642400D02*
X465912200Y-237540800D01*
X466013800Y-250621800D02*
X466013800Y-237642400D01*
X466521800Y-205905100D02*
X466521800Y-200101200D01*
X457238100Y-237540800D02*
X465912200Y-237540800D01*
X454977500Y-229527100D02*
X454977500Y-221462600D01*
X457936600Y-218478100D02*
X466521800Y-209892900D01*
X454977500Y-235280200D02*
X457238100Y-237540800D01*
D15*
X430949100Y-147269200D02*
X430961800Y-275932900D01*
X430949100Y-147269200D02*
G75*
G02*
X436791100Y-141427200I5842000J0D01*
G01*
X436803800Y-281774900D02*
G75*
G02*
X430961800Y-275932900I0J5842000D01*
G01*
X439888000Y-147358100D02*
G75*
G02*
X434888000Y-147358100I-2500000J0D01*
G01*
X434888000Y-147358100D02*
G75*
G02*
X439888000Y-147358100I2500000J0D01*
G01*
X439888000Y-277266400D02*
G75*
G02*
X434888000Y-277266400I-2500000J0D01*
G01*
X434888000Y-277266400D02*
G75*
G02*
X439888000Y-277266400I2500000J0D01*
G01*
X456385300Y-147269200D02*
G75*
G02*
X451385300Y-147269200I-2500000J0D01*
G01*
X451385300Y-147269200D02*
G75*
G02*
X456385300Y-147269200I2500000J0D01*
G01*
X456385300Y-277266400D02*
G75*
G02*
X451385300Y-277266400I-2500000J0D01*
G01*
X451385300Y-277266400D02*
G75*
G02*
X456385300Y-277266400I2500000J0D01*
G01*
X496466500Y-147269200D02*
G75*
G02*
X491466500Y-147269200I-2500000J0D01*
G01*
X491466500Y-147269200D02*
G75*
G02*
X496466500Y-147269200I2500000J0D01*
G01*
X496517300Y-277253700D02*
G75*
G02*
X491517300Y-277253700I-2500000J0D01*
G01*
X491517300Y-277253700D02*
G75*
G02*
X496517300Y-277253700I2500000J0D01*
G01*
X506524900Y-147269200D02*
G75*
G02*
X501524900Y-147269200I-2500000J0D01*
G01*
X501524900Y-147269200D02*
G75*
G02*
X506524900Y-147269200I2500000J0D01*
G01*
X508019994Y-277279100D02*
G75*
G02*
X500029806Y-277279100I-3995094J0D01*
G01*
X500029806Y-277279100D02*
G75*
G02*
X508019994Y-277279100I3995094J0D01*
G01*
X508177800Y-141427200D02*
X436791100Y-141427200D01*
X508177800Y-141427200D02*
G75*
G02*
X514019800Y-147269200I0J-5842000D01*
G01*
X508177800Y-281774900D02*
X436803800Y-281774900D01*
X514019800Y-147853400D02*
X514019800Y-147269200D01*
X514019800Y-275932900D02*
G75*
G02*
X508177800Y-281774900I-5842000J0D01*
G01*
X514019800Y-275932900D02*
X514019800Y-147853400D01*
M02*
