G04 #@! TF.GenerationSoftware,KiCad,Pcbnew,10.0.6*
G04 #@! TF.CreationDate,2026-09-23T14:58:44-04:00*
G04 #@! TF.ProjectId,v364mx-numpad,76333634-6d78-42d6-9e75-6d7061642e6b,rev?*
G04 #@! TF.SameCoordinates,Original*
G04 #@! TF.FileFunction,Copper,L1,Top*
G04 #@! TF.FilePolarity,Positive*
%FSLAX46Y46*%
G04 Gerber Fmt 4.6, Leading zero omitted, Abs format (unit mm)*
G04 Created by KiCad (PCBNEW 10.0.6) date 2026-09-23 14:58:44*
%MOMM*%
%LPD*%
G01*
G04 APERTURE LIST*
G04 #@! TA.AperFunction,ComponentPad*
%ADD10R,1.700000X1.700000*%
G04 #@! TD*
G04 #@! TA.AperFunction,ComponentPad*
%ADD11C,1.700000*%
G04 #@! TD*
G04 #@! TA.AperFunction,ComponentPad*
%ADD12C,2.200000*%
G04 #@! TD*
G04 #@! TA.AperFunction,ViaPad*
%ADD13C,0.800000*%
G04 #@! TD*
G04 #@! TA.AperFunction,Conductor*
%ADD14C,0.250000*%
G04 #@! TD*
G04 #@! TA.AperFunction,Profile*
%ADD15C,0.050000*%
G04 #@! TD*
G04 APERTURE END LIST*
D10*
X433793900Y-208673700D03*
D11*
X433793900Y-211213700D03*
X433793900Y-213753700D03*
X433793900Y-216293700D03*
X433793900Y-218833700D03*
X433793900Y-221373700D03*
X433793900Y-223913700D03*
X433793900Y-226453700D03*
X433793900Y-228993700D03*
X433793900Y-231533700D03*
X433793900Y-234073700D03*
X433793900Y-236613700D03*
X433793900Y-239153700D03*
X433793900Y-241693700D03*
X433793900Y-244233700D03*
X433793900Y-246773700D03*
D12*
X504037600Y-180403500D03*
X497687600Y-182943500D03*
X446824100Y-180428900D03*
X440474100Y-182968900D03*
X484974900Y-180428900D03*
X478624900Y-182968900D03*
X465848700Y-180428900D03*
X459498700Y-182968900D03*
X484949500Y-237553500D03*
X478599500Y-240093500D03*
X465912200Y-218503500D03*
X459562200Y-221043500D03*
X446862200Y-218503500D03*
X440512200Y-221043500D03*
X485000300Y-218541600D03*
X478650300Y-221081600D03*
X465912200Y-237540800D03*
X459562200Y-240080800D03*
X504050300Y-218541600D03*
X497700300Y-221081600D03*
X446849500Y-237566200D03*
X440499500Y-240106200D03*
X465899500Y-199478900D03*
X459549500Y-202018900D03*
X446824100Y-199491600D03*
X440474100Y-202031600D03*
X504050300Y-199517000D03*
X497700300Y-202057000D03*
X485013000Y-199517000D03*
X478663000Y-202057000D03*
X465912200Y-256628900D03*
X459562200Y-259168900D03*
X484974900Y-256616200D03*
X478624900Y-259156200D03*
X446862200Y-256590800D03*
X440512200Y-259130800D03*
X504037600Y-247065800D03*
X497687600Y-249605800D03*
D13*
X440893200Y-233616500D03*
X452272400Y-216027000D03*
X468071200Y-226783900D03*
X476237300Y-227850700D03*
X457238100Y-235445300D03*
X450291200Y-238328200D03*
X473087700Y-240639600D03*
X439877200Y-245402100D03*
X490105700Y-184277000D03*
X445782700Y-246722900D03*
X492163100Y-194691000D03*
X439432700Y-232181400D03*
X449275200Y-217246200D03*
X449275200Y-209016600D03*
X474408500Y-218528900D03*
X491350300Y-223710500D03*
X457936600Y-218503500D03*
X466013800Y-250621800D03*
X454977500Y-229527100D03*
D14*
X474383100Y-218503500D02*
X474408500Y-218528900D01*
X465912200Y-218503500D02*
X474383100Y-218503500D01*
X506336300Y-220230700D02*
X504698000Y-221869000D01*
X504050300Y-199517000D02*
X504075700Y-199517000D01*
X504698000Y-246405400D02*
X504037600Y-247065800D01*
X504647200Y-200113900D02*
X504050300Y-199517000D01*
X506222000Y-211213700D02*
X506336300Y-211328000D01*
X504647200Y-206336900D02*
X504647200Y-200113900D01*
X506336300Y-208026000D02*
X504647200Y-206336900D01*
X506336300Y-211328000D02*
X506336300Y-208026000D01*
X433793900Y-211213700D02*
X506222000Y-211213700D01*
X506336300Y-211328000D02*
X506336300Y-220230700D01*
X504698000Y-221869000D02*
X504698000Y-246405400D01*
X439940700Y-233603800D02*
X440880500Y-233603800D01*
X439000900Y-233603800D02*
X439940700Y-233603800D01*
X472122500Y-233616500D02*
X478599500Y-240093500D01*
X436930800Y-231533700D02*
X439000900Y-233603800D01*
X440880500Y-233603800D02*
X440893200Y-233616500D01*
X440893200Y-233616500D02*
X472122500Y-233616500D01*
X433793900Y-231533700D02*
X436930800Y-231533700D01*
X502539000Y-216027000D02*
X500164100Y-216027000D01*
X433793900Y-216293700D02*
X440537600Y-216293700D01*
X504050300Y-217538300D02*
X502539000Y-216027000D01*
X440537600Y-216293700D02*
X440645550Y-216185750D01*
X440804300Y-216027000D02*
X452272400Y-216027000D01*
X504050300Y-218541600D02*
X504050300Y-217538300D01*
X500164100Y-216027000D02*
X452272400Y-216027000D01*
X440645550Y-216185750D02*
X440804300Y-216027000D01*
X451192900Y-220941900D02*
X454164700Y-223913700D01*
X454164700Y-223926400D02*
X456158600Y-225920300D01*
X454164700Y-223913700D02*
X454164700Y-223926400D01*
X457009500Y-226783900D02*
X468071200Y-226783900D01*
X444334900Y-220941900D02*
X451192900Y-220941900D01*
X433793900Y-218833700D02*
X442252100Y-218833700D01*
X442436250Y-219017850D02*
X444169800Y-220751400D01*
X444169800Y-220776800D02*
X444334900Y-220941900D01*
X442252100Y-218833700D02*
X442436250Y-219017850D01*
X456158600Y-225920300D02*
X456158600Y-225933000D01*
X456158600Y-225933000D02*
X457009500Y-226783900D01*
X444169800Y-220751400D02*
X444169800Y-220776800D01*
X484974900Y-256616200D02*
X502234200Y-256616200D01*
X437127650Y-222421450D02*
X437127650Y-223996250D01*
X442366400Y-225755200D02*
X443458600Y-226847400D01*
X443458600Y-226847400D02*
X455714100Y-226847400D01*
X437127650Y-223996250D02*
X438886600Y-225755200D01*
X456717400Y-227850700D02*
X476237300Y-227850700D01*
X455714100Y-226847400D02*
X456717400Y-227850700D01*
X509117600Y-233438700D02*
X509117600Y-184061100D01*
X436079900Y-221373700D02*
X437127650Y-222421450D01*
X502234200Y-256616200D02*
X504913900Y-253936500D01*
X506539500Y-236016800D02*
X509117600Y-233438700D01*
X506539500Y-247916700D02*
X506539500Y-236016800D01*
X433793900Y-221373700D02*
X436079900Y-221373700D01*
X505460000Y-180403500D02*
X504037600Y-180403500D01*
X504913900Y-253936500D02*
X504913900Y-249542300D01*
X438886600Y-225755200D02*
X442366400Y-225755200D01*
X509117600Y-184061100D02*
X505460000Y-180403500D01*
X504037600Y-180403500D02*
X504037600Y-180225700D01*
X504913900Y-249542300D02*
X506539500Y-247916700D01*
X438873900Y-235534200D02*
X444550800Y-235534200D01*
X437413400Y-234073700D02*
X438873900Y-235534200D01*
X433793900Y-234073700D02*
X437413400Y-234073700D01*
X444550800Y-235534200D02*
X453771000Y-235534200D01*
X478612200Y-221043500D02*
X478650300Y-221081600D01*
X459562200Y-221043500D02*
X478612200Y-221043500D01*
X453771000Y-235534200D02*
X457149200Y-235534200D01*
X457149200Y-235534200D02*
X457238100Y-235445300D01*
X440474100Y-202031600D02*
X459536800Y-202031600D01*
X449211700Y-239407700D02*
X450291200Y-238328200D01*
X459536800Y-202031600D02*
X459549500Y-202018900D01*
X442569600Y-236613700D02*
X443572900Y-237617000D01*
X433793900Y-236613700D02*
X442569600Y-236613700D01*
X445363600Y-239407700D02*
X449021200Y-239407700D01*
X449021200Y-239407700D02*
X449211700Y-239407700D01*
X443572900Y-237617000D02*
X445363600Y-239407700D01*
X436219600Y-239153700D02*
X437438800Y-240372900D01*
X437438800Y-240372900D02*
X437438800Y-242963700D01*
X468325200Y-245402100D02*
X473087700Y-240639600D01*
X437438800Y-242963700D02*
X439877200Y-245402100D01*
X467271100Y-245402100D02*
X468325200Y-245402100D01*
X450215000Y-245402100D02*
X467271100Y-245402100D01*
X433793900Y-239153700D02*
X436219600Y-239153700D01*
X439877200Y-245402100D02*
X450215000Y-245402100D01*
X433793900Y-241693700D02*
X435597300Y-241693700D01*
X479475800Y-182968900D02*
X480161600Y-182283100D01*
X436416450Y-243909850D02*
X439229500Y-246722900D01*
X436416450Y-242512850D02*
X436416450Y-243909850D01*
X480161600Y-182283100D02*
X488111800Y-182283100D01*
X478612200Y-259168900D02*
X478624900Y-259156200D01*
X435597300Y-241693700D02*
X436416450Y-242512850D01*
X488111800Y-182283100D02*
X490105700Y-184277000D01*
X459562200Y-259168900D02*
X478612200Y-259168900D01*
X439229500Y-246722900D02*
X441464700Y-246722900D01*
X478624900Y-182968900D02*
X479475800Y-182968900D01*
X441464700Y-246722900D02*
X445782700Y-246722900D01*
X492594900Y-248246900D02*
X497700300Y-243141500D01*
X433793900Y-244233700D02*
X435013100Y-244233700D01*
X439775600Y-248246900D02*
X492594900Y-248246900D01*
X459498700Y-182968900D02*
X459498700Y-181330600D01*
X459498700Y-181330600D02*
X462737200Y-178092100D01*
X439026300Y-248246900D02*
X439775600Y-248246900D01*
X497700300Y-243141500D02*
X497700300Y-221081600D01*
X462737200Y-178092100D02*
X492836200Y-178092100D01*
X435013100Y-244233700D02*
X439026300Y-248246900D01*
X492836200Y-178092100D02*
X497687600Y-182943500D01*
X440474100Y-182968900D02*
X440474100Y-183997600D01*
X433793900Y-246773700D02*
X436333900Y-246773700D01*
X497687600Y-249605800D02*
X439166000Y-249605800D01*
X441312300Y-187185300D02*
X448818000Y-194691000D01*
X441312300Y-184835800D02*
X441312300Y-187185300D01*
X440436000Y-182930800D02*
X440474100Y-182968900D01*
X436333900Y-246773700D02*
X439166000Y-249605800D01*
X440474100Y-183997600D02*
X441312300Y-184835800D01*
X492163100Y-194691000D02*
X448818000Y-194691000D01*
X440499500Y-240106200D02*
X457809600Y-240106200D01*
X437286400Y-228993700D02*
X439432700Y-231140000D01*
X439432700Y-231140000D02*
X439432700Y-232181400D01*
X457809600Y-240106200D02*
X457835000Y-240080800D01*
X433793900Y-228993700D02*
X437286400Y-228993700D01*
X457835000Y-240080800D02*
X459562200Y-240080800D01*
X464502500Y-218503500D02*
X465912200Y-218503500D01*
X463245200Y-217246200D02*
X464502500Y-218503500D01*
X449275200Y-217246200D02*
X463245200Y-217246200D01*
X448881500Y-197434200D02*
X446824100Y-199491600D01*
X482930200Y-197434200D02*
X448881500Y-197434200D01*
X433793900Y-208673700D02*
X448932300Y-208673700D01*
X485013000Y-199517000D02*
X482930200Y-197434200D01*
X448932300Y-208673700D02*
X449275200Y-209016600D01*
X442137800Y-226910900D02*
X443039500Y-227812600D01*
X438581800Y-226910900D02*
X442137800Y-226910900D01*
X433793900Y-223913700D02*
X435584600Y-223913700D01*
X435584600Y-223913700D02*
X438581800Y-226910900D01*
X486035350Y-229025450D02*
X491350300Y-223710500D01*
X456241150Y-229025450D02*
X486035350Y-229025450D01*
X465848700Y-180428900D02*
X484974900Y-180428900D01*
X443039500Y-227812600D02*
X455028300Y-227812600D01*
X455028300Y-227812600D02*
X456241150Y-229025450D01*
X451307200Y-252095000D02*
X459409800Y-252095000D01*
X443014100Y-229374700D02*
X452818500Y-229374700D01*
X446862200Y-256540000D02*
X451307200Y-252095000D01*
X463054700Y-220268800D02*
X474637100Y-220268800D01*
X436638700Y-226453700D02*
X438708800Y-228523800D01*
X438708800Y-228523800D02*
X442163200Y-228523800D01*
X452818500Y-229374700D02*
X454825100Y-229374700D01*
X446862200Y-218503500D02*
X457936600Y-218503500D01*
X442163200Y-228523800D02*
X443014100Y-229374700D01*
X460324200Y-252095000D02*
X464540600Y-252095000D01*
X464540600Y-252095000D02*
X466013800Y-250621800D01*
X446862200Y-256590800D02*
X446862200Y-256540000D01*
X457936600Y-218503500D02*
X461289400Y-218503500D01*
X433793900Y-226453700D02*
X436638700Y-226453700D01*
X461289400Y-218503500D02*
X463054700Y-220268800D01*
X474637100Y-220268800D02*
X476364300Y-218541600D01*
X476364300Y-218541600D02*
X485000300Y-218541600D01*
X446849500Y-256603500D02*
X446862200Y-256590800D01*
X454825100Y-229374700D02*
X454977500Y-229527100D01*
X459409800Y-252095000D02*
X460324200Y-252095000D01*
D15*
X430949100Y-147269200D02*
X430961800Y-275932900D01*
X430949100Y-147269200D02*
G75*
G02*
X436791100Y-141427200I5842000J0D01*
G01*
X436803800Y-281774900D02*
G75*
G02*
X430961800Y-275932900I0J5842000D01*
G01*
X439888000Y-147358100D02*
G75*
G02*
X434888000Y-147358100I-2500000J0D01*
G01*
X434888000Y-147358100D02*
G75*
G02*
X439888000Y-147358100I2500000J0D01*
G01*
X439888000Y-277266400D02*
G75*
G02*
X434888000Y-277266400I-2500000J0D01*
G01*
X434888000Y-277266400D02*
G75*
G02*
X439888000Y-277266400I2500000J0D01*
G01*
X456385300Y-147269200D02*
G75*
G02*
X451385300Y-147269200I-2500000J0D01*
G01*
X451385300Y-147269200D02*
G75*
G02*
X456385300Y-147269200I2500000J0D01*
G01*
X456385300Y-277266400D02*
G75*
G02*
X451385300Y-277266400I-2500000J0D01*
G01*
X451385300Y-277266400D02*
G75*
G02*
X456385300Y-277266400I2500000J0D01*
G01*
X496466500Y-147269200D02*
G75*
G02*
X491466500Y-147269200I-2500000J0D01*
G01*
X491466500Y-147269200D02*
G75*
G02*
X496466500Y-147269200I2500000J0D01*
G01*
X496517300Y-277253700D02*
G75*
G02*
X491517300Y-277253700I-2500000J0D01*
G01*
X491517300Y-277253700D02*
G75*
G02*
X496517300Y-277253700I2500000J0D01*
G01*
X506524900Y-147269200D02*
G75*
G02*
X501524900Y-147269200I-2500000J0D01*
G01*
X501524900Y-147269200D02*
G75*
G02*
X506524900Y-147269200I2500000J0D01*
G01*
X508019994Y-277279100D02*
G75*
G02*
X500029806Y-277279100I-3995094J0D01*
G01*
X500029806Y-277279100D02*
G75*
G02*
X508019994Y-277279100I3995094J0D01*
G01*
X508177800Y-141427200D02*
X436791100Y-141427200D01*
X508177800Y-141427200D02*
G75*
G02*
X514019800Y-147269200I0J-5842000D01*
G01*
X508177800Y-281774900D02*
X436803800Y-281774900D01*
X514019800Y-147853400D02*
X514019800Y-147269200D01*
X514019800Y-275932900D02*
G75*
G02*
X508177800Y-281774900I-5842000J0D01*
G01*
X514019800Y-275932900D02*
X514019800Y-147853400D01*
M02*
