G04 #@! TF.GenerationSoftware,KiCad,Pcbnew,10.0.6*
G04 #@! TF.CreationDate,2026-09-23T14:58:44-04:00*
G04 #@! TF.ProjectId,v364mx-numpad,76333634-6d78-42d6-9e75-6d7061642e6b,rev?*
G04 #@! TF.SameCoordinates,Original*
G04 #@! TF.FileFunction,Legend,Top*
G04 #@! TF.FilePolarity,Positive*
%FSLAX46Y46*%
G04 Gerber Fmt 4.6, Leading zero omitted, Abs format (unit mm)*
G04 Created by KiCad (PCBNEW 10.0.6) date 2026-09-23 14:58:44*
%MOMM*%
%LPD*%
G01*
G04 APERTURE LIST*
%ADD10C,0.120000*%
%ADD11C,0.300000*%
%ADD12C,0.450000*%
%ADD13C,0.150000*%
G04 #@! TA.AperFunction,Profile*
%ADD14C,0.050000*%
G04 #@! TD*
G04 APERTURE END LIST*
D10*
X435300000Y-175769000D02*
X435300000Y-271400000D01*
X435200000Y-271373600D02*
X511225800Y-271373600D01*
X511187700Y-175742600D02*
X435200000Y-175769000D01*
X511225800Y-175742600D02*
X511136900Y-175742600D01*
X511225800Y-271373600D02*
X511225800Y-175742600D01*
D11*
X458065441Y-170137535D02*
X458065441Y-170442297D01*
X458674965Y-170137535D02*
X458674965Y-170442297D01*
X459132108Y-170137535D02*
X459665442Y-171737535D01*
X459665442Y-171737535D02*
X460198775Y-170137535D01*
X460579728Y-170137535D02*
X461570204Y-170137535D01*
X461570204Y-170137535D02*
X461036871Y-170747059D01*
X461036871Y-170747059D02*
X461265442Y-170747059D01*
X461265442Y-170747059D02*
X461417823Y-170823249D01*
X461417823Y-170823249D02*
X461494014Y-170899440D01*
X461494014Y-170899440D02*
X461570204Y-171051821D01*
X461570204Y-171051821D02*
X461570204Y-171432773D01*
X461570204Y-171432773D02*
X461494014Y-171585154D01*
X461494014Y-171585154D02*
X461417823Y-171661345D01*
X461417823Y-171661345D02*
X461265442Y-171737535D01*
X461265442Y-171737535D02*
X460808299Y-171737535D01*
X460808299Y-171737535D02*
X460655918Y-171661345D01*
X460655918Y-171661345D02*
X460579728Y-171585154D01*
X462941633Y-170137535D02*
X462636871Y-170137535D01*
X462636871Y-170137535D02*
X462484490Y-170213725D01*
X462484490Y-170213725D02*
X462408300Y-170289916D01*
X462408300Y-170289916D02*
X462255919Y-170518487D01*
X462255919Y-170518487D02*
X462179728Y-170823249D01*
X462179728Y-170823249D02*
X462179728Y-171432773D01*
X462179728Y-171432773D02*
X462255919Y-171585154D01*
X462255919Y-171585154D02*
X462332109Y-171661345D01*
X462332109Y-171661345D02*
X462484490Y-171737535D01*
X462484490Y-171737535D02*
X462789252Y-171737535D01*
X462789252Y-171737535D02*
X462941633Y-171661345D01*
X462941633Y-171661345D02*
X463017824Y-171585154D01*
X463017824Y-171585154D02*
X463094014Y-171432773D01*
X463094014Y-171432773D02*
X463094014Y-171051821D01*
X463094014Y-171051821D02*
X463017824Y-170899440D01*
X463017824Y-170899440D02*
X462941633Y-170823249D01*
X462941633Y-170823249D02*
X462789252Y-170747059D01*
X462789252Y-170747059D02*
X462484490Y-170747059D01*
X462484490Y-170747059D02*
X462332109Y-170823249D01*
X462332109Y-170823249D02*
X462255919Y-170899440D01*
X462255919Y-170899440D02*
X462179728Y-171051821D01*
X464465443Y-170670868D02*
X464465443Y-171737535D01*
X464084491Y-170061345D02*
X463703538Y-171204202D01*
X463703538Y-171204202D02*
X464694015Y-171204202D01*
X465303539Y-171128011D02*
X466522587Y-171128011D01*
X467284491Y-171737535D02*
X467284491Y-170137535D01*
X467284491Y-170137535D02*
X468198777Y-171737535D01*
X468198777Y-171737535D02*
X468198777Y-170137535D01*
X468960681Y-170137535D02*
X468960681Y-171432773D01*
X468960681Y-171432773D02*
X469036871Y-171585154D01*
X469036871Y-171585154D02*
X469113062Y-171661345D01*
X469113062Y-171661345D02*
X469265443Y-171737535D01*
X469265443Y-171737535D02*
X469570205Y-171737535D01*
X469570205Y-171737535D02*
X469722586Y-171661345D01*
X469722586Y-171661345D02*
X469798776Y-171585154D01*
X469798776Y-171585154D02*
X469874967Y-171432773D01*
X469874967Y-171432773D02*
X469874967Y-170137535D01*
X470636871Y-171737535D02*
X470636871Y-170137535D01*
X470636871Y-170137535D02*
X471170204Y-171280392D01*
X471170204Y-171280392D02*
X471703538Y-170137535D01*
X471703538Y-170137535D02*
X471703538Y-171737535D01*
X472465442Y-171737535D02*
X472465442Y-170137535D01*
X472465442Y-170137535D02*
X473074966Y-170137535D01*
X473074966Y-170137535D02*
X473227347Y-170213725D01*
X473227347Y-170213725D02*
X473303537Y-170289916D01*
X473303537Y-170289916D02*
X473379728Y-170442297D01*
X473379728Y-170442297D02*
X473379728Y-170670868D01*
X473379728Y-170670868D02*
X473303537Y-170823249D01*
X473303537Y-170823249D02*
X473227347Y-170899440D01*
X473227347Y-170899440D02*
X473074966Y-170975630D01*
X473074966Y-170975630D02*
X472465442Y-170975630D01*
X473989251Y-171280392D02*
X474751156Y-171280392D01*
X473836870Y-171737535D02*
X474370204Y-170137535D01*
X474370204Y-170137535D02*
X474903537Y-171737535D01*
X475436871Y-171737535D02*
X475436871Y-170137535D01*
X475436871Y-170137535D02*
X475817823Y-170137535D01*
X475817823Y-170137535D02*
X476046395Y-170213725D01*
X476046395Y-170213725D02*
X476198776Y-170366106D01*
X476198776Y-170366106D02*
X476274966Y-170518487D01*
X476274966Y-170518487D02*
X476351157Y-170823249D01*
X476351157Y-170823249D02*
X476351157Y-171051821D01*
X476351157Y-171051821D02*
X476274966Y-171356583D01*
X476274966Y-171356583D02*
X476198776Y-171508964D01*
X476198776Y-171508964D02*
X476046395Y-171661345D01*
X476046395Y-171661345D02*
X475817823Y-171737535D01*
X475817823Y-171737535D02*
X475436871Y-171737535D01*
X477036871Y-171128011D02*
X478255919Y-171128011D01*
X478789251Y-170137535D02*
X479322585Y-171737535D01*
X479322585Y-171737535D02*
X479855918Y-170137535D01*
X481227347Y-171737535D02*
X480313061Y-171737535D01*
X480770204Y-171737535D02*
X480770204Y-170137535D01*
X480770204Y-170137535D02*
X480617823Y-170366106D01*
X480617823Y-170366106D02*
X480465442Y-170518487D01*
X480465442Y-170518487D02*
X480313061Y-170594678D01*
X481913062Y-171128011D02*
X483132110Y-171128011D01*
X484808300Y-171737535D02*
X484274966Y-170975630D01*
X483894014Y-171737535D02*
X483894014Y-170137535D01*
X483894014Y-170137535D02*
X484503538Y-170137535D01*
X484503538Y-170137535D02*
X484655919Y-170213725D01*
X484655919Y-170213725D02*
X484732109Y-170289916D01*
X484732109Y-170289916D02*
X484808300Y-170442297D01*
X484808300Y-170442297D02*
X484808300Y-170670868D01*
X484808300Y-170670868D02*
X484732109Y-170823249D01*
X484732109Y-170823249D02*
X484655919Y-170899440D01*
X484655919Y-170899440D02*
X484503538Y-170975630D01*
X484503538Y-170975630D02*
X483894014Y-170975630D01*
X486332109Y-171737535D02*
X485417823Y-171737535D01*
X485874966Y-171737535D02*
X485874966Y-170137535D01*
X485874966Y-170137535D02*
X485722585Y-170366106D01*
X485722585Y-170366106D02*
X485570204Y-170518487D01*
X485570204Y-170518487D02*
X485417823Y-170594678D01*
X486941633Y-170137535D02*
X486941633Y-170442297D01*
X487551157Y-170137535D02*
X487551157Y-170442297D01*
X454065439Y-174922969D02*
X453989248Y-174846778D01*
X453989248Y-174846778D02*
X453836867Y-174618207D01*
X453836867Y-174618207D02*
X453760677Y-174465826D01*
X453760677Y-174465826D02*
X453684486Y-174237255D01*
X453684486Y-174237255D02*
X453608296Y-173856302D01*
X453608296Y-173856302D02*
X453608296Y-173551540D01*
X453608296Y-173551540D02*
X453684486Y-173170588D01*
X453684486Y-173170588D02*
X453760677Y-172942016D01*
X453760677Y-172942016D02*
X453836867Y-172789635D01*
X453836867Y-172789635D02*
X453989248Y-172561064D01*
X453989248Y-172561064D02*
X454065439Y-172484874D01*
X455589249Y-174161064D02*
X455513058Y-174237255D01*
X455513058Y-174237255D02*
X455284487Y-174313445D01*
X455284487Y-174313445D02*
X455132106Y-174313445D01*
X455132106Y-174313445D02*
X454903534Y-174237255D01*
X454903534Y-174237255D02*
X454751153Y-174084874D01*
X454751153Y-174084874D02*
X454674963Y-173932493D01*
X454674963Y-173932493D02*
X454598772Y-173627731D01*
X454598772Y-173627731D02*
X454598772Y-173399159D01*
X454598772Y-173399159D02*
X454674963Y-173094397D01*
X454674963Y-173094397D02*
X454751153Y-172942016D01*
X454751153Y-172942016D02*
X454903534Y-172789635D01*
X454903534Y-172789635D02*
X455132106Y-172713445D01*
X455132106Y-172713445D02*
X455284487Y-172713445D01*
X455284487Y-172713445D02*
X455513058Y-172789635D01*
X455513058Y-172789635D02*
X455589249Y-172865826D01*
X456122582Y-174922969D02*
X456198772Y-174846778D01*
X456198772Y-174846778D02*
X456351153Y-174618207D01*
X456351153Y-174618207D02*
X456427344Y-174465826D01*
X456427344Y-174465826D02*
X456503534Y-174237255D01*
X456503534Y-174237255D02*
X456579725Y-173856302D01*
X456579725Y-173856302D02*
X456579725Y-173551540D01*
X456579725Y-173551540D02*
X456503534Y-173170588D01*
X456503534Y-173170588D02*
X456427344Y-172942016D01*
X456427344Y-172942016D02*
X456351153Y-172789635D01*
X456351153Y-172789635D02*
X456198772Y-172561064D01*
X456198772Y-172561064D02*
X456122582Y-172484874D01*
X458484487Y-174237255D02*
X458713059Y-174313445D01*
X458713059Y-174313445D02*
X459094011Y-174313445D01*
X459094011Y-174313445D02*
X459246392Y-174237255D01*
X459246392Y-174237255D02*
X459322583Y-174161064D01*
X459322583Y-174161064D02*
X459398773Y-174008683D01*
X459398773Y-174008683D02*
X459398773Y-173856302D01*
X459398773Y-173856302D02*
X459322583Y-173703921D01*
X459322583Y-173703921D02*
X459246392Y-173627731D01*
X459246392Y-173627731D02*
X459094011Y-173551540D01*
X459094011Y-173551540D02*
X458789249Y-173475350D01*
X458789249Y-173475350D02*
X458636868Y-173399159D01*
X458636868Y-173399159D02*
X458560678Y-173322969D01*
X458560678Y-173322969D02*
X458484487Y-173170588D01*
X458484487Y-173170588D02*
X458484487Y-173018207D01*
X458484487Y-173018207D02*
X458560678Y-172865826D01*
X458560678Y-172865826D02*
X458636868Y-172789635D01*
X458636868Y-172789635D02*
X458789249Y-172713445D01*
X458789249Y-172713445D02*
X459170202Y-172713445D01*
X459170202Y-172713445D02*
X459398773Y-172789635D01*
X459855916Y-173246778D02*
X460465440Y-173246778D01*
X460084488Y-172713445D02*
X460084488Y-174084874D01*
X460084488Y-174084874D02*
X460160678Y-174237255D01*
X460160678Y-174237255D02*
X460313059Y-174313445D01*
X460313059Y-174313445D02*
X460465440Y-174313445D01*
X461608298Y-174237255D02*
X461455917Y-174313445D01*
X461455917Y-174313445D02*
X461151155Y-174313445D01*
X461151155Y-174313445D02*
X460998774Y-174237255D01*
X460998774Y-174237255D02*
X460922583Y-174084874D01*
X460922583Y-174084874D02*
X460922583Y-173475350D01*
X460922583Y-173475350D02*
X460998774Y-173322969D01*
X460998774Y-173322969D02*
X461151155Y-173246778D01*
X461151155Y-173246778D02*
X461455917Y-173246778D01*
X461455917Y-173246778D02*
X461608298Y-173322969D01*
X461608298Y-173322969D02*
X461684488Y-173475350D01*
X461684488Y-173475350D02*
X461684488Y-173627731D01*
X461684488Y-173627731D02*
X460922583Y-173780112D01*
X462217822Y-173246778D02*
X462598774Y-174313445D01*
X462598774Y-174313445D02*
X462979727Y-173246778D01*
X464198775Y-174237255D02*
X464046394Y-174313445D01*
X464046394Y-174313445D02*
X463741632Y-174313445D01*
X463741632Y-174313445D02*
X463589251Y-174237255D01*
X463589251Y-174237255D02*
X463513060Y-174084874D01*
X463513060Y-174084874D02*
X463513060Y-173475350D01*
X463513060Y-173475350D02*
X463589251Y-173322969D01*
X463589251Y-173322969D02*
X463741632Y-173246778D01*
X463741632Y-173246778D02*
X464046394Y-173246778D01*
X464046394Y-173246778D02*
X464198775Y-173322969D01*
X464198775Y-173322969D02*
X464274965Y-173475350D01*
X464274965Y-173475350D02*
X464274965Y-173627731D01*
X464274965Y-173627731D02*
X463513060Y-173780112D01*
X466636871Y-172713445D02*
X466636871Y-173856302D01*
X466636871Y-173856302D02*
X466560680Y-174084874D01*
X466560680Y-174084874D02*
X466408299Y-174237255D01*
X466408299Y-174237255D02*
X466179728Y-174313445D01*
X466179728Y-174313445D02*
X466027347Y-174313445D01*
X467398776Y-174161064D02*
X467474966Y-174237255D01*
X467474966Y-174237255D02*
X467398776Y-174313445D01*
X467398776Y-174313445D02*
X467322585Y-174237255D01*
X467322585Y-174237255D02*
X467398776Y-174161064D01*
X467398776Y-174161064D02*
X467398776Y-174313445D01*
X470217824Y-172789635D02*
X470065443Y-172713445D01*
X470065443Y-172713445D02*
X469836872Y-172713445D01*
X469836872Y-172713445D02*
X469608300Y-172789635D01*
X469608300Y-172789635D02*
X469455919Y-172942016D01*
X469455919Y-172942016D02*
X469379729Y-173094397D01*
X469379729Y-173094397D02*
X469303538Y-173399159D01*
X469303538Y-173399159D02*
X469303538Y-173627731D01*
X469303538Y-173627731D02*
X469379729Y-173932493D01*
X469379729Y-173932493D02*
X469455919Y-174084874D01*
X469455919Y-174084874D02*
X469608300Y-174237255D01*
X469608300Y-174237255D02*
X469836872Y-174313445D01*
X469836872Y-174313445D02*
X469989253Y-174313445D01*
X469989253Y-174313445D02*
X470217824Y-174237255D01*
X470217824Y-174237255D02*
X470294015Y-174161064D01*
X470294015Y-174161064D02*
X470294015Y-173627731D01*
X470294015Y-173627731D02*
X469989253Y-173627731D01*
X470979729Y-174313445D02*
X470979729Y-173246778D01*
X470979729Y-173551540D02*
X471055919Y-173399159D01*
X471055919Y-173399159D02*
X471132110Y-173322969D01*
X471132110Y-173322969D02*
X471284491Y-173246778D01*
X471284491Y-173246778D02*
X471436872Y-173246778D01*
X472655919Y-174313445D02*
X472655919Y-173475350D01*
X472655919Y-173475350D02*
X472579729Y-173322969D01*
X472579729Y-173322969D02*
X472427348Y-173246778D01*
X472427348Y-173246778D02*
X472122586Y-173246778D01*
X472122586Y-173246778D02*
X471970205Y-173322969D01*
X472655919Y-174237255D02*
X472503538Y-174313445D01*
X472503538Y-174313445D02*
X472122586Y-174313445D01*
X472122586Y-174313445D02*
X471970205Y-174237255D01*
X471970205Y-174237255D02*
X471894014Y-174084874D01*
X471894014Y-174084874D02*
X471894014Y-173932493D01*
X471894014Y-173932493D02*
X471970205Y-173780112D01*
X471970205Y-173780112D02*
X472122586Y-173703921D01*
X472122586Y-173703921D02*
X472503538Y-173703921D01*
X472503538Y-173703921D02*
X472655919Y-173627731D01*
X473265443Y-173246778D02*
X473646395Y-174313445D01*
X474027348Y-173246778D02*
X473646395Y-174313445D01*
X473646395Y-174313445D02*
X473494014Y-174694397D01*
X473494014Y-174694397D02*
X473417824Y-174770588D01*
X473417824Y-174770588D02*
X473265443Y-174846778D01*
X474713062Y-174237255D02*
X474713062Y-174313445D01*
X474713062Y-174313445D02*
X474636872Y-174465826D01*
X474636872Y-174465826D02*
X474560681Y-174542016D01*
X476541634Y-172865826D02*
X476617825Y-172789635D01*
X476617825Y-172789635D02*
X476770206Y-172713445D01*
X476770206Y-172713445D02*
X477151158Y-172713445D01*
X477151158Y-172713445D02*
X477303539Y-172789635D01*
X477303539Y-172789635D02*
X477379730Y-172865826D01*
X477379730Y-172865826D02*
X477455920Y-173018207D01*
X477455920Y-173018207D02*
X477455920Y-173170588D01*
X477455920Y-173170588D02*
X477379730Y-173399159D01*
X477379730Y-173399159D02*
X476465444Y-174313445D01*
X476465444Y-174313445D02*
X477455920Y-174313445D01*
X478446397Y-172713445D02*
X478598778Y-172713445D01*
X478598778Y-172713445D02*
X478751159Y-172789635D01*
X478751159Y-172789635D02*
X478827349Y-172865826D01*
X478827349Y-172865826D02*
X478903540Y-173018207D01*
X478903540Y-173018207D02*
X478979730Y-173322969D01*
X478979730Y-173322969D02*
X478979730Y-173703921D01*
X478979730Y-173703921D02*
X478903540Y-174008683D01*
X478903540Y-174008683D02*
X478827349Y-174161064D01*
X478827349Y-174161064D02*
X478751159Y-174237255D01*
X478751159Y-174237255D02*
X478598778Y-174313445D01*
X478598778Y-174313445D02*
X478446397Y-174313445D01*
X478446397Y-174313445D02*
X478294016Y-174237255D01*
X478294016Y-174237255D02*
X478217825Y-174161064D01*
X478217825Y-174161064D02*
X478141635Y-174008683D01*
X478141635Y-174008683D02*
X478065444Y-173703921D01*
X478065444Y-173703921D02*
X478065444Y-173322969D01*
X478065444Y-173322969D02*
X478141635Y-173018207D01*
X478141635Y-173018207D02*
X478217825Y-172865826D01*
X478217825Y-172865826D02*
X478294016Y-172789635D01*
X478294016Y-172789635D02*
X478446397Y-172713445D01*
X479589254Y-172865826D02*
X479665445Y-172789635D01*
X479665445Y-172789635D02*
X479817826Y-172713445D01*
X479817826Y-172713445D02*
X480198778Y-172713445D01*
X480198778Y-172713445D02*
X480351159Y-172789635D01*
X480351159Y-172789635D02*
X480427350Y-172865826D01*
X480427350Y-172865826D02*
X480503540Y-173018207D01*
X480503540Y-173018207D02*
X480503540Y-173170588D01*
X480503540Y-173170588D02*
X480427350Y-173399159D01*
X480427350Y-173399159D02*
X479513064Y-174313445D01*
X479513064Y-174313445D02*
X480503540Y-174313445D01*
X481874969Y-172713445D02*
X481570207Y-172713445D01*
X481570207Y-172713445D02*
X481417826Y-172789635D01*
X481417826Y-172789635D02*
X481341636Y-172865826D01*
X481341636Y-172865826D02*
X481189255Y-173094397D01*
X481189255Y-173094397D02*
X481113064Y-173399159D01*
X481113064Y-173399159D02*
X481113064Y-174008683D01*
X481113064Y-174008683D02*
X481189255Y-174161064D01*
X481189255Y-174161064D02*
X481265445Y-174237255D01*
X481265445Y-174237255D02*
X481417826Y-174313445D01*
X481417826Y-174313445D02*
X481722588Y-174313445D01*
X481722588Y-174313445D02*
X481874969Y-174237255D01*
X481874969Y-174237255D02*
X481951160Y-174161064D01*
X481951160Y-174161064D02*
X482027350Y-174008683D01*
X482027350Y-174008683D02*
X482027350Y-173627731D01*
X482027350Y-173627731D02*
X481951160Y-173475350D01*
X481951160Y-173475350D02*
X481874969Y-173399159D01*
X481874969Y-173399159D02*
X481722588Y-173322969D01*
X481722588Y-173322969D02*
X481417826Y-173322969D01*
X481417826Y-173322969D02*
X481265445Y-173399159D01*
X481265445Y-173399159D02*
X481189255Y-173475350D01*
X481189255Y-173475350D02*
X481113064Y-173627731D01*
X482713065Y-173703921D02*
X483932113Y-173703921D01*
X484998779Y-172713445D02*
X485151160Y-172713445D01*
X485151160Y-172713445D02*
X485303541Y-172789635D01*
X485303541Y-172789635D02*
X485379731Y-172865826D01*
X485379731Y-172865826D02*
X485455922Y-173018207D01*
X485455922Y-173018207D02*
X485532112Y-173322969D01*
X485532112Y-173322969D02*
X485532112Y-173703921D01*
X485532112Y-173703921D02*
X485455922Y-174008683D01*
X485455922Y-174008683D02*
X485379731Y-174161064D01*
X485379731Y-174161064D02*
X485303541Y-174237255D01*
X485303541Y-174237255D02*
X485151160Y-174313445D01*
X485151160Y-174313445D02*
X484998779Y-174313445D01*
X484998779Y-174313445D02*
X484846398Y-174237255D01*
X484846398Y-174237255D02*
X484770207Y-174161064D01*
X484770207Y-174161064D02*
X484694017Y-174008683D01*
X484694017Y-174008683D02*
X484617826Y-173703921D01*
X484617826Y-173703921D02*
X484617826Y-173322969D01*
X484617826Y-173322969D02*
X484694017Y-173018207D01*
X484694017Y-173018207D02*
X484770207Y-172865826D01*
X484770207Y-172865826D02*
X484846398Y-172789635D01*
X484846398Y-172789635D02*
X484998779Y-172713445D01*
X486294017Y-174313445D02*
X486598779Y-174313445D01*
X486598779Y-174313445D02*
X486751160Y-174237255D01*
X486751160Y-174237255D02*
X486827351Y-174161064D01*
X486827351Y-174161064D02*
X486979732Y-173932493D01*
X486979732Y-173932493D02*
X487055922Y-173627731D01*
X487055922Y-173627731D02*
X487055922Y-173018207D01*
X487055922Y-173018207D02*
X486979732Y-172865826D01*
X486979732Y-172865826D02*
X486903541Y-172789635D01*
X486903541Y-172789635D02*
X486751160Y-172713445D01*
X486751160Y-172713445D02*
X486446398Y-172713445D01*
X486446398Y-172713445D02*
X486294017Y-172789635D01*
X486294017Y-172789635D02*
X486217827Y-172865826D01*
X486217827Y-172865826D02*
X486141636Y-173018207D01*
X486141636Y-173018207D02*
X486141636Y-173399159D01*
X486141636Y-173399159D02*
X486217827Y-173551540D01*
X486217827Y-173551540D02*
X486294017Y-173627731D01*
X486294017Y-173627731D02*
X486446398Y-173703921D01*
X486446398Y-173703921D02*
X486751160Y-173703921D01*
X486751160Y-173703921D02*
X486903541Y-173627731D01*
X486903541Y-173627731D02*
X486979732Y-173551540D01*
X486979732Y-173551540D02*
X487055922Y-173399159D01*
X487741637Y-173703921D02*
X488960685Y-173703921D01*
X490560684Y-174313445D02*
X489646398Y-174313445D01*
X490103541Y-174313445D02*
X490103541Y-172713445D01*
X490103541Y-172713445D02*
X489951160Y-172942016D01*
X489951160Y-172942016D02*
X489798779Y-173094397D01*
X489798779Y-173094397D02*
X489646398Y-173170588D01*
X491094018Y-172713445D02*
X492084494Y-172713445D01*
X492084494Y-172713445D02*
X491551161Y-173322969D01*
X491551161Y-173322969D02*
X491779732Y-173322969D01*
X491779732Y-173322969D02*
X491932113Y-173399159D01*
X491932113Y-173399159D02*
X492008304Y-173475350D01*
X492008304Y-173475350D02*
X492084494Y-173627731D01*
X492084494Y-173627731D02*
X492084494Y-174008683D01*
X492084494Y-174008683D02*
X492008304Y-174161064D01*
X492008304Y-174161064D02*
X491932113Y-174237255D01*
X491932113Y-174237255D02*
X491779732Y-174313445D01*
X491779732Y-174313445D02*
X491322589Y-174313445D01*
X491322589Y-174313445D02*
X491170208Y-174237255D01*
X491170208Y-174237255D02*
X491094018Y-174161064D01*
X444661871Y-190444557D02*
X444566633Y-190349319D01*
X444566633Y-190349319D02*
X444376157Y-190254080D01*
X444376157Y-190254080D02*
X444185681Y-190254080D01*
X444185681Y-190254080D02*
X443995205Y-190349319D01*
X443995205Y-190349319D02*
X443899966Y-190444557D01*
X443899966Y-190444557D02*
X443804728Y-190635033D01*
X443804728Y-190635033D02*
X443804728Y-190825509D01*
X443804728Y-190825509D02*
X443899966Y-191015985D01*
X443899966Y-191015985D02*
X443995205Y-191111223D01*
X443995205Y-191111223D02*
X444185681Y-191206461D01*
X444185681Y-191206461D02*
X444376157Y-191206461D01*
X444376157Y-191206461D02*
X444566633Y-191111223D01*
X444566633Y-191111223D02*
X444661871Y-191015985D01*
X444661871Y-190254080D02*
X444661871Y-191015985D01*
X444661871Y-191015985D02*
X444757109Y-191111223D01*
X444757109Y-191111223D02*
X444852347Y-191111223D01*
X444852347Y-191111223D02*
X445042824Y-191015985D01*
X445042824Y-191015985D02*
X445138062Y-190825509D01*
X445138062Y-190825509D02*
X445138062Y-190349319D01*
X445138062Y-190349319D02*
X444947586Y-190063604D01*
X444947586Y-190063604D02*
X444661871Y-189873128D01*
X444661871Y-189873128D02*
X444280919Y-189777890D01*
X444280919Y-189777890D02*
X443899966Y-189873128D01*
X443899966Y-189873128D02*
X443614252Y-190063604D01*
X443614252Y-190063604D02*
X443423776Y-190349319D01*
X443423776Y-190349319D02*
X443328538Y-190730271D01*
X443328538Y-190730271D02*
X443423776Y-191111223D01*
X443423776Y-191111223D02*
X443614252Y-191396938D01*
X443614252Y-191396938D02*
X443899966Y-191587414D01*
X443899966Y-191587414D02*
X444280919Y-191682652D01*
X444280919Y-191682652D02*
X444661871Y-191587414D01*
X444661871Y-191587414D02*
X444947586Y-191396938D01*
X444163461Y-265215938D02*
X444353938Y-265215938D01*
X444353938Y-265215938D02*
X444544414Y-265311176D01*
X444544414Y-265311176D02*
X444639652Y-265406414D01*
X444639652Y-265406414D02*
X444734890Y-265596890D01*
X444734890Y-265596890D02*
X444830128Y-265977842D01*
X444830128Y-265977842D02*
X444830128Y-266454033D01*
X444830128Y-266454033D02*
X444734890Y-266834985D01*
X444734890Y-266834985D02*
X444639652Y-267025461D01*
X444639652Y-267025461D02*
X444544414Y-267120700D01*
X444544414Y-267120700D02*
X444353938Y-267215938D01*
X444353938Y-267215938D02*
X444163461Y-267215938D01*
X444163461Y-267215938D02*
X443972985Y-267120700D01*
X443972985Y-267120700D02*
X443877747Y-267025461D01*
X443877747Y-267025461D02*
X443782509Y-266834985D01*
X443782509Y-266834985D02*
X443687271Y-266454033D01*
X443687271Y-266454033D02*
X443687271Y-265977842D01*
X443687271Y-265977842D02*
X443782509Y-265596890D01*
X443782509Y-265596890D02*
X443877747Y-265406414D01*
X443877747Y-265406414D02*
X443972985Y-265311176D01*
X443972985Y-265311176D02*
X444163461Y-265215938D01*
X443871433Y-208243738D02*
X445204766Y-208243738D01*
X445204766Y-208243738D02*
X444347623Y-210243738D01*
X445198428Y-248331038D02*
X444055571Y-248331038D01*
X444626999Y-248331038D02*
X444626999Y-246331038D01*
X444626999Y-246331038D02*
X444436523Y-246616752D01*
X444436523Y-246616752D02*
X444246047Y-246807228D01*
X444246047Y-246807228D02*
X444055571Y-246902466D01*
X445033352Y-228011204D02*
X445033352Y-229344538D01*
X444557161Y-227249300D02*
X444080971Y-228677871D01*
X444080971Y-228677871D02*
X445319066Y-228677871D01*
X462419795Y-190533433D02*
X463943605Y-190533433D01*
X463181700Y-191295338D02*
X463181700Y-189771528D01*
X462813471Y-246407214D02*
X462908709Y-246311976D01*
X462908709Y-246311976D02*
X463099185Y-246216738D01*
X463099185Y-246216738D02*
X463575376Y-246216738D01*
X463575376Y-246216738D02*
X463765852Y-246311976D01*
X463765852Y-246311976D02*
X463861090Y-246407214D01*
X463861090Y-246407214D02*
X463956328Y-246597690D01*
X463956328Y-246597690D02*
X463956328Y-246788166D01*
X463956328Y-246788166D02*
X463861090Y-247073880D01*
X463861090Y-247073880D02*
X462718233Y-248216738D01*
X462718233Y-248216738D02*
X463956328Y-248216738D01*
X463423000Y-267203261D02*
X463518238Y-267298500D01*
X463518238Y-267298500D02*
X463423000Y-267393738D01*
X463423000Y-267393738D02*
X463327762Y-267298500D01*
X463327762Y-267298500D02*
X463423000Y-267203261D01*
X463423000Y-267203261D02*
X463423000Y-267393738D01*
X464191290Y-227433438D02*
X463238909Y-227433438D01*
X463238909Y-227433438D02*
X463143671Y-228385819D01*
X463143671Y-228385819D02*
X463238909Y-228290580D01*
X463238909Y-228290580D02*
X463429385Y-228195342D01*
X463429385Y-228195342D02*
X463905576Y-228195342D01*
X463905576Y-228195342D02*
X464096052Y-228290580D01*
X464096052Y-228290580D02*
X464191290Y-228385819D01*
X464191290Y-228385819D02*
X464286528Y-228576295D01*
X464286528Y-228576295D02*
X464286528Y-229052485D01*
X464286528Y-229052485D02*
X464191290Y-229242961D01*
X464191290Y-229242961D02*
X464096052Y-229338200D01*
X464096052Y-229338200D02*
X463905576Y-229433438D01*
X463905576Y-229433438D02*
X463429385Y-229433438D01*
X463429385Y-229433438D02*
X463238909Y-229338200D01*
X463238909Y-229338200D02*
X463143671Y-229242961D01*
X463664323Y-209253280D02*
X463473847Y-209158042D01*
X463473847Y-209158042D02*
X463378609Y-209062804D01*
X463378609Y-209062804D02*
X463283371Y-208872328D01*
X463283371Y-208872328D02*
X463283371Y-208777090D01*
X463283371Y-208777090D02*
X463378609Y-208586614D01*
X463378609Y-208586614D02*
X463473847Y-208491376D01*
X463473847Y-208491376D02*
X463664323Y-208396138D01*
X463664323Y-208396138D02*
X464045276Y-208396138D01*
X464045276Y-208396138D02*
X464235752Y-208491376D01*
X464235752Y-208491376D02*
X464330990Y-208586614D01*
X464330990Y-208586614D02*
X464426228Y-208777090D01*
X464426228Y-208777090D02*
X464426228Y-208872328D01*
X464426228Y-208872328D02*
X464330990Y-209062804D01*
X464330990Y-209062804D02*
X464235752Y-209158042D01*
X464235752Y-209158042D02*
X464045276Y-209253280D01*
X464045276Y-209253280D02*
X463664323Y-209253280D01*
X463664323Y-209253280D02*
X463473847Y-209348519D01*
X463473847Y-209348519D02*
X463378609Y-209443757D01*
X463378609Y-209443757D02*
X463283371Y-209634233D01*
X463283371Y-209634233D02*
X463283371Y-210015185D01*
X463283371Y-210015185D02*
X463378609Y-210205661D01*
X463378609Y-210205661D02*
X463473847Y-210300900D01*
X463473847Y-210300900D02*
X463664323Y-210396138D01*
X463664323Y-210396138D02*
X464045276Y-210396138D01*
X464045276Y-210396138D02*
X464235752Y-210300900D01*
X464235752Y-210300900D02*
X464330990Y-210205661D01*
X464330990Y-210205661D02*
X464426228Y-210015185D01*
X464426228Y-210015185D02*
X464426228Y-209634233D01*
X464426228Y-209634233D02*
X464330990Y-209443757D01*
X464330990Y-209443757D02*
X464235752Y-209348519D01*
X464235752Y-209348519D02*
X464045276Y-209253280D01*
X482498400Y-267292161D02*
X482593638Y-267387400D01*
X482593638Y-267387400D02*
X482498400Y-267482638D01*
X482498400Y-267482638D02*
X482403162Y-267387400D01*
X482403162Y-267387400D02*
X482498400Y-267292161D01*
X482498400Y-267292161D02*
X482498400Y-267482638D01*
X482498400Y-266244542D02*
X482593638Y-266339780D01*
X482593638Y-266339780D02*
X482498400Y-266435019D01*
X482498400Y-266435019D02*
X482403162Y-266339780D01*
X482403162Y-266339780D02*
X482498400Y-266244542D01*
X482498400Y-266244542D02*
X482498400Y-266435019D01*
X481914295Y-190609633D02*
X483438105Y-190609633D01*
X482384147Y-210396138D02*
X482765099Y-210396138D01*
X482765099Y-210396138D02*
X482955576Y-210300900D01*
X482955576Y-210300900D02*
X483050814Y-210205661D01*
X483050814Y-210205661D02*
X483241290Y-209919947D01*
X483241290Y-209919947D02*
X483336528Y-209538995D01*
X483336528Y-209538995D02*
X483336528Y-208777090D01*
X483336528Y-208777090D02*
X483241290Y-208586614D01*
X483241290Y-208586614D02*
X483146052Y-208491376D01*
X483146052Y-208491376D02*
X482955576Y-208396138D01*
X482955576Y-208396138D02*
X482574623Y-208396138D01*
X482574623Y-208396138D02*
X482384147Y-208491376D01*
X482384147Y-208491376D02*
X482288909Y-208586614D01*
X482288909Y-208586614D02*
X482193671Y-208777090D01*
X482193671Y-208777090D02*
X482193671Y-209253280D01*
X482193671Y-209253280D02*
X482288909Y-209443757D01*
X482288909Y-209443757D02*
X482384147Y-209538995D01*
X482384147Y-209538995D02*
X482574623Y-209634233D01*
X482574623Y-209634233D02*
X482955576Y-209634233D01*
X482955576Y-209634233D02*
X483146052Y-209538995D01*
X483146052Y-209538995D02*
X483241290Y-209443757D01*
X483241290Y-209443757D02*
X483336528Y-209253280D01*
X483184152Y-227344538D02*
X482803199Y-227344538D01*
X482803199Y-227344538D02*
X482612723Y-227439776D01*
X482612723Y-227439776D02*
X482517485Y-227535014D01*
X482517485Y-227535014D02*
X482327009Y-227820728D01*
X482327009Y-227820728D02*
X482231771Y-228201680D01*
X482231771Y-228201680D02*
X482231771Y-228963585D01*
X482231771Y-228963585D02*
X482327009Y-229154061D01*
X482327009Y-229154061D02*
X482422247Y-229249300D01*
X482422247Y-229249300D02*
X482612723Y-229344538D01*
X482612723Y-229344538D02*
X482993676Y-229344538D01*
X482993676Y-229344538D02*
X483184152Y-229249300D01*
X483184152Y-229249300D02*
X483279390Y-229154061D01*
X483279390Y-229154061D02*
X483374628Y-228963585D01*
X483374628Y-228963585D02*
X483374628Y-228487395D01*
X483374628Y-228487395D02*
X483279390Y-228296919D01*
X483279390Y-228296919D02*
X483184152Y-228201680D01*
X483184152Y-228201680D02*
X482993676Y-228106442D01*
X482993676Y-228106442D02*
X482612723Y-228106442D01*
X482612723Y-228106442D02*
X482422247Y-228201680D01*
X482422247Y-228201680D02*
X482327009Y-228296919D01*
X482327009Y-228296919D02*
X482231771Y-228487395D01*
X482149233Y-246216738D02*
X483387328Y-246216738D01*
X483387328Y-246216738D02*
X482720661Y-246978642D01*
X482720661Y-246978642D02*
X483006376Y-246978642D01*
X483006376Y-246978642D02*
X483196852Y-247073880D01*
X483196852Y-247073880D02*
X483292090Y-247169119D01*
X483292090Y-247169119D02*
X483387328Y-247359595D01*
X483387328Y-247359595D02*
X483387328Y-247835785D01*
X483387328Y-247835785D02*
X483292090Y-248026261D01*
X483292090Y-248026261D02*
X483196852Y-248121500D01*
X483196852Y-248121500D02*
X483006376Y-248216738D01*
X483006376Y-248216738D02*
X482434947Y-248216738D01*
X482434947Y-248216738D02*
X482244471Y-248121500D01*
X482244471Y-248121500D02*
X482149233Y-248026261D01*
X502202342Y-226804800D02*
X500488057Y-229376228D01*
X497227742Y-256910019D02*
X497894409Y-256910019D01*
X498180123Y-257957638D02*
X497227742Y-257957638D01*
X497227742Y-257957638D02*
X497227742Y-255957638D01*
X497227742Y-255957638D02*
X498180123Y-255957638D01*
X499037266Y-257957638D02*
X499037266Y-255957638D01*
X499037266Y-255957638D02*
X500180123Y-257957638D01*
X500180123Y-257957638D02*
X500180123Y-255957638D01*
X500846790Y-255957638D02*
X501989647Y-255957638D01*
X501418218Y-257957638D02*
X501418218Y-255957638D01*
X502656314Y-256910019D02*
X503322981Y-256910019D01*
X503608695Y-257957638D02*
X502656314Y-257957638D01*
X502656314Y-257957638D02*
X502656314Y-255957638D01*
X502656314Y-255957638D02*
X503608695Y-255957638D01*
X505608695Y-257957638D02*
X504942028Y-257005257D01*
X504465838Y-257957638D02*
X504465838Y-255957638D01*
X504465838Y-255957638D02*
X505227743Y-255957638D01*
X505227743Y-255957638D02*
X505418219Y-256052876D01*
X505418219Y-256052876D02*
X505513457Y-256148114D01*
X505513457Y-256148114D02*
X505608695Y-256338590D01*
X505608695Y-256338590D02*
X505608695Y-256624304D01*
X505608695Y-256624304D02*
X505513457Y-256814780D01*
X505513457Y-256814780D02*
X505418219Y-256910019D01*
X505418219Y-256910019D02*
X505227743Y-257005257D01*
X505227743Y-257005257D02*
X504465838Y-257005257D01*
X501522999Y-208993038D02*
X501522999Y-209469228D01*
X501046809Y-209278752D02*
X501522999Y-209469228D01*
X501522999Y-209469228D02*
X501999190Y-209278752D01*
X501237285Y-209850180D02*
X501522999Y-209469228D01*
X501522999Y-209469228D02*
X501808714Y-209850180D01*
X499942052Y-268898914D02*
X500037290Y-268803676D01*
X500037290Y-268803676D02*
X500227766Y-268708438D01*
X500227766Y-268708438D02*
X500703957Y-268708438D01*
X500703957Y-268708438D02*
X500894433Y-268803676D01*
X500894433Y-268803676D02*
X500989671Y-268898914D01*
X500989671Y-268898914D02*
X501084909Y-269089390D01*
X501084909Y-269089390D02*
X501084909Y-269279866D01*
X501084909Y-269279866D02*
X500989671Y-269565580D01*
X500989671Y-269565580D02*
X499846814Y-270708438D01*
X499846814Y-270708438D02*
X501084909Y-270708438D01*
X501942052Y-268708438D02*
X501942052Y-270327485D01*
X501942052Y-270327485D02*
X502037290Y-270517961D01*
X502037290Y-270517961D02*
X502132528Y-270613200D01*
X502132528Y-270613200D02*
X502323004Y-270708438D01*
X502323004Y-270708438D02*
X502703957Y-270708438D01*
X502703957Y-270708438D02*
X502894433Y-270613200D01*
X502894433Y-270613200D02*
X502989671Y-270517961D01*
X502989671Y-270517961D02*
X503084909Y-270327485D01*
X503084909Y-270327485D02*
X503084909Y-268708438D01*
X500875395Y-190260419D02*
X502399205Y-190260419D01*
X502399205Y-190831847D02*
X500875395Y-190831847D01*
D12*
X445835172Y-165610757D02*
X446835172Y-168610757D01*
X446835172Y-168610757D02*
X447835172Y-165610757D01*
X448549458Y-165610757D02*
X450406601Y-165610757D01*
X450406601Y-165610757D02*
X449406601Y-166753614D01*
X449406601Y-166753614D02*
X449835172Y-166753614D01*
X449835172Y-166753614D02*
X450120887Y-166896471D01*
X450120887Y-166896471D02*
X450263744Y-167039328D01*
X450263744Y-167039328D02*
X450406601Y-167325042D01*
X450406601Y-167325042D02*
X450406601Y-168039328D01*
X450406601Y-168039328D02*
X450263744Y-168325042D01*
X450263744Y-168325042D02*
X450120887Y-168467900D01*
X450120887Y-168467900D02*
X449835172Y-168610757D01*
X449835172Y-168610757D02*
X448978029Y-168610757D01*
X448978029Y-168610757D02*
X448692315Y-168467900D01*
X448692315Y-168467900D02*
X448549458Y-168325042D01*
X452978030Y-165610757D02*
X452406601Y-165610757D01*
X452406601Y-165610757D02*
X452120887Y-165753614D01*
X452120887Y-165753614D02*
X451978030Y-165896471D01*
X451978030Y-165896471D02*
X451692315Y-166325042D01*
X451692315Y-166325042D02*
X451549458Y-166896471D01*
X451549458Y-166896471D02*
X451549458Y-168039328D01*
X451549458Y-168039328D02*
X451692315Y-168325042D01*
X451692315Y-168325042D02*
X451835172Y-168467900D01*
X451835172Y-168467900D02*
X452120887Y-168610757D01*
X452120887Y-168610757D02*
X452692315Y-168610757D01*
X452692315Y-168610757D02*
X452978030Y-168467900D01*
X452978030Y-168467900D02*
X453120887Y-168325042D01*
X453120887Y-168325042D02*
X453263744Y-168039328D01*
X453263744Y-168039328D02*
X453263744Y-167325042D01*
X453263744Y-167325042D02*
X453120887Y-167039328D01*
X453120887Y-167039328D02*
X452978030Y-166896471D01*
X452978030Y-166896471D02*
X452692315Y-166753614D01*
X452692315Y-166753614D02*
X452120887Y-166753614D01*
X452120887Y-166753614D02*
X451835172Y-166896471D01*
X451835172Y-166896471D02*
X451692315Y-167039328D01*
X451692315Y-167039328D02*
X451549458Y-167325042D01*
X455835173Y-166610757D02*
X455835173Y-168610757D01*
X455120887Y-165467900D02*
X454406601Y-167610757D01*
X454406601Y-167610757D02*
X456263744Y-167610757D01*
X459692315Y-168610757D02*
X459692315Y-165610757D01*
X459692315Y-165610757D02*
X460692315Y-167753614D01*
X460692315Y-167753614D02*
X461692315Y-165610757D01*
X461692315Y-165610757D02*
X461692315Y-168610757D01*
X462835172Y-165610757D02*
X464835172Y-168610757D01*
X464835172Y-165610757D02*
X462835172Y-168610757D01*
X468263743Y-168610757D02*
X468263743Y-165610757D01*
X468263743Y-165610757D02*
X469978029Y-168610757D01*
X469978029Y-168610757D02*
X469978029Y-165610757D01*
X471406600Y-165610757D02*
X471406600Y-168039328D01*
X471406600Y-168039328D02*
X471549457Y-168325042D01*
X471549457Y-168325042D02*
X471692315Y-168467900D01*
X471692315Y-168467900D02*
X471978029Y-168610757D01*
X471978029Y-168610757D02*
X472549457Y-168610757D01*
X472549457Y-168610757D02*
X472835172Y-168467900D01*
X472835172Y-168467900D02*
X472978029Y-168325042D01*
X472978029Y-168325042D02*
X473120886Y-168039328D01*
X473120886Y-168039328D02*
X473120886Y-165610757D01*
X474549457Y-168610757D02*
X474549457Y-165610757D01*
X474549457Y-165610757D02*
X475549457Y-167753614D01*
X475549457Y-167753614D02*
X476549457Y-165610757D01*
X476549457Y-165610757D02*
X476549457Y-168610757D01*
X477978028Y-167039328D02*
X478978028Y-167039328D01*
X479406600Y-168610757D02*
X477978028Y-168610757D01*
X477978028Y-168610757D02*
X477978028Y-165610757D01*
X477978028Y-165610757D02*
X479406600Y-165610757D01*
X482406600Y-168610757D02*
X481406600Y-167182185D01*
X480692314Y-168610757D02*
X480692314Y-165610757D01*
X480692314Y-165610757D02*
X481835171Y-165610757D01*
X481835171Y-165610757D02*
X482120886Y-165753614D01*
X482120886Y-165753614D02*
X482263743Y-165896471D01*
X482263743Y-165896471D02*
X482406600Y-166182185D01*
X482406600Y-166182185D02*
X482406600Y-166610757D01*
X482406600Y-166610757D02*
X482263743Y-166896471D01*
X482263743Y-166896471D02*
X482120886Y-167039328D01*
X482120886Y-167039328D02*
X481835171Y-167182185D01*
X481835171Y-167182185D02*
X480692314Y-167182185D01*
X483692314Y-168610757D02*
X483692314Y-165610757D01*
X486835171Y-168325042D02*
X486692314Y-168467900D01*
X486692314Y-168467900D02*
X486263742Y-168610757D01*
X486263742Y-168610757D02*
X485978028Y-168610757D01*
X485978028Y-168610757D02*
X485549457Y-168467900D01*
X485549457Y-168467900D02*
X485263742Y-168182185D01*
X485263742Y-168182185D02*
X485120885Y-167896471D01*
X485120885Y-167896471D02*
X484978028Y-167325042D01*
X484978028Y-167325042D02*
X484978028Y-166896471D01*
X484978028Y-166896471D02*
X485120885Y-166325042D01*
X485120885Y-166325042D02*
X485263742Y-166039328D01*
X485263742Y-166039328D02*
X485549457Y-165753614D01*
X485549457Y-165753614D02*
X485978028Y-165610757D01*
X485978028Y-165610757D02*
X486263742Y-165610757D01*
X486263742Y-165610757D02*
X486692314Y-165753614D01*
X486692314Y-165753614D02*
X486835171Y-165896471D01*
X490406599Y-168610757D02*
X490406599Y-165610757D01*
X490406599Y-165610757D02*
X491549456Y-165610757D01*
X491549456Y-165610757D02*
X491835171Y-165753614D01*
X491835171Y-165753614D02*
X491978028Y-165896471D01*
X491978028Y-165896471D02*
X492120885Y-166182185D01*
X492120885Y-166182185D02*
X492120885Y-166610757D01*
X492120885Y-166610757D02*
X491978028Y-166896471D01*
X491978028Y-166896471D02*
X491835171Y-167039328D01*
X491835171Y-167039328D02*
X491549456Y-167182185D01*
X491549456Y-167182185D02*
X490406599Y-167182185D01*
X493263742Y-167753614D02*
X494692314Y-167753614D01*
X492978028Y-168610757D02*
X493978028Y-165610757D01*
X493978028Y-165610757D02*
X494978028Y-168610757D01*
X495978028Y-168610757D02*
X495978028Y-165610757D01*
X495978028Y-165610757D02*
X496692314Y-165610757D01*
X496692314Y-165610757D02*
X497120885Y-165753614D01*
X497120885Y-165753614D02*
X497406600Y-166039328D01*
X497406600Y-166039328D02*
X497549457Y-166325042D01*
X497549457Y-166325042D02*
X497692314Y-166896471D01*
X497692314Y-166896471D02*
X497692314Y-167325042D01*
X497692314Y-167325042D02*
X497549457Y-167896471D01*
X497549457Y-167896471D02*
X497406600Y-168182185D01*
X497406600Y-168182185D02*
X497120885Y-168467900D01*
X497120885Y-168467900D02*
X496692314Y-168610757D01*
X496692314Y-168610757D02*
X495978028Y-168610757D01*
D13*
X433460566Y-205798519D02*
X433460566Y-206512804D01*
X433460566Y-206512804D02*
X433412947Y-206655661D01*
X433412947Y-206655661D02*
X433317709Y-206750900D01*
X433317709Y-206750900D02*
X433174852Y-206798519D01*
X433174852Y-206798519D02*
X433079614Y-206798519D01*
X433984376Y-206798519D02*
X434174852Y-206798519D01*
X434174852Y-206798519D02*
X434270090Y-206750900D01*
X434270090Y-206750900D02*
X434317709Y-206703280D01*
X434317709Y-206703280D02*
X434412947Y-206560423D01*
X434412947Y-206560423D02*
X434460566Y-206369947D01*
X434460566Y-206369947D02*
X434460566Y-205988995D01*
X434460566Y-205988995D02*
X434412947Y-205893757D01*
X434412947Y-205893757D02*
X434365328Y-205846138D01*
X434365328Y-205846138D02*
X434270090Y-205798519D01*
X434270090Y-205798519D02*
X434079614Y-205798519D01*
X434079614Y-205798519D02*
X433984376Y-205846138D01*
X433984376Y-205846138D02*
X433936757Y-205893757D01*
X433936757Y-205893757D02*
X433889138Y-205988995D01*
X433889138Y-205988995D02*
X433889138Y-206227090D01*
X433889138Y-206227090D02*
X433936757Y-206322328D01*
X433936757Y-206322328D02*
X433984376Y-206369947D01*
X433984376Y-206369947D02*
X434079614Y-206417566D01*
X434079614Y-206417566D02*
X434270090Y-206417566D01*
X434270090Y-206417566D02*
X434365328Y-206369947D01*
X434365328Y-206369947D02*
X434412947Y-206322328D01*
X434412947Y-206322328D02*
X434460566Y-206227090D01*
X499688076Y-178016700D02*
X499830933Y-178064319D01*
X499830933Y-178064319D02*
X500069028Y-178064319D01*
X500069028Y-178064319D02*
X500164266Y-178016700D01*
X500164266Y-178016700D02*
X500211885Y-177969080D01*
X500211885Y-177969080D02*
X500259504Y-177873842D01*
X500259504Y-177873842D02*
X500259504Y-177778604D01*
X500259504Y-177778604D02*
X500211885Y-177683366D01*
X500211885Y-177683366D02*
X500164266Y-177635747D01*
X500164266Y-177635747D02*
X500069028Y-177588128D01*
X500069028Y-177588128D02*
X499878552Y-177540509D01*
X499878552Y-177540509D02*
X499783314Y-177492890D01*
X499783314Y-177492890D02*
X499735695Y-177445271D01*
X499735695Y-177445271D02*
X499688076Y-177350033D01*
X499688076Y-177350033D02*
X499688076Y-177254795D01*
X499688076Y-177254795D02*
X499735695Y-177159557D01*
X499735695Y-177159557D02*
X499783314Y-177111938D01*
X499783314Y-177111938D02*
X499878552Y-177064319D01*
X499878552Y-177064319D02*
X500116647Y-177064319D01*
X500116647Y-177064319D02*
X500259504Y-177111938D01*
X500592838Y-177064319D02*
X500830933Y-178064319D01*
X500830933Y-178064319D02*
X501021409Y-177350033D01*
X501021409Y-177350033D02*
X501211885Y-178064319D01*
X501211885Y-178064319D02*
X501449981Y-177064319D01*
X501735695Y-177064319D02*
X502354742Y-177064319D01*
X502354742Y-177064319D02*
X502021409Y-177445271D01*
X502021409Y-177445271D02*
X502164266Y-177445271D01*
X502164266Y-177445271D02*
X502259504Y-177492890D01*
X502259504Y-177492890D02*
X502307123Y-177540509D01*
X502307123Y-177540509D02*
X502354742Y-177635747D01*
X502354742Y-177635747D02*
X502354742Y-177873842D01*
X502354742Y-177873842D02*
X502307123Y-177969080D01*
X502307123Y-177969080D02*
X502259504Y-178016700D01*
X502259504Y-178016700D02*
X502164266Y-178064319D01*
X502164266Y-178064319D02*
X501878552Y-178064319D01*
X501878552Y-178064319D02*
X501783314Y-178016700D01*
X501783314Y-178016700D02*
X501735695Y-177969080D01*
X502735695Y-177159557D02*
X502783314Y-177111938D01*
X502783314Y-177111938D02*
X502878552Y-177064319D01*
X502878552Y-177064319D02*
X503116647Y-177064319D01*
X503116647Y-177064319D02*
X503211885Y-177111938D01*
X503211885Y-177111938D02*
X503259504Y-177159557D01*
X503259504Y-177159557D02*
X503307123Y-177254795D01*
X503307123Y-177254795D02*
X503307123Y-177350033D01*
X503307123Y-177350033D02*
X503259504Y-177492890D01*
X503259504Y-177492890D02*
X502688076Y-178064319D01*
X502688076Y-178064319D02*
X503307123Y-178064319D01*
X442474576Y-178042100D02*
X442617433Y-178089719D01*
X442617433Y-178089719D02*
X442855528Y-178089719D01*
X442855528Y-178089719D02*
X442950766Y-178042100D01*
X442950766Y-178042100D02*
X442998385Y-177994480D01*
X442998385Y-177994480D02*
X443046004Y-177899242D01*
X443046004Y-177899242D02*
X443046004Y-177804004D01*
X443046004Y-177804004D02*
X442998385Y-177708766D01*
X442998385Y-177708766D02*
X442950766Y-177661147D01*
X442950766Y-177661147D02*
X442855528Y-177613528D01*
X442855528Y-177613528D02*
X442665052Y-177565909D01*
X442665052Y-177565909D02*
X442569814Y-177518290D01*
X442569814Y-177518290D02*
X442522195Y-177470671D01*
X442522195Y-177470671D02*
X442474576Y-177375433D01*
X442474576Y-177375433D02*
X442474576Y-177280195D01*
X442474576Y-177280195D02*
X442522195Y-177184957D01*
X442522195Y-177184957D02*
X442569814Y-177137338D01*
X442569814Y-177137338D02*
X442665052Y-177089719D01*
X442665052Y-177089719D02*
X442903147Y-177089719D01*
X442903147Y-177089719D02*
X443046004Y-177137338D01*
X443379338Y-177089719D02*
X443617433Y-178089719D01*
X443617433Y-178089719D02*
X443807909Y-177375433D01*
X443807909Y-177375433D02*
X443998385Y-178089719D01*
X443998385Y-178089719D02*
X444236481Y-177089719D01*
X444569814Y-177184957D02*
X444617433Y-177137338D01*
X444617433Y-177137338D02*
X444712671Y-177089719D01*
X444712671Y-177089719D02*
X444950766Y-177089719D01*
X444950766Y-177089719D02*
X445046004Y-177137338D01*
X445046004Y-177137338D02*
X445093623Y-177184957D01*
X445093623Y-177184957D02*
X445141242Y-177280195D01*
X445141242Y-177280195D02*
X445141242Y-177375433D01*
X445141242Y-177375433D02*
X445093623Y-177518290D01*
X445093623Y-177518290D02*
X444522195Y-178089719D01*
X444522195Y-178089719D02*
X445141242Y-178089719D01*
X445617433Y-178089719D02*
X445807909Y-178089719D01*
X445807909Y-178089719D02*
X445903147Y-178042100D01*
X445903147Y-178042100D02*
X445950766Y-177994480D01*
X445950766Y-177994480D02*
X446046004Y-177851623D01*
X446046004Y-177851623D02*
X446093623Y-177661147D01*
X446093623Y-177661147D02*
X446093623Y-177280195D01*
X446093623Y-177280195D02*
X446046004Y-177184957D01*
X446046004Y-177184957D02*
X445998385Y-177137338D01*
X445998385Y-177137338D02*
X445903147Y-177089719D01*
X445903147Y-177089719D02*
X445712671Y-177089719D01*
X445712671Y-177089719D02*
X445617433Y-177137338D01*
X445617433Y-177137338D02*
X445569814Y-177184957D01*
X445569814Y-177184957D02*
X445522195Y-177280195D01*
X445522195Y-177280195D02*
X445522195Y-177518290D01*
X445522195Y-177518290D02*
X445569814Y-177613528D01*
X445569814Y-177613528D02*
X445617433Y-177661147D01*
X445617433Y-177661147D02*
X445712671Y-177708766D01*
X445712671Y-177708766D02*
X445903147Y-177708766D01*
X445903147Y-177708766D02*
X445998385Y-177661147D01*
X445998385Y-177661147D02*
X446046004Y-177613528D01*
X446046004Y-177613528D02*
X446093623Y-177518290D01*
X480625376Y-178042100D02*
X480768233Y-178089719D01*
X480768233Y-178089719D02*
X481006328Y-178089719D01*
X481006328Y-178089719D02*
X481101566Y-178042100D01*
X481101566Y-178042100D02*
X481149185Y-177994480D01*
X481149185Y-177994480D02*
X481196804Y-177899242D01*
X481196804Y-177899242D02*
X481196804Y-177804004D01*
X481196804Y-177804004D02*
X481149185Y-177708766D01*
X481149185Y-177708766D02*
X481101566Y-177661147D01*
X481101566Y-177661147D02*
X481006328Y-177613528D01*
X481006328Y-177613528D02*
X480815852Y-177565909D01*
X480815852Y-177565909D02*
X480720614Y-177518290D01*
X480720614Y-177518290D02*
X480672995Y-177470671D01*
X480672995Y-177470671D02*
X480625376Y-177375433D01*
X480625376Y-177375433D02*
X480625376Y-177280195D01*
X480625376Y-177280195D02*
X480672995Y-177184957D01*
X480672995Y-177184957D02*
X480720614Y-177137338D01*
X480720614Y-177137338D02*
X480815852Y-177089719D01*
X480815852Y-177089719D02*
X481053947Y-177089719D01*
X481053947Y-177089719D02*
X481196804Y-177137338D01*
X481530138Y-177089719D02*
X481768233Y-178089719D01*
X481768233Y-178089719D02*
X481958709Y-177375433D01*
X481958709Y-177375433D02*
X482149185Y-178089719D01*
X482149185Y-178089719D02*
X482387281Y-177089719D01*
X482672995Y-177089719D02*
X483292042Y-177089719D01*
X483292042Y-177089719D02*
X482958709Y-177470671D01*
X482958709Y-177470671D02*
X483101566Y-177470671D01*
X483101566Y-177470671D02*
X483196804Y-177518290D01*
X483196804Y-177518290D02*
X483244423Y-177565909D01*
X483244423Y-177565909D02*
X483292042Y-177661147D01*
X483292042Y-177661147D02*
X483292042Y-177899242D01*
X483292042Y-177899242D02*
X483244423Y-177994480D01*
X483244423Y-177994480D02*
X483196804Y-178042100D01*
X483196804Y-178042100D02*
X483101566Y-178089719D01*
X483101566Y-178089719D02*
X482815852Y-178089719D01*
X482815852Y-178089719D02*
X482720614Y-178042100D01*
X482720614Y-178042100D02*
X482672995Y-177994480D01*
X484244423Y-178089719D02*
X483672995Y-178089719D01*
X483958709Y-178089719D02*
X483958709Y-177089719D01*
X483958709Y-177089719D02*
X483863471Y-177232576D01*
X483863471Y-177232576D02*
X483768233Y-177327814D01*
X483768233Y-177327814D02*
X483672995Y-177375433D01*
X461499176Y-178042100D02*
X461642033Y-178089719D01*
X461642033Y-178089719D02*
X461880128Y-178089719D01*
X461880128Y-178089719D02*
X461975366Y-178042100D01*
X461975366Y-178042100D02*
X462022985Y-177994480D01*
X462022985Y-177994480D02*
X462070604Y-177899242D01*
X462070604Y-177899242D02*
X462070604Y-177804004D01*
X462070604Y-177804004D02*
X462022985Y-177708766D01*
X462022985Y-177708766D02*
X461975366Y-177661147D01*
X461975366Y-177661147D02*
X461880128Y-177613528D01*
X461880128Y-177613528D02*
X461689652Y-177565909D01*
X461689652Y-177565909D02*
X461594414Y-177518290D01*
X461594414Y-177518290D02*
X461546795Y-177470671D01*
X461546795Y-177470671D02*
X461499176Y-177375433D01*
X461499176Y-177375433D02*
X461499176Y-177280195D01*
X461499176Y-177280195D02*
X461546795Y-177184957D01*
X461546795Y-177184957D02*
X461594414Y-177137338D01*
X461594414Y-177137338D02*
X461689652Y-177089719D01*
X461689652Y-177089719D02*
X461927747Y-177089719D01*
X461927747Y-177089719D02*
X462070604Y-177137338D01*
X462403938Y-177089719D02*
X462642033Y-178089719D01*
X462642033Y-178089719D02*
X462832509Y-177375433D01*
X462832509Y-177375433D02*
X463022985Y-178089719D01*
X463022985Y-178089719D02*
X463261081Y-177089719D01*
X463546795Y-177089719D02*
X464165842Y-177089719D01*
X464165842Y-177089719D02*
X463832509Y-177470671D01*
X463832509Y-177470671D02*
X463975366Y-177470671D01*
X463975366Y-177470671D02*
X464070604Y-177518290D01*
X464070604Y-177518290D02*
X464118223Y-177565909D01*
X464118223Y-177565909D02*
X464165842Y-177661147D01*
X464165842Y-177661147D02*
X464165842Y-177899242D01*
X464165842Y-177899242D02*
X464118223Y-177994480D01*
X464118223Y-177994480D02*
X464070604Y-178042100D01*
X464070604Y-178042100D02*
X463975366Y-178089719D01*
X463975366Y-178089719D02*
X463689652Y-178089719D01*
X463689652Y-178089719D02*
X463594414Y-178042100D01*
X463594414Y-178042100D02*
X463546795Y-177994480D01*
X464784890Y-177089719D02*
X464880128Y-177089719D01*
X464880128Y-177089719D02*
X464975366Y-177137338D01*
X464975366Y-177137338D02*
X465022985Y-177184957D01*
X465022985Y-177184957D02*
X465070604Y-177280195D01*
X465070604Y-177280195D02*
X465118223Y-177470671D01*
X465118223Y-177470671D02*
X465118223Y-177708766D01*
X465118223Y-177708766D02*
X465070604Y-177899242D01*
X465070604Y-177899242D02*
X465022985Y-177994480D01*
X465022985Y-177994480D02*
X464975366Y-178042100D01*
X464975366Y-178042100D02*
X464880128Y-178089719D01*
X464880128Y-178089719D02*
X464784890Y-178089719D01*
X464784890Y-178089719D02*
X464689652Y-178042100D01*
X464689652Y-178042100D02*
X464642033Y-177994480D01*
X464642033Y-177994480D02*
X464594414Y-177899242D01*
X464594414Y-177899242D02*
X464546795Y-177708766D01*
X464546795Y-177708766D02*
X464546795Y-177470671D01*
X464546795Y-177470671D02*
X464594414Y-177280195D01*
X464594414Y-177280195D02*
X464642033Y-177184957D01*
X464642033Y-177184957D02*
X464689652Y-177137338D01*
X464689652Y-177137338D02*
X464784890Y-177089719D01*
X480599976Y-235166700D02*
X480742833Y-235214319D01*
X480742833Y-235214319D02*
X480980928Y-235214319D01*
X480980928Y-235214319D02*
X481076166Y-235166700D01*
X481076166Y-235166700D02*
X481123785Y-235119080D01*
X481123785Y-235119080D02*
X481171404Y-235023842D01*
X481171404Y-235023842D02*
X481171404Y-234928604D01*
X481171404Y-234928604D02*
X481123785Y-234833366D01*
X481123785Y-234833366D02*
X481076166Y-234785747D01*
X481076166Y-234785747D02*
X480980928Y-234738128D01*
X480980928Y-234738128D02*
X480790452Y-234690509D01*
X480790452Y-234690509D02*
X480695214Y-234642890D01*
X480695214Y-234642890D02*
X480647595Y-234595271D01*
X480647595Y-234595271D02*
X480599976Y-234500033D01*
X480599976Y-234500033D02*
X480599976Y-234404795D01*
X480599976Y-234404795D02*
X480647595Y-234309557D01*
X480647595Y-234309557D02*
X480695214Y-234261938D01*
X480695214Y-234261938D02*
X480790452Y-234214319D01*
X480790452Y-234214319D02*
X481028547Y-234214319D01*
X481028547Y-234214319D02*
X481171404Y-234261938D01*
X481504738Y-234214319D02*
X481742833Y-235214319D01*
X481742833Y-235214319D02*
X481933309Y-234500033D01*
X481933309Y-234500033D02*
X482123785Y-235214319D01*
X482123785Y-235214319D02*
X482361881Y-234214319D01*
X482647595Y-234214319D02*
X483314261Y-234214319D01*
X483314261Y-234214319D02*
X482885690Y-235214319D01*
X483742833Y-235214319D02*
X483933309Y-235214319D01*
X483933309Y-235214319D02*
X484028547Y-235166700D01*
X484028547Y-235166700D02*
X484076166Y-235119080D01*
X484076166Y-235119080D02*
X484171404Y-234976223D01*
X484171404Y-234976223D02*
X484219023Y-234785747D01*
X484219023Y-234785747D02*
X484219023Y-234404795D01*
X484219023Y-234404795D02*
X484171404Y-234309557D01*
X484171404Y-234309557D02*
X484123785Y-234261938D01*
X484123785Y-234261938D02*
X484028547Y-234214319D01*
X484028547Y-234214319D02*
X483838071Y-234214319D01*
X483838071Y-234214319D02*
X483742833Y-234261938D01*
X483742833Y-234261938D02*
X483695214Y-234309557D01*
X483695214Y-234309557D02*
X483647595Y-234404795D01*
X483647595Y-234404795D02*
X483647595Y-234642890D01*
X483647595Y-234642890D02*
X483695214Y-234738128D01*
X483695214Y-234738128D02*
X483742833Y-234785747D01*
X483742833Y-234785747D02*
X483838071Y-234833366D01*
X483838071Y-234833366D02*
X484028547Y-234833366D01*
X484028547Y-234833366D02*
X484123785Y-234785747D01*
X484123785Y-234785747D02*
X484171404Y-234738128D01*
X484171404Y-234738128D02*
X484219023Y-234642890D01*
X461562676Y-216116700D02*
X461705533Y-216164319D01*
X461705533Y-216164319D02*
X461943628Y-216164319D01*
X461943628Y-216164319D02*
X462038866Y-216116700D01*
X462038866Y-216116700D02*
X462086485Y-216069080D01*
X462086485Y-216069080D02*
X462134104Y-215973842D01*
X462134104Y-215973842D02*
X462134104Y-215878604D01*
X462134104Y-215878604D02*
X462086485Y-215783366D01*
X462086485Y-215783366D02*
X462038866Y-215735747D01*
X462038866Y-215735747D02*
X461943628Y-215688128D01*
X461943628Y-215688128D02*
X461753152Y-215640509D01*
X461753152Y-215640509D02*
X461657914Y-215592890D01*
X461657914Y-215592890D02*
X461610295Y-215545271D01*
X461610295Y-215545271D02*
X461562676Y-215450033D01*
X461562676Y-215450033D02*
X461562676Y-215354795D01*
X461562676Y-215354795D02*
X461610295Y-215259557D01*
X461610295Y-215259557D02*
X461657914Y-215211938D01*
X461657914Y-215211938D02*
X461753152Y-215164319D01*
X461753152Y-215164319D02*
X461991247Y-215164319D01*
X461991247Y-215164319D02*
X462134104Y-215211938D01*
X462467438Y-215164319D02*
X462705533Y-216164319D01*
X462705533Y-216164319D02*
X462896009Y-215450033D01*
X462896009Y-215450033D02*
X463086485Y-216164319D01*
X463086485Y-216164319D02*
X463324581Y-215164319D01*
X464134104Y-215164319D02*
X463943628Y-215164319D01*
X463943628Y-215164319D02*
X463848390Y-215211938D01*
X463848390Y-215211938D02*
X463800771Y-215259557D01*
X463800771Y-215259557D02*
X463705533Y-215402414D01*
X463705533Y-215402414D02*
X463657914Y-215592890D01*
X463657914Y-215592890D02*
X463657914Y-215973842D01*
X463657914Y-215973842D02*
X463705533Y-216069080D01*
X463705533Y-216069080D02*
X463753152Y-216116700D01*
X463753152Y-216116700D02*
X463848390Y-216164319D01*
X463848390Y-216164319D02*
X464038866Y-216164319D01*
X464038866Y-216164319D02*
X464134104Y-216116700D01*
X464134104Y-216116700D02*
X464181723Y-216069080D01*
X464181723Y-216069080D02*
X464229342Y-215973842D01*
X464229342Y-215973842D02*
X464229342Y-215735747D01*
X464229342Y-215735747D02*
X464181723Y-215640509D01*
X464181723Y-215640509D02*
X464134104Y-215592890D01*
X464134104Y-215592890D02*
X464038866Y-215545271D01*
X464038866Y-215545271D02*
X463848390Y-215545271D01*
X463848390Y-215545271D02*
X463753152Y-215592890D01*
X463753152Y-215592890D02*
X463705533Y-215640509D01*
X463705533Y-215640509D02*
X463657914Y-215735747D01*
X464610295Y-215259557D02*
X464657914Y-215211938D01*
X464657914Y-215211938D02*
X464753152Y-215164319D01*
X464753152Y-215164319D02*
X464991247Y-215164319D01*
X464991247Y-215164319D02*
X465086485Y-215211938D01*
X465086485Y-215211938D02*
X465134104Y-215259557D01*
X465134104Y-215259557D02*
X465181723Y-215354795D01*
X465181723Y-215354795D02*
X465181723Y-215450033D01*
X465181723Y-215450033D02*
X465134104Y-215592890D01*
X465134104Y-215592890D02*
X464562676Y-216164319D01*
X464562676Y-216164319D02*
X465181723Y-216164319D01*
X442512676Y-216116700D02*
X442655533Y-216164319D01*
X442655533Y-216164319D02*
X442893628Y-216164319D01*
X442893628Y-216164319D02*
X442988866Y-216116700D01*
X442988866Y-216116700D02*
X443036485Y-216069080D01*
X443036485Y-216069080D02*
X443084104Y-215973842D01*
X443084104Y-215973842D02*
X443084104Y-215878604D01*
X443084104Y-215878604D02*
X443036485Y-215783366D01*
X443036485Y-215783366D02*
X442988866Y-215735747D01*
X442988866Y-215735747D02*
X442893628Y-215688128D01*
X442893628Y-215688128D02*
X442703152Y-215640509D01*
X442703152Y-215640509D02*
X442607914Y-215592890D01*
X442607914Y-215592890D02*
X442560295Y-215545271D01*
X442560295Y-215545271D02*
X442512676Y-215450033D01*
X442512676Y-215450033D02*
X442512676Y-215354795D01*
X442512676Y-215354795D02*
X442560295Y-215259557D01*
X442560295Y-215259557D02*
X442607914Y-215211938D01*
X442607914Y-215211938D02*
X442703152Y-215164319D01*
X442703152Y-215164319D02*
X442941247Y-215164319D01*
X442941247Y-215164319D02*
X443084104Y-215211938D01*
X443417438Y-215164319D02*
X443655533Y-216164319D01*
X443655533Y-216164319D02*
X443846009Y-215450033D01*
X443846009Y-215450033D02*
X444036485Y-216164319D01*
X444036485Y-216164319D02*
X444274581Y-215164319D01*
X445084104Y-215164319D02*
X444893628Y-215164319D01*
X444893628Y-215164319D02*
X444798390Y-215211938D01*
X444798390Y-215211938D02*
X444750771Y-215259557D01*
X444750771Y-215259557D02*
X444655533Y-215402414D01*
X444655533Y-215402414D02*
X444607914Y-215592890D01*
X444607914Y-215592890D02*
X444607914Y-215973842D01*
X444607914Y-215973842D02*
X444655533Y-216069080D01*
X444655533Y-216069080D02*
X444703152Y-216116700D01*
X444703152Y-216116700D02*
X444798390Y-216164319D01*
X444798390Y-216164319D02*
X444988866Y-216164319D01*
X444988866Y-216164319D02*
X445084104Y-216116700D01*
X445084104Y-216116700D02*
X445131723Y-216069080D01*
X445131723Y-216069080D02*
X445179342Y-215973842D01*
X445179342Y-215973842D02*
X445179342Y-215735747D01*
X445179342Y-215735747D02*
X445131723Y-215640509D01*
X445131723Y-215640509D02*
X445084104Y-215592890D01*
X445084104Y-215592890D02*
X444988866Y-215545271D01*
X444988866Y-215545271D02*
X444798390Y-215545271D01*
X444798390Y-215545271D02*
X444703152Y-215592890D01*
X444703152Y-215592890D02*
X444655533Y-215640509D01*
X444655533Y-215640509D02*
X444607914Y-215735747D01*
X446131723Y-216164319D02*
X445560295Y-216164319D01*
X445846009Y-216164319D02*
X445846009Y-215164319D01*
X445846009Y-215164319D02*
X445750771Y-215307176D01*
X445750771Y-215307176D02*
X445655533Y-215402414D01*
X445655533Y-215402414D02*
X445560295Y-215450033D01*
X480650776Y-216154800D02*
X480793633Y-216202419D01*
X480793633Y-216202419D02*
X481031728Y-216202419D01*
X481031728Y-216202419D02*
X481126966Y-216154800D01*
X481126966Y-216154800D02*
X481174585Y-216107180D01*
X481174585Y-216107180D02*
X481222204Y-216011942D01*
X481222204Y-216011942D02*
X481222204Y-215916704D01*
X481222204Y-215916704D02*
X481174585Y-215821466D01*
X481174585Y-215821466D02*
X481126966Y-215773847D01*
X481126966Y-215773847D02*
X481031728Y-215726228D01*
X481031728Y-215726228D02*
X480841252Y-215678609D01*
X480841252Y-215678609D02*
X480746014Y-215630990D01*
X480746014Y-215630990D02*
X480698395Y-215583371D01*
X480698395Y-215583371D02*
X480650776Y-215488133D01*
X480650776Y-215488133D02*
X480650776Y-215392895D01*
X480650776Y-215392895D02*
X480698395Y-215297657D01*
X480698395Y-215297657D02*
X480746014Y-215250038D01*
X480746014Y-215250038D02*
X480841252Y-215202419D01*
X480841252Y-215202419D02*
X481079347Y-215202419D01*
X481079347Y-215202419D02*
X481222204Y-215250038D01*
X481555538Y-215202419D02*
X481793633Y-216202419D01*
X481793633Y-216202419D02*
X481984109Y-215488133D01*
X481984109Y-215488133D02*
X482174585Y-216202419D01*
X482174585Y-216202419D02*
X482412681Y-215202419D01*
X483222204Y-215202419D02*
X483031728Y-215202419D01*
X483031728Y-215202419D02*
X482936490Y-215250038D01*
X482936490Y-215250038D02*
X482888871Y-215297657D01*
X482888871Y-215297657D02*
X482793633Y-215440514D01*
X482793633Y-215440514D02*
X482746014Y-215630990D01*
X482746014Y-215630990D02*
X482746014Y-216011942D01*
X482746014Y-216011942D02*
X482793633Y-216107180D01*
X482793633Y-216107180D02*
X482841252Y-216154800D01*
X482841252Y-216154800D02*
X482936490Y-216202419D01*
X482936490Y-216202419D02*
X483126966Y-216202419D01*
X483126966Y-216202419D02*
X483222204Y-216154800D01*
X483222204Y-216154800D02*
X483269823Y-216107180D01*
X483269823Y-216107180D02*
X483317442Y-216011942D01*
X483317442Y-216011942D02*
X483317442Y-215773847D01*
X483317442Y-215773847D02*
X483269823Y-215678609D01*
X483269823Y-215678609D02*
X483222204Y-215630990D01*
X483222204Y-215630990D02*
X483126966Y-215583371D01*
X483126966Y-215583371D02*
X482936490Y-215583371D01*
X482936490Y-215583371D02*
X482841252Y-215630990D01*
X482841252Y-215630990D02*
X482793633Y-215678609D01*
X482793633Y-215678609D02*
X482746014Y-215773847D01*
X483650776Y-215202419D02*
X484269823Y-215202419D01*
X484269823Y-215202419D02*
X483936490Y-215583371D01*
X483936490Y-215583371D02*
X484079347Y-215583371D01*
X484079347Y-215583371D02*
X484174585Y-215630990D01*
X484174585Y-215630990D02*
X484222204Y-215678609D01*
X484222204Y-215678609D02*
X484269823Y-215773847D01*
X484269823Y-215773847D02*
X484269823Y-216011942D01*
X484269823Y-216011942D02*
X484222204Y-216107180D01*
X484222204Y-216107180D02*
X484174585Y-216154800D01*
X484174585Y-216154800D02*
X484079347Y-216202419D01*
X484079347Y-216202419D02*
X483793633Y-216202419D01*
X483793633Y-216202419D02*
X483698395Y-216154800D01*
X483698395Y-216154800D02*
X483650776Y-216107180D01*
X461562676Y-235154000D02*
X461705533Y-235201619D01*
X461705533Y-235201619D02*
X461943628Y-235201619D01*
X461943628Y-235201619D02*
X462038866Y-235154000D01*
X462038866Y-235154000D02*
X462086485Y-235106380D01*
X462086485Y-235106380D02*
X462134104Y-235011142D01*
X462134104Y-235011142D02*
X462134104Y-234915904D01*
X462134104Y-234915904D02*
X462086485Y-234820666D01*
X462086485Y-234820666D02*
X462038866Y-234773047D01*
X462038866Y-234773047D02*
X461943628Y-234725428D01*
X461943628Y-234725428D02*
X461753152Y-234677809D01*
X461753152Y-234677809D02*
X461657914Y-234630190D01*
X461657914Y-234630190D02*
X461610295Y-234582571D01*
X461610295Y-234582571D02*
X461562676Y-234487333D01*
X461562676Y-234487333D02*
X461562676Y-234392095D01*
X461562676Y-234392095D02*
X461610295Y-234296857D01*
X461610295Y-234296857D02*
X461657914Y-234249238D01*
X461657914Y-234249238D02*
X461753152Y-234201619D01*
X461753152Y-234201619D02*
X461991247Y-234201619D01*
X461991247Y-234201619D02*
X462134104Y-234249238D01*
X462467438Y-234201619D02*
X462705533Y-235201619D01*
X462705533Y-235201619D02*
X462896009Y-234487333D01*
X462896009Y-234487333D02*
X463086485Y-235201619D01*
X463086485Y-235201619D02*
X463324581Y-234201619D01*
X463610295Y-234201619D02*
X464276961Y-234201619D01*
X464276961Y-234201619D02*
X463848390Y-235201619D01*
X464800771Y-234630190D02*
X464705533Y-234582571D01*
X464705533Y-234582571D02*
X464657914Y-234534952D01*
X464657914Y-234534952D02*
X464610295Y-234439714D01*
X464610295Y-234439714D02*
X464610295Y-234392095D01*
X464610295Y-234392095D02*
X464657914Y-234296857D01*
X464657914Y-234296857D02*
X464705533Y-234249238D01*
X464705533Y-234249238D02*
X464800771Y-234201619D01*
X464800771Y-234201619D02*
X464991247Y-234201619D01*
X464991247Y-234201619D02*
X465086485Y-234249238D01*
X465086485Y-234249238D02*
X465134104Y-234296857D01*
X465134104Y-234296857D02*
X465181723Y-234392095D01*
X465181723Y-234392095D02*
X465181723Y-234439714D01*
X465181723Y-234439714D02*
X465134104Y-234534952D01*
X465134104Y-234534952D02*
X465086485Y-234582571D01*
X465086485Y-234582571D02*
X464991247Y-234630190D01*
X464991247Y-234630190D02*
X464800771Y-234630190D01*
X464800771Y-234630190D02*
X464705533Y-234677809D01*
X464705533Y-234677809D02*
X464657914Y-234725428D01*
X464657914Y-234725428D02*
X464610295Y-234820666D01*
X464610295Y-234820666D02*
X464610295Y-235011142D01*
X464610295Y-235011142D02*
X464657914Y-235106380D01*
X464657914Y-235106380D02*
X464705533Y-235154000D01*
X464705533Y-235154000D02*
X464800771Y-235201619D01*
X464800771Y-235201619D02*
X464991247Y-235201619D01*
X464991247Y-235201619D02*
X465086485Y-235154000D01*
X465086485Y-235154000D02*
X465134104Y-235106380D01*
X465134104Y-235106380D02*
X465181723Y-235011142D01*
X465181723Y-235011142D02*
X465181723Y-234820666D01*
X465181723Y-234820666D02*
X465134104Y-234725428D01*
X465134104Y-234725428D02*
X465086485Y-234677809D01*
X465086485Y-234677809D02*
X464991247Y-234630190D01*
X499700776Y-216154800D02*
X499843633Y-216202419D01*
X499843633Y-216202419D02*
X500081728Y-216202419D01*
X500081728Y-216202419D02*
X500176966Y-216154800D01*
X500176966Y-216154800D02*
X500224585Y-216107180D01*
X500224585Y-216107180D02*
X500272204Y-216011942D01*
X500272204Y-216011942D02*
X500272204Y-215916704D01*
X500272204Y-215916704D02*
X500224585Y-215821466D01*
X500224585Y-215821466D02*
X500176966Y-215773847D01*
X500176966Y-215773847D02*
X500081728Y-215726228D01*
X500081728Y-215726228D02*
X499891252Y-215678609D01*
X499891252Y-215678609D02*
X499796014Y-215630990D01*
X499796014Y-215630990D02*
X499748395Y-215583371D01*
X499748395Y-215583371D02*
X499700776Y-215488133D01*
X499700776Y-215488133D02*
X499700776Y-215392895D01*
X499700776Y-215392895D02*
X499748395Y-215297657D01*
X499748395Y-215297657D02*
X499796014Y-215250038D01*
X499796014Y-215250038D02*
X499891252Y-215202419D01*
X499891252Y-215202419D02*
X500129347Y-215202419D01*
X500129347Y-215202419D02*
X500272204Y-215250038D01*
X500605538Y-215202419D02*
X500843633Y-216202419D01*
X500843633Y-216202419D02*
X501034109Y-215488133D01*
X501034109Y-215488133D02*
X501224585Y-216202419D01*
X501224585Y-216202419D02*
X501462681Y-215202419D01*
X502272204Y-215202419D02*
X502081728Y-215202419D01*
X502081728Y-215202419D02*
X501986490Y-215250038D01*
X501986490Y-215250038D02*
X501938871Y-215297657D01*
X501938871Y-215297657D02*
X501843633Y-215440514D01*
X501843633Y-215440514D02*
X501796014Y-215630990D01*
X501796014Y-215630990D02*
X501796014Y-216011942D01*
X501796014Y-216011942D02*
X501843633Y-216107180D01*
X501843633Y-216107180D02*
X501891252Y-216154800D01*
X501891252Y-216154800D02*
X501986490Y-216202419D01*
X501986490Y-216202419D02*
X502176966Y-216202419D01*
X502176966Y-216202419D02*
X502272204Y-216154800D01*
X502272204Y-216154800D02*
X502319823Y-216107180D01*
X502319823Y-216107180D02*
X502367442Y-216011942D01*
X502367442Y-216011942D02*
X502367442Y-215773847D01*
X502367442Y-215773847D02*
X502319823Y-215678609D01*
X502319823Y-215678609D02*
X502272204Y-215630990D01*
X502272204Y-215630990D02*
X502176966Y-215583371D01*
X502176966Y-215583371D02*
X501986490Y-215583371D01*
X501986490Y-215583371D02*
X501891252Y-215630990D01*
X501891252Y-215630990D02*
X501843633Y-215678609D01*
X501843633Y-215678609D02*
X501796014Y-215773847D01*
X503224585Y-215535752D02*
X503224585Y-216202419D01*
X502986490Y-215154800D02*
X502748395Y-215869085D01*
X502748395Y-215869085D02*
X503367442Y-215869085D01*
X442499976Y-235179400D02*
X442642833Y-235227019D01*
X442642833Y-235227019D02*
X442880928Y-235227019D01*
X442880928Y-235227019D02*
X442976166Y-235179400D01*
X442976166Y-235179400D02*
X443023785Y-235131780D01*
X443023785Y-235131780D02*
X443071404Y-235036542D01*
X443071404Y-235036542D02*
X443071404Y-234941304D01*
X443071404Y-234941304D02*
X443023785Y-234846066D01*
X443023785Y-234846066D02*
X442976166Y-234798447D01*
X442976166Y-234798447D02*
X442880928Y-234750828D01*
X442880928Y-234750828D02*
X442690452Y-234703209D01*
X442690452Y-234703209D02*
X442595214Y-234655590D01*
X442595214Y-234655590D02*
X442547595Y-234607971D01*
X442547595Y-234607971D02*
X442499976Y-234512733D01*
X442499976Y-234512733D02*
X442499976Y-234417495D01*
X442499976Y-234417495D02*
X442547595Y-234322257D01*
X442547595Y-234322257D02*
X442595214Y-234274638D01*
X442595214Y-234274638D02*
X442690452Y-234227019D01*
X442690452Y-234227019D02*
X442928547Y-234227019D01*
X442928547Y-234227019D02*
X443071404Y-234274638D01*
X443404738Y-234227019D02*
X443642833Y-235227019D01*
X443642833Y-235227019D02*
X443833309Y-234512733D01*
X443833309Y-234512733D02*
X444023785Y-235227019D01*
X444023785Y-235227019D02*
X444261881Y-234227019D01*
X444547595Y-234227019D02*
X445214261Y-234227019D01*
X445214261Y-234227019D02*
X444785690Y-235227019D01*
X445499976Y-234227019D02*
X446166642Y-234227019D01*
X446166642Y-234227019D02*
X445738071Y-235227019D01*
X461549976Y-197092100D02*
X461692833Y-197139719D01*
X461692833Y-197139719D02*
X461930928Y-197139719D01*
X461930928Y-197139719D02*
X462026166Y-197092100D01*
X462026166Y-197092100D02*
X462073785Y-197044480D01*
X462073785Y-197044480D02*
X462121404Y-196949242D01*
X462121404Y-196949242D02*
X462121404Y-196854004D01*
X462121404Y-196854004D02*
X462073785Y-196758766D01*
X462073785Y-196758766D02*
X462026166Y-196711147D01*
X462026166Y-196711147D02*
X461930928Y-196663528D01*
X461930928Y-196663528D02*
X461740452Y-196615909D01*
X461740452Y-196615909D02*
X461645214Y-196568290D01*
X461645214Y-196568290D02*
X461597595Y-196520671D01*
X461597595Y-196520671D02*
X461549976Y-196425433D01*
X461549976Y-196425433D02*
X461549976Y-196330195D01*
X461549976Y-196330195D02*
X461597595Y-196234957D01*
X461597595Y-196234957D02*
X461645214Y-196187338D01*
X461645214Y-196187338D02*
X461740452Y-196139719D01*
X461740452Y-196139719D02*
X461978547Y-196139719D01*
X461978547Y-196139719D02*
X462121404Y-196187338D01*
X462454738Y-196139719D02*
X462692833Y-197139719D01*
X462692833Y-197139719D02*
X462883309Y-196425433D01*
X462883309Y-196425433D02*
X463073785Y-197139719D01*
X463073785Y-197139719D02*
X463311881Y-196139719D01*
X464121404Y-196473052D02*
X464121404Y-197139719D01*
X463883309Y-196092100D02*
X463645214Y-196806385D01*
X463645214Y-196806385D02*
X464264261Y-196806385D01*
X465073785Y-196139719D02*
X464883309Y-196139719D01*
X464883309Y-196139719D02*
X464788071Y-196187338D01*
X464788071Y-196187338D02*
X464740452Y-196234957D01*
X464740452Y-196234957D02*
X464645214Y-196377814D01*
X464645214Y-196377814D02*
X464597595Y-196568290D01*
X464597595Y-196568290D02*
X464597595Y-196949242D01*
X464597595Y-196949242D02*
X464645214Y-197044480D01*
X464645214Y-197044480D02*
X464692833Y-197092100D01*
X464692833Y-197092100D02*
X464788071Y-197139719D01*
X464788071Y-197139719D02*
X464978547Y-197139719D01*
X464978547Y-197139719D02*
X465073785Y-197092100D01*
X465073785Y-197092100D02*
X465121404Y-197044480D01*
X465121404Y-197044480D02*
X465169023Y-196949242D01*
X465169023Y-196949242D02*
X465169023Y-196711147D01*
X465169023Y-196711147D02*
X465121404Y-196615909D01*
X465121404Y-196615909D02*
X465073785Y-196568290D01*
X465073785Y-196568290D02*
X464978547Y-196520671D01*
X464978547Y-196520671D02*
X464788071Y-196520671D01*
X464788071Y-196520671D02*
X464692833Y-196568290D01*
X464692833Y-196568290D02*
X464645214Y-196615909D01*
X464645214Y-196615909D02*
X464597595Y-196711147D01*
X442474576Y-197104800D02*
X442617433Y-197152419D01*
X442617433Y-197152419D02*
X442855528Y-197152419D01*
X442855528Y-197152419D02*
X442950766Y-197104800D01*
X442950766Y-197104800D02*
X442998385Y-197057180D01*
X442998385Y-197057180D02*
X443046004Y-196961942D01*
X443046004Y-196961942D02*
X443046004Y-196866704D01*
X443046004Y-196866704D02*
X442998385Y-196771466D01*
X442998385Y-196771466D02*
X442950766Y-196723847D01*
X442950766Y-196723847D02*
X442855528Y-196676228D01*
X442855528Y-196676228D02*
X442665052Y-196628609D01*
X442665052Y-196628609D02*
X442569814Y-196580990D01*
X442569814Y-196580990D02*
X442522195Y-196533371D01*
X442522195Y-196533371D02*
X442474576Y-196438133D01*
X442474576Y-196438133D02*
X442474576Y-196342895D01*
X442474576Y-196342895D02*
X442522195Y-196247657D01*
X442522195Y-196247657D02*
X442569814Y-196200038D01*
X442569814Y-196200038D02*
X442665052Y-196152419D01*
X442665052Y-196152419D02*
X442903147Y-196152419D01*
X442903147Y-196152419D02*
X443046004Y-196200038D01*
X443379338Y-196152419D02*
X443617433Y-197152419D01*
X443617433Y-197152419D02*
X443807909Y-196438133D01*
X443807909Y-196438133D02*
X443998385Y-197152419D01*
X443998385Y-197152419D02*
X444236481Y-196152419D01*
X445046004Y-196485752D02*
X445046004Y-197152419D01*
X444807909Y-196104800D02*
X444569814Y-196819085D01*
X444569814Y-196819085D02*
X445188861Y-196819085D01*
X446046004Y-196152419D02*
X445569814Y-196152419D01*
X445569814Y-196152419D02*
X445522195Y-196628609D01*
X445522195Y-196628609D02*
X445569814Y-196580990D01*
X445569814Y-196580990D02*
X445665052Y-196533371D01*
X445665052Y-196533371D02*
X445903147Y-196533371D01*
X445903147Y-196533371D02*
X445998385Y-196580990D01*
X445998385Y-196580990D02*
X446046004Y-196628609D01*
X446046004Y-196628609D02*
X446093623Y-196723847D01*
X446093623Y-196723847D02*
X446093623Y-196961942D01*
X446093623Y-196961942D02*
X446046004Y-197057180D01*
X446046004Y-197057180D02*
X445998385Y-197104800D01*
X445998385Y-197104800D02*
X445903147Y-197152419D01*
X445903147Y-197152419D02*
X445665052Y-197152419D01*
X445665052Y-197152419D02*
X445569814Y-197104800D01*
X445569814Y-197104800D02*
X445522195Y-197057180D01*
X499700776Y-197130200D02*
X499843633Y-197177819D01*
X499843633Y-197177819D02*
X500081728Y-197177819D01*
X500081728Y-197177819D02*
X500176966Y-197130200D01*
X500176966Y-197130200D02*
X500224585Y-197082580D01*
X500224585Y-197082580D02*
X500272204Y-196987342D01*
X500272204Y-196987342D02*
X500272204Y-196892104D01*
X500272204Y-196892104D02*
X500224585Y-196796866D01*
X500224585Y-196796866D02*
X500176966Y-196749247D01*
X500176966Y-196749247D02*
X500081728Y-196701628D01*
X500081728Y-196701628D02*
X499891252Y-196654009D01*
X499891252Y-196654009D02*
X499796014Y-196606390D01*
X499796014Y-196606390D02*
X499748395Y-196558771D01*
X499748395Y-196558771D02*
X499700776Y-196463533D01*
X499700776Y-196463533D02*
X499700776Y-196368295D01*
X499700776Y-196368295D02*
X499748395Y-196273057D01*
X499748395Y-196273057D02*
X499796014Y-196225438D01*
X499796014Y-196225438D02*
X499891252Y-196177819D01*
X499891252Y-196177819D02*
X500129347Y-196177819D01*
X500129347Y-196177819D02*
X500272204Y-196225438D01*
X500605538Y-196177819D02*
X500843633Y-197177819D01*
X500843633Y-197177819D02*
X501034109Y-196463533D01*
X501034109Y-196463533D02*
X501224585Y-197177819D01*
X501224585Y-197177819D02*
X501462681Y-196177819D01*
X502272204Y-196511152D02*
X502272204Y-197177819D01*
X502034109Y-196130200D02*
X501796014Y-196844485D01*
X501796014Y-196844485D02*
X502415061Y-196844485D01*
X502938871Y-196606390D02*
X502843633Y-196558771D01*
X502843633Y-196558771D02*
X502796014Y-196511152D01*
X502796014Y-196511152D02*
X502748395Y-196415914D01*
X502748395Y-196415914D02*
X502748395Y-196368295D01*
X502748395Y-196368295D02*
X502796014Y-196273057D01*
X502796014Y-196273057D02*
X502843633Y-196225438D01*
X502843633Y-196225438D02*
X502938871Y-196177819D01*
X502938871Y-196177819D02*
X503129347Y-196177819D01*
X503129347Y-196177819D02*
X503224585Y-196225438D01*
X503224585Y-196225438D02*
X503272204Y-196273057D01*
X503272204Y-196273057D02*
X503319823Y-196368295D01*
X503319823Y-196368295D02*
X503319823Y-196415914D01*
X503319823Y-196415914D02*
X503272204Y-196511152D01*
X503272204Y-196511152D02*
X503224585Y-196558771D01*
X503224585Y-196558771D02*
X503129347Y-196606390D01*
X503129347Y-196606390D02*
X502938871Y-196606390D01*
X502938871Y-196606390D02*
X502843633Y-196654009D01*
X502843633Y-196654009D02*
X502796014Y-196701628D01*
X502796014Y-196701628D02*
X502748395Y-196796866D01*
X502748395Y-196796866D02*
X502748395Y-196987342D01*
X502748395Y-196987342D02*
X502796014Y-197082580D01*
X502796014Y-197082580D02*
X502843633Y-197130200D01*
X502843633Y-197130200D02*
X502938871Y-197177819D01*
X502938871Y-197177819D02*
X503129347Y-197177819D01*
X503129347Y-197177819D02*
X503224585Y-197130200D01*
X503224585Y-197130200D02*
X503272204Y-197082580D01*
X503272204Y-197082580D02*
X503319823Y-196987342D01*
X503319823Y-196987342D02*
X503319823Y-196796866D01*
X503319823Y-196796866D02*
X503272204Y-196701628D01*
X503272204Y-196701628D02*
X503224585Y-196654009D01*
X503224585Y-196654009D02*
X503129347Y-196606390D01*
X480663476Y-197130200D02*
X480806333Y-197177819D01*
X480806333Y-197177819D02*
X481044428Y-197177819D01*
X481044428Y-197177819D02*
X481139666Y-197130200D01*
X481139666Y-197130200D02*
X481187285Y-197082580D01*
X481187285Y-197082580D02*
X481234904Y-196987342D01*
X481234904Y-196987342D02*
X481234904Y-196892104D01*
X481234904Y-196892104D02*
X481187285Y-196796866D01*
X481187285Y-196796866D02*
X481139666Y-196749247D01*
X481139666Y-196749247D02*
X481044428Y-196701628D01*
X481044428Y-196701628D02*
X480853952Y-196654009D01*
X480853952Y-196654009D02*
X480758714Y-196606390D01*
X480758714Y-196606390D02*
X480711095Y-196558771D01*
X480711095Y-196558771D02*
X480663476Y-196463533D01*
X480663476Y-196463533D02*
X480663476Y-196368295D01*
X480663476Y-196368295D02*
X480711095Y-196273057D01*
X480711095Y-196273057D02*
X480758714Y-196225438D01*
X480758714Y-196225438D02*
X480853952Y-196177819D01*
X480853952Y-196177819D02*
X481092047Y-196177819D01*
X481092047Y-196177819D02*
X481234904Y-196225438D01*
X481568238Y-196177819D02*
X481806333Y-197177819D01*
X481806333Y-197177819D02*
X481996809Y-196463533D01*
X481996809Y-196463533D02*
X482187285Y-197177819D01*
X482187285Y-197177819D02*
X482425381Y-196177819D01*
X483234904Y-196511152D02*
X483234904Y-197177819D01*
X482996809Y-196130200D02*
X482758714Y-196844485D01*
X482758714Y-196844485D02*
X483377761Y-196844485D01*
X483663476Y-196177819D02*
X484330142Y-196177819D01*
X484330142Y-196177819D02*
X483901571Y-197177819D01*
X461562676Y-254242100D02*
X461705533Y-254289719D01*
X461705533Y-254289719D02*
X461943628Y-254289719D01*
X461943628Y-254289719D02*
X462038866Y-254242100D01*
X462038866Y-254242100D02*
X462086485Y-254194480D01*
X462086485Y-254194480D02*
X462134104Y-254099242D01*
X462134104Y-254099242D02*
X462134104Y-254004004D01*
X462134104Y-254004004D02*
X462086485Y-253908766D01*
X462086485Y-253908766D02*
X462038866Y-253861147D01*
X462038866Y-253861147D02*
X461943628Y-253813528D01*
X461943628Y-253813528D02*
X461753152Y-253765909D01*
X461753152Y-253765909D02*
X461657914Y-253718290D01*
X461657914Y-253718290D02*
X461610295Y-253670671D01*
X461610295Y-253670671D02*
X461562676Y-253575433D01*
X461562676Y-253575433D02*
X461562676Y-253480195D01*
X461562676Y-253480195D02*
X461610295Y-253384957D01*
X461610295Y-253384957D02*
X461657914Y-253337338D01*
X461657914Y-253337338D02*
X461753152Y-253289719D01*
X461753152Y-253289719D02*
X461991247Y-253289719D01*
X461991247Y-253289719D02*
X462134104Y-253337338D01*
X462467438Y-253289719D02*
X462705533Y-254289719D01*
X462705533Y-254289719D02*
X462896009Y-253575433D01*
X462896009Y-253575433D02*
X463086485Y-254289719D01*
X463086485Y-254289719D02*
X463324581Y-253289719D01*
X463753152Y-254289719D02*
X463943628Y-254289719D01*
X463943628Y-254289719D02*
X464038866Y-254242100D01*
X464038866Y-254242100D02*
X464086485Y-254194480D01*
X464086485Y-254194480D02*
X464181723Y-254051623D01*
X464181723Y-254051623D02*
X464229342Y-253861147D01*
X464229342Y-253861147D02*
X464229342Y-253480195D01*
X464229342Y-253480195D02*
X464181723Y-253384957D01*
X464181723Y-253384957D02*
X464134104Y-253337338D01*
X464134104Y-253337338D02*
X464038866Y-253289719D01*
X464038866Y-253289719D02*
X463848390Y-253289719D01*
X463848390Y-253289719D02*
X463753152Y-253337338D01*
X463753152Y-253337338D02*
X463705533Y-253384957D01*
X463705533Y-253384957D02*
X463657914Y-253480195D01*
X463657914Y-253480195D02*
X463657914Y-253718290D01*
X463657914Y-253718290D02*
X463705533Y-253813528D01*
X463705533Y-253813528D02*
X463753152Y-253861147D01*
X463753152Y-253861147D02*
X463848390Y-253908766D01*
X463848390Y-253908766D02*
X464038866Y-253908766D01*
X464038866Y-253908766D02*
X464134104Y-253861147D01*
X464134104Y-253861147D02*
X464181723Y-253813528D01*
X464181723Y-253813528D02*
X464229342Y-253718290D01*
X465086485Y-253623052D02*
X465086485Y-254289719D01*
X464848390Y-253242100D02*
X464610295Y-253956385D01*
X464610295Y-253956385D02*
X465229342Y-253956385D01*
X480625376Y-254229400D02*
X480768233Y-254277019D01*
X480768233Y-254277019D02*
X481006328Y-254277019D01*
X481006328Y-254277019D02*
X481101566Y-254229400D01*
X481101566Y-254229400D02*
X481149185Y-254181780D01*
X481149185Y-254181780D02*
X481196804Y-254086542D01*
X481196804Y-254086542D02*
X481196804Y-253991304D01*
X481196804Y-253991304D02*
X481149185Y-253896066D01*
X481149185Y-253896066D02*
X481101566Y-253848447D01*
X481101566Y-253848447D02*
X481006328Y-253800828D01*
X481006328Y-253800828D02*
X480815852Y-253753209D01*
X480815852Y-253753209D02*
X480720614Y-253705590D01*
X480720614Y-253705590D02*
X480672995Y-253657971D01*
X480672995Y-253657971D02*
X480625376Y-253562733D01*
X480625376Y-253562733D02*
X480625376Y-253467495D01*
X480625376Y-253467495D02*
X480672995Y-253372257D01*
X480672995Y-253372257D02*
X480720614Y-253324638D01*
X480720614Y-253324638D02*
X480815852Y-253277019D01*
X480815852Y-253277019D02*
X481053947Y-253277019D01*
X481053947Y-253277019D02*
X481196804Y-253324638D01*
X481530138Y-253277019D02*
X481768233Y-254277019D01*
X481768233Y-254277019D02*
X481958709Y-253562733D01*
X481958709Y-253562733D02*
X482149185Y-254277019D01*
X482149185Y-254277019D02*
X482387281Y-253277019D01*
X482815852Y-254277019D02*
X483006328Y-254277019D01*
X483006328Y-254277019D02*
X483101566Y-254229400D01*
X483101566Y-254229400D02*
X483149185Y-254181780D01*
X483149185Y-254181780D02*
X483244423Y-254038923D01*
X483244423Y-254038923D02*
X483292042Y-253848447D01*
X483292042Y-253848447D02*
X483292042Y-253467495D01*
X483292042Y-253467495D02*
X483244423Y-253372257D01*
X483244423Y-253372257D02*
X483196804Y-253324638D01*
X483196804Y-253324638D02*
X483101566Y-253277019D01*
X483101566Y-253277019D02*
X482911090Y-253277019D01*
X482911090Y-253277019D02*
X482815852Y-253324638D01*
X482815852Y-253324638D02*
X482768233Y-253372257D01*
X482768233Y-253372257D02*
X482720614Y-253467495D01*
X482720614Y-253467495D02*
X482720614Y-253705590D01*
X482720614Y-253705590D02*
X482768233Y-253800828D01*
X482768233Y-253800828D02*
X482815852Y-253848447D01*
X482815852Y-253848447D02*
X482911090Y-253896066D01*
X482911090Y-253896066D02*
X483101566Y-253896066D01*
X483101566Y-253896066D02*
X483196804Y-253848447D01*
X483196804Y-253848447D02*
X483244423Y-253800828D01*
X483244423Y-253800828D02*
X483292042Y-253705590D01*
X484196804Y-253277019D02*
X483720614Y-253277019D01*
X483720614Y-253277019D02*
X483672995Y-253753209D01*
X483672995Y-253753209D02*
X483720614Y-253705590D01*
X483720614Y-253705590D02*
X483815852Y-253657971D01*
X483815852Y-253657971D02*
X484053947Y-253657971D01*
X484053947Y-253657971D02*
X484149185Y-253705590D01*
X484149185Y-253705590D02*
X484196804Y-253753209D01*
X484196804Y-253753209D02*
X484244423Y-253848447D01*
X484244423Y-253848447D02*
X484244423Y-254086542D01*
X484244423Y-254086542D02*
X484196804Y-254181780D01*
X484196804Y-254181780D02*
X484149185Y-254229400D01*
X484149185Y-254229400D02*
X484053947Y-254277019D01*
X484053947Y-254277019D02*
X483815852Y-254277019D01*
X483815852Y-254277019D02*
X483720614Y-254229400D01*
X483720614Y-254229400D02*
X483672995Y-254181780D01*
X442036486Y-254343700D02*
X442179343Y-254391319D01*
X442179343Y-254391319D02*
X442417438Y-254391319D01*
X442417438Y-254391319D02*
X442512676Y-254343700D01*
X442512676Y-254343700D02*
X442560295Y-254296080D01*
X442560295Y-254296080D02*
X442607914Y-254200842D01*
X442607914Y-254200842D02*
X442607914Y-254105604D01*
X442607914Y-254105604D02*
X442560295Y-254010366D01*
X442560295Y-254010366D02*
X442512676Y-253962747D01*
X442512676Y-253962747D02*
X442417438Y-253915128D01*
X442417438Y-253915128D02*
X442226962Y-253867509D01*
X442226962Y-253867509D02*
X442131724Y-253819890D01*
X442131724Y-253819890D02*
X442084105Y-253772271D01*
X442084105Y-253772271D02*
X442036486Y-253677033D01*
X442036486Y-253677033D02*
X442036486Y-253581795D01*
X442036486Y-253581795D02*
X442084105Y-253486557D01*
X442084105Y-253486557D02*
X442131724Y-253438938D01*
X442131724Y-253438938D02*
X442226962Y-253391319D01*
X442226962Y-253391319D02*
X442465057Y-253391319D01*
X442465057Y-253391319D02*
X442607914Y-253438938D01*
X442941248Y-253391319D02*
X443179343Y-254391319D01*
X443179343Y-254391319D02*
X443369819Y-253677033D01*
X443369819Y-253677033D02*
X443560295Y-254391319D01*
X443560295Y-254391319D02*
X443798391Y-253391319D01*
X444703152Y-254391319D02*
X444131724Y-254391319D01*
X444417438Y-254391319D02*
X444417438Y-253391319D01*
X444417438Y-253391319D02*
X444322200Y-253534176D01*
X444322200Y-253534176D02*
X444226962Y-253629414D01*
X444226962Y-253629414D02*
X444131724Y-253677033D01*
X445179343Y-254391319D02*
X445369819Y-254391319D01*
X445369819Y-254391319D02*
X445465057Y-254343700D01*
X445465057Y-254343700D02*
X445512676Y-254296080D01*
X445512676Y-254296080D02*
X445607914Y-254153223D01*
X445607914Y-254153223D02*
X445655533Y-253962747D01*
X445655533Y-253962747D02*
X445655533Y-253581795D01*
X445655533Y-253581795D02*
X445607914Y-253486557D01*
X445607914Y-253486557D02*
X445560295Y-253438938D01*
X445560295Y-253438938D02*
X445465057Y-253391319D01*
X445465057Y-253391319D02*
X445274581Y-253391319D01*
X445274581Y-253391319D02*
X445179343Y-253438938D01*
X445179343Y-253438938D02*
X445131724Y-253486557D01*
X445131724Y-253486557D02*
X445084105Y-253581795D01*
X445084105Y-253581795D02*
X445084105Y-253819890D01*
X445084105Y-253819890D02*
X445131724Y-253915128D01*
X445131724Y-253915128D02*
X445179343Y-253962747D01*
X445179343Y-253962747D02*
X445274581Y-254010366D01*
X445274581Y-254010366D02*
X445465057Y-254010366D01*
X445465057Y-254010366D02*
X445560295Y-253962747D01*
X445560295Y-253962747D02*
X445607914Y-253915128D01*
X445607914Y-253915128D02*
X445655533Y-253819890D01*
X445988867Y-253391319D02*
X446607914Y-253391319D01*
X446607914Y-253391319D02*
X446274581Y-253772271D01*
X446274581Y-253772271D02*
X446417438Y-253772271D01*
X446417438Y-253772271D02*
X446512676Y-253819890D01*
X446512676Y-253819890D02*
X446560295Y-253867509D01*
X446560295Y-253867509D02*
X446607914Y-253962747D01*
X446607914Y-253962747D02*
X446607914Y-254200842D01*
X446607914Y-254200842D02*
X446560295Y-254296080D01*
X446560295Y-254296080D02*
X446512676Y-254343700D01*
X446512676Y-254343700D02*
X446417438Y-254391319D01*
X446417438Y-254391319D02*
X446131724Y-254391319D01*
X446131724Y-254391319D02*
X446036486Y-254343700D01*
X446036486Y-254343700D02*
X445988867Y-254296080D01*
X499688076Y-244679000D02*
X499830933Y-244726619D01*
X499830933Y-244726619D02*
X500069028Y-244726619D01*
X500069028Y-244726619D02*
X500164266Y-244679000D01*
X500164266Y-244679000D02*
X500211885Y-244631380D01*
X500211885Y-244631380D02*
X500259504Y-244536142D01*
X500259504Y-244536142D02*
X500259504Y-244440904D01*
X500259504Y-244440904D02*
X500211885Y-244345666D01*
X500211885Y-244345666D02*
X500164266Y-244298047D01*
X500164266Y-244298047D02*
X500069028Y-244250428D01*
X500069028Y-244250428D02*
X499878552Y-244202809D01*
X499878552Y-244202809D02*
X499783314Y-244155190D01*
X499783314Y-244155190D02*
X499735695Y-244107571D01*
X499735695Y-244107571D02*
X499688076Y-244012333D01*
X499688076Y-244012333D02*
X499688076Y-243917095D01*
X499688076Y-243917095D02*
X499735695Y-243821857D01*
X499735695Y-243821857D02*
X499783314Y-243774238D01*
X499783314Y-243774238D02*
X499878552Y-243726619D01*
X499878552Y-243726619D02*
X500116647Y-243726619D01*
X500116647Y-243726619D02*
X500259504Y-243774238D01*
X500592838Y-243726619D02*
X500830933Y-244726619D01*
X500830933Y-244726619D02*
X501021409Y-244012333D01*
X501021409Y-244012333D02*
X501211885Y-244726619D01*
X501211885Y-244726619D02*
X501449981Y-243726619D01*
X501973790Y-244155190D02*
X501878552Y-244107571D01*
X501878552Y-244107571D02*
X501830933Y-244059952D01*
X501830933Y-244059952D02*
X501783314Y-243964714D01*
X501783314Y-243964714D02*
X501783314Y-243917095D01*
X501783314Y-243917095D02*
X501830933Y-243821857D01*
X501830933Y-243821857D02*
X501878552Y-243774238D01*
X501878552Y-243774238D02*
X501973790Y-243726619D01*
X501973790Y-243726619D02*
X502164266Y-243726619D01*
X502164266Y-243726619D02*
X502259504Y-243774238D01*
X502259504Y-243774238D02*
X502307123Y-243821857D01*
X502307123Y-243821857D02*
X502354742Y-243917095D01*
X502354742Y-243917095D02*
X502354742Y-243964714D01*
X502354742Y-243964714D02*
X502307123Y-244059952D01*
X502307123Y-244059952D02*
X502259504Y-244107571D01*
X502259504Y-244107571D02*
X502164266Y-244155190D01*
X502164266Y-244155190D02*
X501973790Y-244155190D01*
X501973790Y-244155190D02*
X501878552Y-244202809D01*
X501878552Y-244202809D02*
X501830933Y-244250428D01*
X501830933Y-244250428D02*
X501783314Y-244345666D01*
X501783314Y-244345666D02*
X501783314Y-244536142D01*
X501783314Y-244536142D02*
X501830933Y-244631380D01*
X501830933Y-244631380D02*
X501878552Y-244679000D01*
X501878552Y-244679000D02*
X501973790Y-244726619D01*
X501973790Y-244726619D02*
X502164266Y-244726619D01*
X502164266Y-244726619D02*
X502259504Y-244679000D01*
X502259504Y-244679000D02*
X502307123Y-244631380D01*
X502307123Y-244631380D02*
X502354742Y-244536142D01*
X502354742Y-244536142D02*
X502354742Y-244345666D01*
X502354742Y-244345666D02*
X502307123Y-244250428D01*
X502307123Y-244250428D02*
X502259504Y-244202809D01*
X502259504Y-244202809D02*
X502164266Y-244155190D01*
X502973790Y-243726619D02*
X503069028Y-243726619D01*
X503069028Y-243726619D02*
X503164266Y-243774238D01*
X503164266Y-243774238D02*
X503211885Y-243821857D01*
X503211885Y-243821857D02*
X503259504Y-243917095D01*
X503259504Y-243917095D02*
X503307123Y-244107571D01*
X503307123Y-244107571D02*
X503307123Y-244345666D01*
X503307123Y-244345666D02*
X503259504Y-244536142D01*
X503259504Y-244536142D02*
X503211885Y-244631380D01*
X503211885Y-244631380D02*
X503164266Y-244679000D01*
X503164266Y-244679000D02*
X503069028Y-244726619D01*
X503069028Y-244726619D02*
X502973790Y-244726619D01*
X502973790Y-244726619D02*
X502878552Y-244679000D01*
X502878552Y-244679000D02*
X502830933Y-244631380D01*
X502830933Y-244631380D02*
X502783314Y-244536142D01*
X502783314Y-244536142D02*
X502735695Y-244345666D01*
X502735695Y-244345666D02*
X502735695Y-244107571D01*
X502735695Y-244107571D02*
X502783314Y-243917095D01*
X502783314Y-243917095D02*
X502830933Y-243821857D01*
X502830933Y-243821857D02*
X502878552Y-243774238D01*
X502878552Y-243774238D02*
X502973790Y-243726619D01*
D10*
X432413900Y-207293700D02*
X433793900Y-207293700D01*
X432413900Y-208673700D02*
X432413900Y-207293700D01*
X432413900Y-209943700D02*
X432413900Y-248153700D01*
X432413900Y-209943700D02*
X435173900Y-209943700D01*
X432413900Y-248153700D02*
X435173900Y-248153700D01*
X435173900Y-209943700D02*
X435173900Y-248153700D01*
X494512600Y-178498500D02*
X508482600Y-178498500D01*
X494512600Y-192468500D02*
X494512600Y-178498500D01*
X508482600Y-178498500D02*
X508482600Y-192468500D01*
X508482600Y-192468500D02*
X494512600Y-192468500D01*
X437299100Y-178523900D02*
X451269100Y-178523900D01*
X437299100Y-192493900D02*
X437299100Y-178523900D01*
X451269100Y-178523900D02*
X451269100Y-192493900D01*
X451269100Y-192493900D02*
X437299100Y-192493900D01*
X475449900Y-178523900D02*
X489419900Y-178523900D01*
X475449900Y-192493900D02*
X475449900Y-178523900D01*
X489419900Y-178523900D02*
X489419900Y-192493900D01*
X489419900Y-192493900D02*
X475449900Y-192493900D01*
X456323700Y-178523900D02*
X470293700Y-178523900D01*
X456323700Y-192493900D02*
X456323700Y-178523900D01*
X470293700Y-178523900D02*
X470293700Y-192493900D01*
X470293700Y-192493900D02*
X456323700Y-192493900D01*
X475424500Y-235648500D02*
X489394500Y-235648500D01*
X475424500Y-249618500D02*
X475424500Y-235648500D01*
X489394500Y-235648500D02*
X489394500Y-249618500D01*
X489394500Y-249618500D02*
X475424500Y-249618500D01*
X456387200Y-216598500D02*
X470357200Y-216598500D01*
X456387200Y-230568500D02*
X456387200Y-216598500D01*
X470357200Y-216598500D02*
X470357200Y-230568500D01*
X470357200Y-230568500D02*
X456387200Y-230568500D01*
X437337200Y-216598500D02*
X451307200Y-216598500D01*
X437337200Y-230568500D02*
X437337200Y-216598500D01*
X451307200Y-216598500D02*
X451307200Y-230568500D01*
X451307200Y-230568500D02*
X437337200Y-230568500D01*
X475475300Y-216636600D02*
X489445300Y-216636600D01*
X475475300Y-230606600D02*
X475475300Y-216636600D01*
X489445300Y-216636600D02*
X489445300Y-230606600D01*
X489445300Y-230606600D02*
X475475300Y-230606600D01*
X456387200Y-235635800D02*
X470357200Y-235635800D01*
X456387200Y-249605800D02*
X456387200Y-235635800D01*
X470357200Y-235635800D02*
X470357200Y-249605800D01*
X470357200Y-249605800D02*
X456387200Y-249605800D01*
X494525300Y-216636600D02*
X508495300Y-216636600D01*
X494525300Y-230606600D02*
X494525300Y-216636600D01*
X508495300Y-216636600D02*
X508495300Y-230606600D01*
X508495300Y-230606600D02*
X494525300Y-230606600D01*
X437324500Y-235661200D02*
X451294500Y-235661200D01*
X437324500Y-249631200D02*
X437324500Y-235661200D01*
X451294500Y-235661200D02*
X451294500Y-249631200D01*
X451294500Y-249631200D02*
X437324500Y-249631200D01*
X456374500Y-197573900D02*
X470344500Y-197573900D01*
X456374500Y-211543900D02*
X456374500Y-197573900D01*
X470344500Y-197573900D02*
X470344500Y-211543900D01*
X470344500Y-211543900D02*
X456374500Y-211543900D01*
X437299100Y-197586600D02*
X451269100Y-197586600D01*
X437299100Y-211556600D02*
X437299100Y-197586600D01*
X451269100Y-197586600D02*
X451269100Y-211556600D01*
X451269100Y-211556600D02*
X437299100Y-211556600D01*
X494525300Y-197612000D02*
X508495300Y-197612000D01*
X494525300Y-211582000D02*
X494525300Y-197612000D01*
X508495300Y-197612000D02*
X508495300Y-211582000D01*
X508495300Y-211582000D02*
X494525300Y-211582000D01*
X475488000Y-197612000D02*
X489458000Y-197612000D01*
X475488000Y-211582000D02*
X475488000Y-197612000D01*
X489458000Y-197612000D02*
X489458000Y-211582000D01*
X489458000Y-211582000D02*
X475488000Y-211582000D01*
X456387200Y-254723900D02*
X470357200Y-254723900D01*
X456387200Y-268693900D02*
X456387200Y-254723900D01*
X470357200Y-254723900D02*
X470357200Y-268693900D01*
X470357200Y-268693900D02*
X456387200Y-268693900D01*
X475449900Y-254711200D02*
X489419900Y-254711200D01*
X475449900Y-268681200D02*
X475449900Y-254711200D01*
X489419900Y-254711200D02*
X489419900Y-268681200D01*
X489419900Y-268681200D02*
X475449900Y-268681200D01*
X437337200Y-254685800D02*
X451307200Y-254685800D01*
X437337200Y-268655800D02*
X437337200Y-254685800D01*
X451307200Y-254685800D02*
X451307200Y-268655800D01*
X451307200Y-268655800D02*
X437337200Y-268655800D01*
X494512600Y-245160800D02*
X508482600Y-245160800D01*
X494512600Y-259130800D02*
X494512600Y-245160800D01*
X508482600Y-245160800D02*
X508482600Y-259130800D01*
X508482600Y-259130800D02*
X494512600Y-259130800D01*
D14*
X430949100Y-147269200D02*
X430961800Y-275932900D01*
X430949100Y-147269200D02*
G75*
G02*
X436791100Y-141427200I5842000J0D01*
G01*
X436803800Y-281774900D02*
G75*
G02*
X430961800Y-275932900I0J5842000D01*
G01*
X439888000Y-147358100D02*
G75*
G02*
X434888000Y-147358100I-2500000J0D01*
G01*
X434888000Y-147358100D02*
G75*
G02*
X439888000Y-147358100I2500000J0D01*
G01*
X439888000Y-277266400D02*
G75*
G02*
X434888000Y-277266400I-2500000J0D01*
G01*
X434888000Y-277266400D02*
G75*
G02*
X439888000Y-277266400I2500000J0D01*
G01*
X456385300Y-147269200D02*
G75*
G02*
X451385300Y-147269200I-2500000J0D01*
G01*
X451385300Y-147269200D02*
G75*
G02*
X456385300Y-147269200I2500000J0D01*
G01*
X456385300Y-277266400D02*
G75*
G02*
X451385300Y-277266400I-2500000J0D01*
G01*
X451385300Y-277266400D02*
G75*
G02*
X456385300Y-277266400I2500000J0D01*
G01*
X496466500Y-147269200D02*
G75*
G02*
X491466500Y-147269200I-2500000J0D01*
G01*
X491466500Y-147269200D02*
G75*
G02*
X496466500Y-147269200I2500000J0D01*
G01*
X496517300Y-277253700D02*
G75*
G02*
X491517300Y-277253700I-2500000J0D01*
G01*
X491517300Y-277253700D02*
G75*
G02*
X496517300Y-277253700I2500000J0D01*
G01*
X506524900Y-147269200D02*
G75*
G02*
X501524900Y-147269200I-2500000J0D01*
G01*
X501524900Y-147269200D02*
G75*
G02*
X506524900Y-147269200I2500000J0D01*
G01*
X508019994Y-277279100D02*
G75*
G02*
X500029806Y-277279100I-3995094J0D01*
G01*
X500029806Y-277279100D02*
G75*
G02*
X508019994Y-277279100I3995094J0D01*
G01*
X508177800Y-141427200D02*
X436791100Y-141427200D01*
X508177800Y-141427200D02*
G75*
G02*
X514019800Y-147269200I0J-5842000D01*
G01*
X508177800Y-281774900D02*
X436803800Y-281774900D01*
X514019800Y-147853400D02*
X514019800Y-147269200D01*
X514019800Y-275932900D02*
G75*
G02*
X508177800Y-281774900I-5842000J0D01*
G01*
X514019800Y-275932900D02*
X514019800Y-147853400D01*
M02*
