G04 #@! TF.GenerationSoftware,KiCad,Pcbnew,10.0.6*
G04 #@! TF.CreationDate,2026-09-23T14:58:44-04:00*
G04 #@! TF.ProjectId,v364mx-numpad,76333634-6d78-42d6-9e75-6d7061642e6b,rev?*
G04 #@! TF.SameCoordinates,Original*
G04 #@! TF.FileFunction,Profile,NP*
%FSLAX46Y46*%
G04 Gerber Fmt 4.6, Leading zero omitted, Abs format (unit mm)*
G04 Created by KiCad (PCBNEW 10.0.6) date 2026-09-23 14:58:44*
%MOMM*%
%LPD*%
G01*
G04 APERTURE LIST*
G04 #@! TA.AperFunction,Profile*
%ADD10C,0.050000*%
G04 #@! TD*
G04 APERTURE END LIST*
D10*
X430949100Y-147269200D02*
X430961800Y-275932900D01*
X430949100Y-147269200D02*
G75*
G02*
X436791100Y-141427200I5842000J0D01*
G01*
X436803800Y-281774900D02*
G75*
G02*
X430961800Y-275932900I0J5842000D01*
G01*
X439888000Y-147358100D02*
G75*
G02*
X434888000Y-147358100I-2500000J0D01*
G01*
X434888000Y-147358100D02*
G75*
G02*
X439888000Y-147358100I2500000J0D01*
G01*
X439888000Y-277266400D02*
G75*
G02*
X434888000Y-277266400I-2500000J0D01*
G01*
X434888000Y-277266400D02*
G75*
G02*
X439888000Y-277266400I2500000J0D01*
G01*
X456385300Y-147269200D02*
G75*
G02*
X451385300Y-147269200I-2500000J0D01*
G01*
X451385300Y-147269200D02*
G75*
G02*
X456385300Y-147269200I2500000J0D01*
G01*
X456385300Y-277266400D02*
G75*
G02*
X451385300Y-277266400I-2500000J0D01*
G01*
X451385300Y-277266400D02*
G75*
G02*
X456385300Y-277266400I2500000J0D01*
G01*
X496466500Y-147269200D02*
G75*
G02*
X491466500Y-147269200I-2500000J0D01*
G01*
X491466500Y-147269200D02*
G75*
G02*
X496466500Y-147269200I2500000J0D01*
G01*
X496517300Y-277253700D02*
G75*
G02*
X491517300Y-277253700I-2500000J0D01*
G01*
X491517300Y-277253700D02*
G75*
G02*
X496517300Y-277253700I2500000J0D01*
G01*
X506524900Y-147269200D02*
G75*
G02*
X501524900Y-147269200I-2500000J0D01*
G01*
X501524900Y-147269200D02*
G75*
G02*
X506524900Y-147269200I2500000J0D01*
G01*
X508019994Y-277279100D02*
G75*
G02*
X500029806Y-277279100I-3995094J0D01*
G01*
X500029806Y-277279100D02*
G75*
G02*
X508019994Y-277279100I3995094J0D01*
G01*
X508177800Y-141427200D02*
X436791100Y-141427200D01*
X508177800Y-141427200D02*
G75*
G02*
X514019800Y-147269200I0J-5842000D01*
G01*
X508177800Y-281774900D02*
X436803800Y-281774900D01*
X514019800Y-147853400D02*
X514019800Y-147269200D01*
X514019800Y-275932900D02*
G75*
G02*
X508177800Y-281774900I-5842000J0D01*
G01*
X514019800Y-275932900D02*
X514019800Y-147853400D01*
M02*
