M48
; DRILL file KiCad 10.0.6 date 2026-09-23T14:58:41
; FORMAT={-:-/ absolute / metric / decimal}
; #@! TF.CreationDate,2026-09-23T14:58:41-04:00
; #@! TF.GenerationSoftware,Kicad,Pcbnew,10.0.6
; #@! TF.FileFunction,Plated,1,2,PTH
FMAT,2
METRIC
; #@! TA.AperFunction,Plated,PTH,ViaDrill
T1C0.400
; #@! TA.AperFunction,Plated,PTH,ComponentDrill
T2C1.000
; #@! TA.AperFunction,Plated,PTH,ComponentDrill
T3C1.500
%
G90
G05
T1
X439.433Y-232.181
X439.877Y-245.402
X440.893Y-233.617
X445.783Y-246.723
X449.275Y-209.017
X449.275Y-217.246
X450.291Y-238.328
X452.272Y-216.027
X454.977Y-229.527
X457.238Y-235.445
X457.937Y-218.504
X466.014Y-250.622
X468.071Y-226.784
X473.088Y-240.64
X474.409Y-218.529
X476.237Y-227.851
X490.106Y-184.277
X491.35Y-223.71
X492.163Y-194.691
T2
X433.794Y-208.674
X433.794Y-211.214
X433.794Y-213.754
X433.794Y-216.294
X433.794Y-218.834
X433.794Y-221.374
X433.794Y-223.914
X433.794Y-226.454
X433.794Y-228.994
X433.794Y-231.534
X433.794Y-234.074
X433.794Y-236.614
X433.794Y-239.154
X433.794Y-241.694
X433.794Y-244.234
X433.794Y-246.774
T3
X440.474Y-182.969
X440.474Y-202.032
X440.499Y-240.106
X440.512Y-221.043
X440.512Y-259.131
X446.824Y-180.429
X446.824Y-199.492
X446.849Y-237.566
X446.862Y-218.504
X446.862Y-256.591
X459.499Y-182.969
X459.549Y-202.019
X459.562Y-221.043
X459.562Y-240.081
X459.562Y-259.169
X465.849Y-180.429
X465.899Y-199.479
X465.912Y-218.504
X465.912Y-237.541
X465.912Y-256.629
X478.599Y-240.093
X478.625Y-182.969
X478.625Y-259.156
X478.65Y-221.082
X478.663Y-202.057
X484.95Y-237.553
X484.975Y-180.429
X484.975Y-256.616
X485.0Y-218.542
X485.013Y-199.517
X497.688Y-182.944
X497.688Y-249.606
X497.7Y-202.057
X497.7Y-221.082
X504.038Y-180.403
X504.038Y-247.066
X504.05Y-199.517
X504.05Y-218.542
M30
